<?xml version="1.0" standalone="no"?>
<!DOCTYPE svg PUBLIC "-//W3C//DTD SVG 1.1//EN" "http://www.w3.org/Graphics/SVG/1.1/DTD/svg11.dtd" >
<svg xmlns="http://www.w3.org/2000/svg">
<metadata></metadata>
<defs>
<font id="statelyregular" horiz-adv-x="2048" >
<font-face units-per-em="2048" ascent="1638" descent="-410" />
<missing-glyph horiz-adv-x="500" />
<glyph unicode="nj" d="M1788 1136l-2 -2v-4v-2l-4 -10l-2 -2v0l2 -4v-4l-2 -4v-2l2 -2l4 -2v-4l2 -2h2l4 -4l8 -6l-2 -4l-4 -4l-2 -4h-2v-2v-4l-6 -4h-2l-2 -2l-2 -2v-6v-2v-2h2l-2 -2l6 -4h2l4 -2l4 -4l2 2h8l2 -6v-4v-2v2v4l2 2l2 6v2v4l4 4v0l2 4l-2 4l4 2v2l2 4l2 2l-2 2v4v4l-2 4h2l2 6v10 v2h-6h-2h-4v10l2 6h2v2l2 6v2v2z" />
<glyph unicode="de" d="M1776 1058h-2l-2 -2l-2 -2v-2l10 -34l4 -20l2 -2l8 2l6 8v4l2 2h-4l-6 6l-2 2l-4 4l-2 6v2v2l-4 2l-2 4l-2 4v2l-4 4l2 2l2 4v2zM1804 1002l-8 -4l10 2z" />
<glyph unicode="ia" d="M1194 1154l-32 -2l-50 -2l-60 -2h-38v-2l2 -2l-2 -6v0l4 -4v-4l-2 -4v-2l-2 -8h-2v-2v-2l4 -2v-6h4v-6v-2l2 -2v-4v-2l2 -4l2 -2l4 -6v-4l2 -2v-4v-4v-2v-2h2v-4l4 -2v-4v-4v-2l2 -4v-4v-4l2 -6l-2 -8l2 -2l2 -2h38h26l54 4l26 2l2 -4l6 -4l2 -2v2l-2 2l4 6l6 4h2v4v4 l4 4v6l-6 6l2 8v4l12 2l4 2l6 2l2 2v6l4 6l2 8l-2 4l-2 2l-2 2l-4 2v4l-6 4l-4 4v2l-2 4l-8 2l-4 2l-2 4v2l-2 4v6l-2 4l2 6v2l-2 2l-2 2l-2 2v2z" />
<glyph unicode="fl" d="M1614 584l-2 -2v-2v-2l2 -4v-2v-8l-4 -4h-6l-2 8l-2 2l-106 -8l-4 4v2l-4 6l-62 -8l-38 -4h-2v-4l4 -4l2 -2l4 -4l-2 -4v-2l4 -2v-2l-2 -4l2 2l4 4v2l-2 2l6 4v-2l4 10l2 -10l4 -4v-2l2 2h4l-6 2h12l6 6l2 -4l6 2l6 -2l2 -6l8 -2l-2 2l6 2l2 -2l10 6l-2 -10h-4l2 -2h4 l2 -2h8l-6 -6h2l4 -4l2 -4v-4l2 2h6l2 2l6 4l2 -2l10 8l4 2h-2l2 4l2 2l4 4h6h4h2l8 -4h2l8 -4l4 -6l6 -2l2 -6v-2l10 -6l2 -2l2 -2l2 -2l2 -2l6 2l6 -6v-4l2 -2l4 -2v-4l2 -2v-8v-4v-4l-2 -14v-4v-6l-2 -4l6 -4h2v4h-2l-2 2v2l-2 4v4l10 -6l2 2l6 -4v-4l-6 -10v-6l4 -6 l-2 2l2 -4v-2l6 -10h10l2 -2l6 4l2 -4l-4 -2l2 -2v-8v-2l2 -2h2v4l18 14l-14 -18v-2l-2 -2l2 -2l4 -2l4 -12l4 -6h12l-6 -2h4l6 -4l2 -2l2 -2l4 -6l2 -4l4 -4l2 -2h4l6 -4l-2 -2l2 2l4 -2h2l2 2l2 2l2 2l-8 4l12 -4l2 4l2 2l-2 6v2v2l2 4v4l2 2v2l2 6l-2 8v8v4v14l-4 10 l-2 2v4l-4 4l-2 2l-6 -4l4 8l-4 6l-6 12l-10 16l-12 18l-4 10l-4 8h6l-14 18l-10 16l-6 10l-4 10l-2 4l-2 6l-2 6v2l-4 4l-4 6h-2l-10 2z" />
<glyph unicode="al" d="M1438 762l-42 -4l-54 -4l4 -2l-2 -148l8 -70h2h6h2v8v4l2 2l-2 10l6 -8h2l2 -6v-2v-4v-2h2l2 2l4 -6v-2h2v2l-2 4l6 -2l2 2l2 4l-2 4l2 4l-2 2h-4l-6 8l2 6l4 2l38 4l62 8l-2 4l-2 2v4v8v2v4v2l-4 4l-2 6l2 8v2v6l4 4l2 2h-2l-2 2v6l-2 4l-4 4l-2 6l-2 4v2l-2 2l-14 52z " />
<glyph unicode="ak" d="M430 510l-2 -2l-4 -4v-4l-2 -2l-4 -2l-6 -2h-2l-4 -2v2v2l-2 -2l-4 -4l2 -2l2 -2h2h-4v-6l-2 2v2v4h-2l-4 -4l-4 -4h-2l-2 -2h-2l2 2v2h-2l-4 -8l-4 -4l-2 -4v-4l-4 -6l-2 -4l-2 -2h-2l-2 -2h-10h-6h-2v-6l-2 -2l-2 -4h-2h4l2 -2l2 -4h2l2 -2l6 -6l2 -2l2 -2l2 -2v-2 l2 -4v-4l2 -2l4 -2h4h2l2 2v-2v-2l2 2h4v-2l-2 -4v-4l2 -2l4 -2l2 4h2l2 -2h2h2v-2v-4h-4l-2 2l-2 2h-2l-4 -2l-2 2v2l-2 2v2v2l-2 2h-4l2 -2l4 -4l2 -2v-2v-4l2 2h2l4 -2v-4v-2l-2 2l-2 2h-2v-2l-2 -2h2l-2 -4l-2 4l-2 -2l-2 2l-2 -2l-2 2h-4h-2h-2l-2 2v2h-2h2v4l2 2l-2 2 h2l-2 2h-4l-2 -2h-2l-2 -2h-6l-2 -2l-2 -2l2 -2v-2h-2l-4 2l-8 -4v-2h-2h-2l-2 -2v-2h-4h-2l6 -6l2 -2h2l2 -2h2l-2 2l6 -4l2 -2l-2 2h-2l-2 -2l-2 -2l-2 2v2v-2l2 -2v-2l2 -2l2 -2l-2 -4l2 -2l2 -2l6 -2l4 -2l2 2h2h4h6h2l6 -4l-2 2v4h2l2 -2l2 -4l2 4h2l2 2l2 2l2 2l2 -2 l2 2l2 2h2h-2l4 -2v-2v-2l-2 -4h-2h-2l-2 -2h4l2 -4v-6l2 -6v-2l-4 -4l-2 -2h-4h-2l-2 2h-2l-2 -4l-4 -4l-4 -4h-2l-2 2l-2 -2h-2l2 2l-2 2l-4 2h-2l-2 -2v-2l2 -2h-2h-2l-2 -2v-4l2 -2l2 2l-2 -4h-2v-2h-2h-2l-8 -10v-2v-2v-2h-4v-2l2 -2h-2h-2v-2v-2l2 2l2 -2l-2 -2l2 -4 h2v-2v-2h2v2l4 4l4 4v2v-2l-2 -2l-4 -2v-2v-4l2 2v-2l4 -2h-2l-2 -2v-2h2h2l2 -2h6h2l2 2v-2h-2l2 -2l2 -2v-2h-2h-2v2l-2 2l-2 -2h-2l-2 -2l4 2l-2 2l-2 2h-2v2l-2 -2l-2 -2l-2 -2l-2 -2v-2h4l-2 -2l2 -2l2 -2l2 2v-2l2 -2v-2l2 -2l2 -2l-2 -2l2 -2h4h4h4l2 2l2 2h2h2v6h-2 l2 2l2 2v4l2 2v2l2 -2l2 2l-2 -2l-2 -2v-2l-2 -4v-2l2 -2v-2v-2v-2v-2l4 -8l-4 -6l2 -2l4 -4l-2 -2v-4v-2l-2 -2h-2h2l2 -2l4 4l2 2h2l2 2h2l4 4l4 -2v-2h2l2 -2h2l2 2v-2l2 -2l4 -8h2h2l2 2l-2 2l-2 4l2 2v4l2 -2l2 4v2v-2l6 -2v-2l-2 2l-2 2l-2 -2v-4l2 -2v-2h2h2l4 2l6 4 h2l2 2v2l-2 -2v-4l2 -2l-4 -2l-2 -2l-2 -2v-2v-2l2 -2h2l2 -2l-2 2l-2 -2l-2 -2v-6l-2 -4l2 -2v-2l4 2l-2 -4h-2v4l-2 -2l-8 -6v-2l-4 -4v-2v-2l-2 -2h-2h-2v-4h-6l-4 -4l-2 -2l-4 -4l-2 -2v-4v-2l2 -2v-2h-2l-2 2h-2v-2h-2l-2 2v2h-2l-2 2l-6 -2l-6 -6l-4 -4v-2l-2 -2 l-4 -2v-2h-2h-4v-2v-2v-2l-2 -2h4l2 2l-4 2l2 2h2l2 -2v-2l4 2l-2 2l2 2l-2 2h2l2 -4v-2h2l2 2l2 2v2h2l2 2v4l4 2h2v-2h-2v-2v-2h2h2l2 2h2h4l-2 2h2l2 -2l2 6h2h2v2l4 2h2v-2v-2l-2 -4l2 4l2 4l4 2h2l2 2h2l2 2l2 2l-2 -2l2 -2v4h2l-2 2l2 2h-2h-2l4 4h2h2h2v2l-2 2h2h2h2 l2 4l-2 2l4 -2h2l-2 2h2l2 2h2l6 6l-2 2l2 2h-2l4 4h2l-2 2h2h4l-2 2l2 2v2h2h2v2h2l2 2l2 2l2 2h2v2h2h2v2v2h-2l2 2h2l-2 2l2 2l2 2h2l2 2l2 6l-2 2h-2l-2 2h-2h-2h-2v2v2v4l6 2l-2 2l2 2h2l2 2v-2l2 2l2 2l-2 2h-2h2l2 2h2l2 4l-2 2l-2 2l-2 2h2l2 -2h2l2 4v2v2l4 6h2 l-2 2l2 4l2 2h2l2 2l2 2l4 4v2v-2l2 -2l2 2h2l2 4l2 2h2h2l-2 -2l-4 -4v-2v-2l4 -2h4l2 -2h-6l-2 2l-2 -2h-2l-4 2l-2 -2l-4 -6l-4 -2l2 -4v-4v-2v-2l-2 -4l-2 -2v-6l2 -2h2h2l2 2h2l-2 -4l-2 -2v-2h-2h-2l-2 -2v-2v-2l2 -2l2 2l2 2h2h2l-2 2l6 -2v2l2 4v2h2l2 4v-2v-2v2 l2 2h2l-2 4l2 -2h2v2v2v2v-2l2 -2l-2 2l2 2v2v2l4 -4v2h6l2 2v2l2 2v2h-2l2 2v2l2 2v2h-2l-2 -2l-2 2l-2 -2l2 2h2v2v2l-2 -2l-2 2h-2l2 2l-2 -2l4 4v2v2l-2 -2v2l2 2l2 -2l2 2v2l2 2l-2 -2v-2v-2v-2l2 -2l2 2v-2v4v2l2 -4v2l2 -2v2h2l2 2l4 4h2h2l-4 -2l-2 -2l2 -2l2 -2h2 v2h2l-4 -4v-2l2 2l4 2l-2 -4l2 2h2h2v-2v-2h2l2 -2h2l2 2v2l2 2l2 2v2v-2v-2v-2v-2v-2l2 -2h6h2v-2h2h2l2 2l6 2l6 2h10h2l2 2v2l2 -2l2 -2l-2 -2h6h8h2l4 6v4h2l4 -2h2h2h-2l-2 -2v-2l2 -2l-2 2l-2 2v4l-2 -2v-2l2 -2v-2v-2l-4 -2l6 -2h2h2l2 -2h2h4h2v-2h2h2l4 -2l2 -2 l4 -2h2v-2l6 -2h4h2l2 -2v2v2v2l4 -2l2 2v2l-2 2l-2 2l-2 -2v2h-2l-2 2h-4h-2l2 2l-2 2l2 -2l2 2h2l2 -2l2 -2l2 2v2l-2 2h4l-2 -2l2 -2l4 -6l-2 -2h2l2 2h4v-2l2 -2l2 2v2l-2 4l-2 2h2l-2 2l-6 6v2l-2 2l2 -2l-2 4h-2v4l2 -4l2 -2l4 -4v-2l2 -2h2v-2l4 -4l2 -2h2v0l2 -2h4 l-4 2h2h2v8h2l-2 -2v-2l2 -2v-2v-2l2 -2h2v2v2v-4l2 -2h2v2h6h-6l2 -2l2 -2h2l2 -2h2h-4h-4l2 -2h2v-2h2v-2h4l-2 -2h-2v-4h2l2 2l2 -2h2l2 2l2 -2v-2h2l2 -2l2 2l-2 -2l2 -2l2 2l2 -4h2l2 -2h2l2 -2h2h2h-2l-2 -2l2 -2v-4v-2l-2 -2l2 -4h2h2l-2 2h2v4l-2 2l4 4l2 2l2 4v-2 v-2l4 -4l2 -2l2 -4l2 -2h2l-2 -2v-2v-2h2l2 2v2l2 4l-2 -4v-2l-2 -2v-2l2 -4h4l-2 4l2 -4l2 2l2 4v2v6v2l-4 6l-2 2l-2 2v2v2v2l-2 2l-2 -2h-2l-4 2h-2l-2 2l-4 -2l-2 2h-4h-2l-2 -2l-2 2l-2 2l-2 2l-2 2l-2 2h-2v2l-2 2l-2 2l-4 2l-6 6l-4 2l-2 2l-4 4l-2 2l-4 2l-4 2l-2 2 h-4h-2l-4 6h-2h-2h-2l-4 4v4h-2h-2l-2 2h-2l-2 -4l-2 -2h-2v-4l-2 -4l2 -2v-2l-4 -2l-2 -4l-2 -2v-4l-6 8l-16 8l-2 2l-2 2h-4l-2 2v2v2l-2 2l-4 -2l-4 -4h-4l-2 -2h-6v2l-60 204l-6 16h-2h-2l-2 2h-2l-6 2l-2 2h-2h-2l-2 -2l-2 2h-2l-2 -2v-2h-2l-2 -2h-4h-2h-2l-4 2h-2h-2 h-2h-2l-2 -2h-4l-2 2l-2 2h-2l-2 -2l-2 2h-2l-2 2l-2 -2l-2 2l-2 -2l-2 -2h-2l-2 2h-2l-2 -2l-2 -2l-2 2h-4l2 2h-4h-2h-2h4l-4 2l2 2v2h-2h-2l-4 2l-2 -2h-2l-4 -2h-2l-2 2v2v2h-2v-2l-2 2l-2 -2l-2 -4h-2l-2 2l2 2l2 2v2h-2h-2l-2 2h-2zM544 262l-2 -2l2 -2l2 2zM570 258 l-2 -2v-2l4 4h-2zM542 256l2 -2zM580 256v-2v2zM564 254l-2 -2v-2h2l-2 -2l2 2l2 2h2v2l-2 -2zM548 252v-6v-2h2v2v2v2zM556 250l-2 -6v-2l-2 -2l-2 -4v-2l2 2l2 2l2 2v4l2 2zM594 248h-2v-2v-2zM546 248v-2v2zM718 246v-2l2 -2l2 -2l6 -10l2 -2l2 2v-2l2 -2v-8v-2l2 2v2 l2 2v2l-2 2h2l2 2h-2v4l-2 2h-2l-4 4l-2 2v2l2 -2l2 -2h2l2 -2l2 -2l-2 2l-4 4l-2 2v2l-2 -2h-4h-2l-2 2zM498 244v-2l2 2h-2zM546 244l-2 -2l2 -4v2v4zM548 242l-2 -2v-2v2zM550 240l-2 -2zM708 240l-2 -4h-2l2 -2l-4 2l2 -2l-2 -2l6 -4l-2 2l-2 -2l2 -2l2 -2l2 -2l2 2 l2 -2l2 -2h-2l2 -2h2v4l-2 2l-2 2h2l8 -2h2v2l-2 6l-2 -2l-2 -2l-2 2l-8 2h4h4l2 -2l2 2l-2 2h2v2l-2 2h-2h-2h-2l-2 -4h-2l2 2l2 2h-4zM546 238v-2l2 2h-2zM322 238h-2h-2l-2 -2h-4l-2 -2l2 -4h2l4 -4h2l4 -4v4l2 -2l4 2h2l-2 4l2 6l-4 2l-2 -2l-2 2h-2zM732 238l2 -2z M702 232v-4l2 -2v2v2zM720 224l-2 -4v-2l2 -2l2 2v-2l2 -2h2v-2l2 -4h2v-2v2v-2l2 -2v2v-2l2 -2l2 -2l2 -2h2v2l-2 4v2l-2 4l-6 8l-2 2l-2 2l-4 2l-2 -2l2 2h-2zM728 224v-2h2zM752 222v-2l-2 2h-2h-4l-2 -2l2 -2h2v-2l4 -6l2 -2l2 2h2l2 2l-4 4l-2 2h2l2 -2l2 -2v4l-2 2v2 h-2h-2zM760 220l-2 -2v-2l2 -2h2l2 2v2zM718 218l-2 -2l4 -4l-2 -2h2l2 2l-2 4zM740 216l2 -2h-2v-2v-2h2h2l-2 -2l4 -2l-2 -2v-2l4 -4l2 -4v2l-2 2v2l2 -2v2l-2 2v4v4v2v2h-2v-2v-2v2l-2 2l-2 2h-2zM768 216l2 -6h4l2 -2v4l-2 2zM764 212l-4 -2l2 -2h2h2v2zM768 212l-2 -2 l2 -2l-2 -2l2 -2h2l4 -2l2 2l-2 2v2l-4 2zM788 210h-2l-2 -4v-2h2l-2 -2l2 2l-2 -4l2 -2v-2v-2h2h2v2l-2 2l2 -2l2 2l-2 2l2 -2v-2v-2h2l-2 2l2 -2h2v2v4l-2 2v2l-4 4zM760 206h-6v-2l2 -2h2h-2v-2l-2 -4l2 -2l2 2v2l2 2v2v-2l2 -2l2 -2v-2v-2v-2h2l2 2v-2l4 -4h-2h-2v-2h2 h2v-2l2 2h2v2l2 -2l2 -2v-2h2l4 -2v-2h2l2 2v2l-2 4l-2 -2l-2 2l2 2v2h-2l-2 2l-2 2l-2 -2v2l-4 -2v2l4 2h2h-2l-2 2l-2 2l-2 2l-2 2h-2h-4h-2v2zM498 196h-2v-2h2l2 2h-2zM762 196l2 -2zM390 196l-2 -2l-2 -2l2 -2h2v2v4zM754 194v-2v2zM762 194h-2h-2v-2l2 -2v4h2z M786 194v-2v-2h4v2l-2 2h-2zM750 192h-2l2 -2v2zM496 192h-2v-4h-2l-2 -2h2h-2v-4l-2 2v-2l2 -2h2v2l2 -2v2l2 2l2 2v-2h2v2h2l2 2v2l-2 -2v2h-2h-2zM790 192v-2l2 -2h4l-2 4h-2h-2zM764 188l2 -2v2h-2zM808 188v-2l2 2h-2zM798 188l-2 -2v-2l2 2v2zM762 188l2 -2zM760 186 l2 -2v2h-2zM764 184l-2 -2l2 -2v2v2zM768 184l-2 -2v-2l2 2v2zM774 184v-2l2 -2h2l-2 2zM770 184v-2v-4l2 -2l6 -4h4l-2 4l-4 2l-2 2l-2 2zM488 180l2 -2v-2v-2l-2 2v-4l-2 2v-2v2l-2 2h-2l-2 -2l2 -2h2l-2 -2l2 -2h-2v-4l2 -2l-2 2v2l-2 2v2h-2h-2l-4 -4l-2 -4l2 -2l2 -2 v-2v-2l2 -2l2 -2l2 2v4h-2h-2v2h2h2v-2h2l2 2l-2 -4h2l-4 -4v-2h2l4 4l2 2l-2 2h2v2h2l2 2h2l-2 4h2h2l2 -2l2 2l-4 4h-2h2h4h2l2 4h-2l-2 2v2v2l-2 2l-2 -4l-2 -2v4h-2zM486 180v-2l2 -2h2l-2 2zM778 178v-2h2v2h-2zM492 160l-2 -2v-2h2l2 2l2 2h-2h-2zM480 144h-2v-2h2 l2 2h-2zM476 144l-2 -2v-2l2 2v2zM440 142l-2 -2zM2 134h-2l2 -2v-2l2 -2h2h2h2l-2 2v2h-2l-2 2h-2zM462 126l-2 -2v-2l2 2v2zM416 124v-4l2 4h-2zM12 118h-2l-2 -2l2 -2h2v4zM390 110l-2 -2v-2l2 -2l4 2l-2 2v2l-2 -2v2zM396 110l-2 -2h2v2zM402 108l-2 -2v-2l-2 -2v-2v-2 l2 4l2 4v2zM406 106v-2l2 -2v4h-2zM376 104v-2v2zM346 104l-4 -2l-2 -2l-2 2l-2 -2l-2 -4l-4 -2v-2v-2l2 -2h2l4 2v2h2l2 2h2l6 -2l2 2v2l2 -2h2v2h-2l-2 2v2l-2 2l-2 2h-2zM408 102l2 -2v2h-2zM368 100l-2 -2h2v2zM360 90v-4h2l2 2zM64 86l-2 -2h-6l2 -2l4 2zM320 86l-2 -2 l2 -2l2 2zM314 86l-2 -2v-2l2 -2l4 2l-2 2zM302 82l-2 -2h-2l-2 -2l2 -2h2l2 -2h-4v-2l-2 -2h2h-2l-6 -2h-2h-2l-2 -2l2 -2l6 2l4 2h2h2v2h2l2 2h2h2l-2 2h-2v2h2l2 2v2l-2 -2h-2v2zM324 82h-2l2 -2v2zM76 80v-2v2zM310 76h-2l2 -2v2zM92 74h-2l2 -2h2zM280 72h-2l-2 -2v-2 v-2h-4l-2 -2v-4l-2 -2l-2 -2l4 2l2 2h2l2 2l2 4h2l4 2l2 2v2h-2h-4zM76 70v-2h2l4 -8l2 2l-2 2v2l-2 2l-2 2h-2zM114 64v-2v2zM124 62v-2l2 -2v-2v-2l4 4l-2 2l-2 2h-2zM186 60l-2 -2v-2l-2 -2h-2h-6h-4l2 -2h2h4h2h2h2h2v4h2v2zM256 60l-6 -2l4 -2zM158 58h-4l2 -2h2v2z M138 58v-2h-6v-2l2 2l2 -2h2l2 2l2 2h-4zM148 58l-2 -2v-2h-2l-2 -2l-2 -2l4 2v-2h2l4 2v2l-2 2v2zM240 56h-2v-4v2h2v2zM152 54l-2 -2v-2l2 2v2zM212 54l-2 -2v-2l2 2h2zM154 54v-2h2zM192 52l-2 -2l-2 2l2 -2h2l4 -2h4h2h2l-4 2h-4l-2 2h-2z" />
<glyph unicode="ar" d="M1256 818l-70 -4l-60 -2l-36 -2l6 -38l2 -14v-82l2 -2l2 -2l2 2l12 -2v-26l48 2l64 4v2l-2 4h4v2l-2 2v4v2h-2l-8 -6l6 12l-2 4l4 2l-4 4l4 2v4h4v2v2l-4 4l8 4v6l-4 6l8 -4v2l2 2v4h4l2 2v2l2 4h-2v18v8l2 -6v4l6 -8l2 2v2h-2l2 4l2 2l2 2l4 2l-2 8h-4l2 6l4 2l-2 2l4 2 l2 4l-2 2v2l4 2l2 2h2l-2 4l4 2v2l-24 -4l-2 6l2 4l4 4l2 2l2 2v2v2l-2 2z" />
<glyph unicode="a&#x7a;" d="M488 868l-50 8l-50 8l-34 6l-6 -36l-4 -4l-4 -6l-6 2v4l-2 2h-4l-2 2h-2l-4 -2v-2l2 -8l-2 -2v-4v-6v-4l-2 -2l2 -6v-8l-4 -4v-6l-2 -2l2 -2l2 -8l2 -4v-2l2 -4v-4l4 -4l4 -6l-4 -4l-10 -6l-2 -2l-2 -2l-2 -4v-6l-2 -4l-2 -4l-6 -8h-2l-2 -2l2 -4v-4l-2 -2v-2h2l4 -2 l2 -4v-8l-4 -2l-2 -4l-6 2v0l-4 -6h-2l8 -6l80 -46l52 -28l60 -10l18 -2l34 268z" />
<glyph unicode="ca" d="M308 754h2l2 4l10 6l2 2l-8 8l2 4l-2 2v4l-2 4l-4 6v4l2 2l-48 70l-112 164l8 32l26 106l-62 16l-78 22l-2 -6v-2l2 -2v-4v-6v-2l-2 -6l-6 -12v-2l-2 -6l-2 -2v-2v-2l-4 -2l-4 -2v-2l-4 -4l-2 -6v-4v-2l6 -10v-2l2 -4l2 -10v-2l2 -4l-2 -4v-4l-2 -2l-2 -6v-12v-6l-2 -2 l2 -6l2 -6l4 -8l2 -4l4 -2v-4l2 -4v-2l2 -6l2 -6h-4l4 -4v-4h4l2 -4v-2v2l2 4v2l2 4l4 2l6 -4l2 -2v-2l4 2h4l2 -4h4l10 8l-4 -8h2v0l2 -4l4 -4v-8l-8 12l-6 -2h-2h-4l2 2l-6 2h-4l-2 2l-4 -2h-2l2 -4v-2v-2l2 -2l2 -6v-6l4 -6h-8l-4 4l-2 4l-4 2l2 6v2v2v-2l-2 -2l-2 -6 l2 -2v-8v-4h-2v-2l2 -4l4 -8l2 -2h8l2 -8v-10h-2l-2 -2l-4 -2v-6l-2 -4l2 -4l4 -6l2 -6l2 -2l2 -8l2 -6v-2l2 -2l4 -4l2 -6l6 -6v-6l-2 -2v-2v-2h4l4 -4l-2 -6l-2 -4v-6l-2 -2v-4l-2 -4h2l2 -4l2 -2l10 -2l2 -2h4l6 -4h2l6 -2l6 -4l2 -4l4 -2v-6l8 -6l4 -2l14 -2v-2l4 -8v-2 l-2 -4v-2h2v2h6l4 -4l2 -4l2 -4l4 -2l10 -14l4 -6l2 -6v-8v-6l-2 -6l4 -2l-2 -4l2 -2l94 -10h4h2v2l4 2v2v2l-4 2l-4 2v4l2 4v2l-2 4l2 4l4 2l4 6l2 4l2 2v6z" />
<glyph unicode="co" d="M566 1054l-24 -188l62 -8l56 -6l66 -4l78 -6l10 188l-2 2l-34 2l-34 2l-56 4l-30 4l-60 6z" />
<glyph unicode="ct" d="M1878 1192h-4l-18 -6h-2h-2l-6 -2h-4l-18 -4l6 -32l2 -4v-4l-4 -6h2l6 6l2 2l4 4l2 -2l4 6h4l2 2h4l2 2l8 2l-4 6l8 -2v-2l6 4l6 2l2 2v4z" />
<glyph unicode="dc" d="M1744 1012h-2l-10 2l-4 10q-2 2 -3 2t-1 -2l-6 -10l-10 -2l-2 -2l2 -2l6 -6l-2 -10q0 -2 2 -2q0 -2 1 -2t1 2l10 4l8 -4q0 -2 1 -2t1 2q2 0 2 2l-2 10l6 6l2 2v2z" />
<glyph unicode="ga" d="M1534 776l-44 -8h-16l-32 -6l14 -42l14 -52l2 -2v-4l2 -2l2 -6l4 -4l2 -6v-4h2l2 -6l-4 -2l-2 -2v-6v-4l-2 -4l2 -6l4 -4v-4v-4v-2v-8v-2l2 -2l4 -6v-2l4 -6v-2l2 -2l104 8l6 -4l2 -6l2 2v6v2l-2 2v4v6h2l4 2l4 -2l8 -2h2h2v2l-2 2v6h-2l2 4l-2 2h2h-2l2 8l4 -2l2 4h-2 h-2l-8 4l6 2h4v4l2 -2v2l-4 4l4 2l-4 8l4 -2l-2 2l6 2l-2 2v8l6 -2v2l2 2l-2 2h-6l-4 4v4v2l-2 4l-2 2l-2 2l-4 2l-4 4v4v2l-2 2l-4 6v2l-4 4h-4l-4 4l-4 2v2l-2 2l-2 4v2h-2l-4 4h-4l-2 4l-2 2l-2 4l-6 2l-8 4l-8 12v2l-4 4v2l-4 2h-4l-6 4h-2l-4 4l-2 4v4z" />
<glyph unicode="hi" d="M34 586l-4 -2l-2 -2h-2v-4l2 -2l6 -4h2h2l2 2l2 4v2v2l-2 2h-4zM16 576l-4 -2l-2 -2v-4l2 2l2 2l2 2v2zM88 564h-2l-4 -4h-2h-2l2 -4l2 -2l4 -4h2v2h2l4 -4l2 2h4l-2 4l-2 2h-2l-2 2zM114 546l-2 -4h6h2h4l2 -2h2l4 2l-2 4l-2 -2h-2l-4 2h-2h-4h-2zM134 540v-2l-2 -2 l2 -4l6 -2h2v-4l2 -2h2l4 2h2h2l4 2l-2 4l-4 2l-2 2h-4h-4h-2l-2 4h-4zM124 536h-4l2 -4l4 -4v2l2 2l-2 4h-2zM164 512v-4v-2l2 -4l-2 -2l-2 -4l-4 -2v-2l2 -4v-2l2 -4l2 -4v-2l-2 -6l2 -4h2l2 -2h2h2l2 2l2 4h2l2 2l4 2h2l4 2h4l2 4h2l2 2v4l-4 2l-2 2v2l-2 4l-2 2l-2 2 l-10 6h-2l-4 2h-2l-4 4h-2z" />
<glyph unicode="id" d="M362 1476l-22 -106l-2 -10l-2 -4l2 -6v-8v-4v-4l2 -2v-2l8 -6v-8l-2 -2l-6 -8l-6 -10l-4 -6l-2 -2l-2 -4l-2 -4l-4 -2l-4 -6l-4 -4v-8h2l4 -4l2 -4l-2 -4l-2 -4l-2 -6l-2 -2l-18 -84l54 -10l62 -12l50 -8l38 -6l18 116l-4 2v4l-2 4l-2 2l-4 -6v-4l-6 2h-4l-4 2h-6l-6 2 l-4 -4l-4 2h-4l-4 2l-2 -2v-2l-4 -2l-4 4l-2 4v2l-2 4l2 4l-2 4l-2 2l-4 -2l-4 6v4l2 4v2l-2 2l-2 4l-2 6l-2 8v6l-2 2v2l-12 -6l-4 -2l-2 6l-6 2l2 6l2 2v2l2 4l2 2v4v2v4v4l2 2l2 4l2 6l4 8h-2h-4l-4 2v2h-2l-2 4l-4 4v4l-2 2l-4 8v2l-2 4l-2 2l-4 2l-2 4l-6 8h4l-2 2l2 4 v2l-2 6v2l-6 10l10 46z" />
<glyph unicode="il" d="M1318 1114l-42 -4l-52 -2l6 -6l2 -4l2 -2l4 -2l2 -2l2 -4l-2 -12l-4 -4v-8l-4 -2l-6 -4l-4 -2l-10 -2v-2l-2 -4l6 -6v-8l-4 -6v-2v-4l-2 -4l-8 -4v-2v-2v-4l-2 -2l-2 -2v-4v-6l2 -4v-2l2 -6l2 -4v-2l4 -4l4 -2l4 -2v-4l8 -4l4 -2l2 -4l2 -14l2 -2v2l2 2h4h4h2l8 -6v-2 l-2 -4v-6l-2 -4l-2 -6l-2 -2v-4v-2l6 -4l8 -6h2l2 -4v2l8 -4l2 -4l2 -2l4 -2v-6l4 -8v-4l-2 -2l4 -6l2 -4l4 2v0l4 8h4h6l2 -2l6 -2h2l2 -2l2 2l-2 2l-2 4v4v4l4 2l4 2l6 2l-2 4v4l2 2v4l-2 4l2 2v8h2v4v6l4 2l2 4l4 6v2l4 8v2l-2 6v2l-2 2l-2 6v4v2v4l2 4l-10 112l-4 4v4 l-2 2v4l-4 4l-4 6v4v6z" />
<glyph unicode="in" d="M1426 1090l-48 -6l-20 -2l-6 -4l-6 -2l-4 -2l-6 2l10 -110l-2 -4l2 -2l-2 -4v-2l2 -2l2 -4v-4l2 -6v-4l-2 -2l-2 -4l-2 -4l-4 -8l-2 -2l-2 -2v-2l-2 -10v-2l8 -2l4 2v0l2 2v-2l4 2h4l10 -4h2v2l2 4h4l4 4l2 -4h4v-2v2l2 2v4l4 4h2l-4 8l10 -4l2 -6h2h6l2 2l-2 4l4 8h4h2 v8l4 2l2 2v2v4l-2 4l6 2h4l2 -2l6 4l6 2l-4 4l2 4l-2 4v2l-8 80l-6 44h-2z" />
<glyph unicode="ks" d="M816 984l-8 -142l60 -2l86 -2h86h46l-4 100l-2 2h-2l-6 8v2l-4 2l-2 4l-2 4l4 6l2 4h2v2l-2 2l-4 -2l-8 6h-62h-46l-90 2z" />
<glyph unicode="ky" d="M1450 964h-4l2 -4l-2 -2l4 -4l-2 -6l-6 -2l-8 -4l-4 2h-2v-2v-4v-4l-4 -4l-2 -2v-6l-6 -2h-2l-2 -4l2 -4l-2 -4l-4 -4l-8 2l-4 2v2l-4 -2l-2 -2l2 -2l-4 -4v-6l-6 4h-4v2h-2l-2 -2l-2 -2l-4 -6l-4 4l-8 2h-4v-4l-8 -2v2h-4l-2 -4h-4v-4l-2 -2v-2l2 -4l-2 -4l-6 -2l-4 -2 h-2v-2v-2l2 -4l2 -4l-4 -6l-6 2l-2 2h-6l-2 2h-2h-2l-4 -4v-2l2 -2v-4v-4v-4l-2 -2l2 -2l-2 -6l40 2v2l-2 8h10l2 -2l16 2l16 2l18 2l20 2l18 2l10 2h18l12 2l12 2h14l4 2l6 4h2l4 2l6 2v4l4 2l4 2v2l2 4l2 2v4l4 4l10 8l10 10h-4l-6 6l-8 8l-2 2l-2 4l-6 6l2 8v2l-2 2v2 l-2 2l-2 2h-4l-4 4v4l-2 -2l-2 -2l-4 -4h-2l-4 -2l-4 4h-4l-2 -2l-6 -2l-6 6h-2h-6h-4l-6 8v2l-6 2h-6h-2z" />
<glyph unicode="la" d="M1226 648l-62 -4l-46 -2v-46l6 -4l2 -4l2 -6v-4l2 -4l2 -2l2 -4v-4l4 -4l2 -2v-4l2 -4l-2 -2v-2v-4v-2l-2 -4v-4l-2 -2l-2 -4v-6l-2 -2l2 -4l2 -8l-2 -4l-2 -2l2 -4l-2 -4l-4 -2l2 -2l2 2l12 2l-2 2l4 2l2 12l6 -6v-4v-4l-2 -2h4l6 -2l6 -2l4 -2l4 -2l16 -2h2l4 4l-6 6h6 l2 2l4 2l10 2l-2 -6v2h8l2 -4l4 -2v-4h2l4 -2l2 4h4l2 -4h-2v-2l2 -2l2 -2l2 -4v-2h4l6 -4l2 2h2l2 -2h2v4v4l4 2l6 2l2 -4h2h6l-2 -6l2 -2v2l2 2h2l-4 4l4 2v4l-6 2l-2 6l2 2l12 -6h4l4 -2l2 -2v-2l2 2l2 -4h2h6v-4l2 -2v8h-2h-6v4l-4 2h-4l-2 6l2 2v2l4 2l-2 2l6 4h4v2 l-4 2v4l-2 -2v-2l-2 -4h-4l-2 2h-2l-4 2l-2 4l4 2l-2 2l-2 -2l-4 -2l-8 -2h-6l-4 4l-2 4l4 4l4 6l4 2h6l4 -2l2 -4h2h2l2 2l2 -2l2 -2v0l-2 4v2v2l-2 2l-4 4l-2 4l-2 4l2 6l2 6l-36 -2l-46 -2l6 6l-2 2l2 2l-4 6l6 2l-4 4h4v6l2 2h-6l8 4v4h2l-2 2l2 4l4 2l6 6l-10 4h10 l-4 2l2 6l4 2h2l-2 4h-2l-2 6v2h-2l-2 4l4 4h-2l-2 6l4 2v2l-8 -6z" />
<glyph unicode="me" d="M1926 1472h-2l-2 -4l-4 -2l-2 -4h-4l-4 -4l-4 2l-4 2l-2 6h-2h-2l-12 -40l2 -14l-4 -4v-8v-2v-6l4 -4l-4 -6l2 -4l-6 -6l-2 -4v-2l6 -10l-8 2l2 -4l-6 -4l-2 2h-2h2l22 -70l4 -10v-4v-2l2 -2l2 -2l4 -2v-4l2 -2l2 2v2v4v4l2 2l2 4v4l2 6v4v4l8 10v6l8 12l-2 -14v2l4 2v0 l6 4l-2 -4l2 2h4h2h2v4v2v4v2v4v2l-2 4l6 4l-2 12l8 -10v-2h2v-4h2v2v2v10l6 -6v6l10 -4v2l4 2v10l2 -4v2l4 -2h4v2l2 2v4l-2 2h10h2l2 6l-2 -2l-6 6l2 2l-4 8h-2l-2 -4l-6 4l-2 4v4l-2 2l-2 4l2 2h-4h-2l-4 2l-4 -2l-2 6v2v4v2l-4 10l-14 40h-2l-6 4l-6 4h-2z" />
<glyph unicode="md" d="M1730 986v-2h-2l2 -4v2v2l4 2h-2h-2zM1780 996v-12l4 -2l-2 -2l2 -2l6 2l-4 -8h2h2l4 4h4v4l2 2l2 10l2 -2v2l-2 4l-18 -6zM1778 1004l-6 -10h-6v-6l4 -2l2 -2l4 14v-10l4 10zM1744 1004l-4 -4l2 -8q0 -4 -2 -6h-2l2 -4l2 -2l2 6l2 -8l2 -2l2 2l6 -2v-2h6l-2 2l-4 2l-2 2 l-6 4l-2 4l-2 6v10zM1748 1012v-2q0 -2 -2 -4l2 -12l4 -6l2 -2h2l-4 4l-2 6l-2 4v4v2v4v2zM1674 1030l-36 -6l2 -18l2 2l2 2l4 4v4h4h4l2 6v2l4 2l4 -4h2h2l2 2zM1770 1036l-6 -4h-2l-2 -2l-2 -6l4 -2v-4l2 -2l-2 -2v-2h6l-4 -6l4 -6h2l8 4l-2 12zM1766 1050l-68 -14l-10 -2 l2 -2h6h2v-4h2v-4l2 -2v-2h6l4 -2h4l4 8q2 4 6 4t4 -4l4 -8l8 -2q2 0 4 -2l2 2v2l-10 6l6 2l-4 4l8 -2v2v2l2 4h2l4 6v2h4l6 4v-2l2 -2z" />
<glyph unicode="ma" d="M1900 1242l-2 -2l-2 -4h-2v-2l-4 -6l-40 -8l-26 -6v-2l-2 -28h2l18 4h4l6 2h4l22 6h2l12 4l4 -4l2 -2l2 -2v-2l2 -2h2v2h4v-4l2 -2v-2h4v4l4 2l2 4l6 4l-2 4h-4l-4 2v6l-4 4h-2l-4 -2l-4 4l-4 6h4v2l2 2v2l2 4l2 2l-4 4l-2 2l-2 2v2zM1946 1200l-2 -2l-4 -4l2 2h2l2 2v2z M1926 1196v-6v-4h2l2 2l2 4h2h2l-4 2l-4 -2l-2 2v2z" />
<glyph unicode="mi" d="M1270 1336l-6 -6l-2 -2l-6 -4l-2 -2l-4 -2l-4 -2h-4l-2 -2h-4h-2l-6 -8l-8 -4h2l2 -4l4 -4l32 -6l10 -4l6 -2l4 2l4 -2h8l4 -4v-4h2l6 -2l4 -4v-2v-2v-8l-2 -2h2h6l-2 -8v-2h2l2 6l4 8l2 6l2 4l2 2l2 8l2 4l4 -2v-2v-4l2 2v2l4 2l4 2h6l-2 -4l4 2v2l2 4l4 2l4 2l2 -2l6 2 h2l2 2l4 4l6 2h4h4l6 -4l6 -4v2l2 6h4l4 -2l2 2h14v0l-4 2v2h-2l-4 4v4l-2 2v4l-2 2h-2v-4l-6 -2l-2 2l-6 -2l-6 2l-2 4l-2 10l-2 -2h-4l-6 -4h-2l-12 -2h-4l-4 -2l-4 -2l-6 -4l-4 -8l-4 2h-4h-4l-2 2l-6 -2h-4l-4 2l-2 4l-6 6l-2 2h-2l-2 4h-4h-4l-2 -2l-4 -2l-6 -4l-2 -2 l-2 6v6l-4 6zM1408 1284l-4 -2l-2 -2v-2l-4 -4l2 -4l2 -2l2 -6h-6h-4l-2 -2l-2 -2l2 -10v-4v-2l-2 -4l-8 -10v4v-2l-2 8l2 4l-2 2v4v-2l-2 -2l-2 -6l-4 2l-2 -4v-4l-4 -4h-2l2 -6v-6v-2v-4l-4 -10l-2 -2v-2v-4l4 -10l-2 -4l-2 -2v-2l8 -14l8 2l-6 -6l4 -10l2 -12v-10l-2 -10 v-4l-4 -6l-2 -10l-2 -4l-2 -2h12l52 6l2 -2l32 6l14 2l2 6l4 8v10l2 2l2 4l2 2l2 2v6l2 4l2 4l4 2l4 -4v6v2v8h2l-2 2l-2 4l-2 4l-4 14l-2 2l-2 12l-4 6l-2 2l-2 2h-2l-6 -4h-2l-4 -4v-2l-2 -6l-4 -2v-4l-4 -4l-4 2h-4l-4 4l-2 6l2 8l4 2l2 2l2 2l2 6v4l4 2l2 2l-2 10l2 6 l-2 6l-2 2l-2 2l-4 4l2 6h4l-2 2l-2 2l-2 4h-2h-2l-4 2l-6 2l-4 2h-2h-4l-2 4l-2 2h-2h-4h-2l-4 2h-4v2z" />
<glyph unicode="mn" d="M1058 1428v-12l-2 -4l-26 -2h-38v-2l2 -8l2 -4l-2 -6v-4v-4v-2v-6l2 -2l2 -10v-2l4 -10l2 -6v-4v-2v-4v-6v-6v-4l2 -4v-4v-10l2 -2v-4v-2l4 -6v-4v-2l2 -8v-2v-4l-2 -6l-2 -4l-4 -2l-2 -2v-2l2 -2l2 -4l4 -2l2 -2l4 -4v-84h34l60 2l50 2l32 2v2v2l-2 8l-2 4l-2 2l-4 2 l-2 2l-4 2l-6 4l-4 8l-4 2l-4 2l-4 2l-2 2l-4 2h-4l-4 4l-6 4l2 4v6v6v4v6l4 6l-4 6h-2l-4 4v4l4 4v2l2 4l6 6l6 2l2 2v2l-2 28h4l2 2v2l2 2l10 8l2 2l2 2l4 4l8 8l2 6l12 12l10 4l6 4h4l12 8h2h-2l-4 -2l-4 4l-2 2h-6l-2 -2l-6 2l-4 -2h-4l-2 4l-2 2v0l-6 -4l-4 -2l-6 -4 h-6l-6 4v2l-8 4l-2 4h-2h-2l-2 -6l-6 2l-2 4v2l-2 2l-6 -2l2 6l-10 4h-8h-2l-2 -2l-2 -2l-10 -2l-4 2l-2 2l-12 2l-2 2h-6l-4 2l-4 4v4l-2 8l-2 10l-2 2h-4z" />
<glyph unicode="ms" d="M1338 752l-26 -2l-52 -4l2 -4l-6 -4h-2v-6h2l-6 -4h2l-2 -6v-2l-2 -4l-2 -2h-2v-2l-2 -2l-2 -4v0v0h-2v-2l2 -4l-6 -4v-4v-2v-4l2 -2l-6 -4v-2l-2 -2v0l4 -4l4 4l-4 -10v-2h2v-8v-2h-2v-4l2 -2l2 -6l-4 -2l6 -4l-4 -4l8 2l-4 -6l4 -6h-2v-2h2l2 -2v-4h-4l-2 -2l-2 -2l8 2 l-6 -8v-2l-8 -10h-2l2 -2l-4 -6v-2l-2 -4l-2 -2l2 -6l-2 -2v-4h-4l2 -2l-2 -4l4 -4h-2l36 2l40 4v-4v-4l-2 -6v-4v-2l2 -4l4 -4l2 -2l2 -4l-2 -2l2 -2l2 -2h2v4l4 2l-4 2l14 2l2 2h4v2h6h2l4 -2h-2h2h2v2l6 -2h2v2l-10 70l2 146h-2z" />
<glyph unicode="mo" d="M1186 1014l-22 -2l-56 -4h-26h-38l2 -4l2 -6l2 -2l4 -2v-4l4 -2l-2 -4l10 -8l4 2h4l2 -6v-4v-2h-4v-2l-4 -4l2 -2l2 -2l4 -4v-4l4 -4h2l4 -4l4 -126l36 2l60 2l70 4l4 -2l4 -4v-4v-4l-4 -4h-2l-2 -4l-2 -2h2l18 2l2 4l2 2l-4 2l4 4l-2 4l4 2l-2 4l4 8l2 -4l2 2l4 2h2 l-2 4l4 4v2v4v2h-4l-2 -2l-6 8l-4 8l2 4v2l-4 6v6h-2l-4 4l-2 2l-4 2l-4 -2v6h-2l-10 6l-6 6v4v4l2 4l2 4l2 6v4l2 4l-6 4h-2h-2l-2 -2l-6 -2l-4 6l-2 12l-2 2l-2 2l-8 6l-2 2l-4 2l-2 4l-4 4l-2 2l-2 4l-2 6v2l-2 6v6l2 4v2l-2 4l-8 4v2z" />
<glyph unicode="mt" d="M394 1470l-10 -44l6 -8v-2l2 -6v-4v-4l2 -4h-2l2 -4l2 -2l4 -4l2 -2l2 -4v-4l4 -6l4 -2l-2 -2v-2l4 -4v-2h4v-4h2h4l4 -2l-4 -12l-2 -6l-2 -4l-2 -2l2 -2l-2 -4l2 -2l-2 -8h-4v-2v-4l-2 -4h2l2 -4h2l14 8l2 -4l2 -4v-8l2 -6l2 -6l2 -4l2 -4v-4l-2 -4v-2h2h2l6 -4l2 -6 l-2 -4l2 -2v-4l2 -2v2l4 2l8 -2h4l4 2h2l8 -2h6l2 -2l2 2l4 -2l8 8l4 -2l2 -6l2 -2l4 18l4 2l62 -8l60 -8l66 -6l44 -4l2 2l2 42l10 142l-22 2l-60 6l-50 6l-46 6l-72 10l-82 14z" />
<glyph unicode="ne" d="M752 1132l-6 -92l32 -2l36 -2l4 -2l-2 -46l44 -2l90 -4h46h56v4l-2 2v4l-2 2l-4 4l-2 4l-2 4v4v2l-4 2l2 10l-2 6v4v4l-2 2v4l-2 4l2 2l-4 2v2h-4l2 2v4v2v4v2l-2 4v2l-4 6l-2 2l-2 4v4v2l-2 4v2v2h-2l-4 2l-2 2l-2 4h-4l-2 2h-2l-2 2h-2l-2 2l-6 4l-12 -2h-6l-2 -2 l-4 -2l-14 8l-4 4h-38l-58 2l-60 4z" />
<glyph unicode="nv" d="M190 1172l-26 -106l-8 -32l112 -162l44 -66v2l4 4v6l-2 6l2 4v4v6v4l2 2l-2 6l2 4l4 4h4l4 -2h4l4 -4v-2l4 2l2 4l6 36l44 238l-46 8l-56 10l-44 10z" />
<glyph unicode="nh" d="M1862 1350l-2 -2l-2 2l-2 -2v-2l-2 -6l2 -4l-2 -2l2 -4l-2 -6v-2l2 -4l2 -2v-4l-4 -6l-4 -6h-2l-2 -2v-2l2 -6l-2 -6l2 -4l-2 -2v-4v-4l-2 -2v-4v-4l2 -10v-6l2 -10l-2 -2v-4l2 -2l2 -2l36 8l4 4l2 4h2l2 4l4 2v2l2 4h-2l-4 4v4h-2l-4 4l-2 2v4v4l-4 8z" />
<glyph unicode="nm" d="M542 862l-34 -268l30 -4v2l2 14l2 6l64 -8v2l-2 6v4l34 -4l74 -6l36 -2l2 2l2 48l4 44l8 122h2v20l-40 4l-68 4l-56 6z" />
<glyph unicode="ny" d="M1790 1318l-20 -6l-24 -6h-2l-4 -2l-12 -12l-8 -14v-4l-6 -8l-2 -2l-2 -4l-6 -4v-2l6 4v-4l8 2l-6 -8v-4h-2l2 -6l2 -4v-4l-2 -4h-4l-4 -4l-2 -2l-2 -4l-4 -4h-2l-4 -4h-2h-6h-6l-6 -4l-10 2h-12l-10 -2l-6 -2l-4 -2l-2 -2l-4 -2h-2l2 -4v-2h6v-4v-2l2 -6v-4l-4 -6l-2 -4 l-2 -4l-4 -4l-6 -6l-8 -6l2 -10l26 4l44 10l50 10l34 8v-2l4 -2v-2h2l4 -4l4 -6v-2l2 -2l6 -2l4 -2l4 -2l26 -10v4l-4 4v4l2 6l4 -8l2 -2l2 -6v-8v-2h2v4l2 4l-2 4v2l4 4v2l-2 4l-6 34l-2 2l2 30v4l-2 2v2l-6 30l-2 2l-2 -4l-4 8v4l-2 6l-2 4l-2 6v8h2v2l-2 4v4v2l-4 2v4v8 l-4 2l2 4zM1880 1144l-2 -2h-2l-2 -4zM1864 1136l-4 -2l-10 -2h-2l-2 -4h-4l-6 -4l-2 2l-2 -2v-4h-4v-2l-6 -4v-2h8l10 6h2l2 4h4l6 4l4 2l2 2h4l4 4h-6z" />
<glyph unicode="nc" d="M1798 902l4 -12l2 -2l4 -6l2 -4l2 -2l4 -4l2 -2l-2 4l-8 8l-4 6zM1788 898l-24 -6l8 -10v-2v-2l2 -4h2l2 -2l4 4l-6 4h8l-2 4l8 -2h2l-2 2l-12 4l12 2l4 -2zM1762 892l-8 -2l-42 -8l-84 -16l-30 -4l-12 -2h-4l-2 -2v-2v-8h-4l-2 -4l-2 -6l-4 -4l-4 2l-4 -2l-2 -2l-2 -4 l-4 -2h-4l-2 2l-2 -2v-4h-4l-2 -4l-2 -4h-2l-6 -4l-10 -10h-2h-6l-6 -4l-2 -2l-2 -2v-6l-4 -4h-4v-10l44 8l10 4l2 2l6 4l6 2l4 2h2l36 4l14 2l2 -4l2 2l8 -6v-4v-2l44 6l50 -36l6 2l8 2h4l2 2v4l-4 10h6v-2v2l4 6l4 8l6 4l-2 2l2 2l-6 8l12 -4l4 6l4 -2l6 4h2l6 6v-2v2 l4 -4l2 4l-6 4l-6 -4h-8l-4 6l-12 14l14 -10l4 -2l2 -2h2l2 2l4 4h-4l2 6h4l-4 2h-4l-14 4l-2 2l2 4l8 -2h4h2v2v4h8v2l2 -2v2v-2l4 -6h2h6v2l4 10v4h4h2v2l-2 6v2l-2 -2h-4v-2l2 -6l-6 -6l-4 6l2 2h-2l2 4v4v2h-2l-2 -2l-2 -4l-6 2l-4 -2l-4 -2h-4l-2 4l-2 4l-2 4v2v4v0z M1820 868v-4l2 -2l2 -4v-12l-2 -2l-2 -2v-2l4 2v6v10v4zM1786 848l-2 -2h2v2zM1814 838l-2 -2l-2 -4zM1806 830l-2 -4zM1802 822l-4 -4l-2 -2v-4l-4 -8l4 10zM1794 820l-2 -2v-2l2 2v2zM1784 808l-2 -2l-6 -2h-4l8 2l6 2h-2z" />
<glyph unicode="nd" d="M774 1418l-10 -140l58 -4l66 -4h62l60 -2v2v2l-2 6v4v2l-4 6v4v2l-2 4v12v2l-2 2v6v6v6l-2 4l2 2v4l-2 6l-4 10v2l-2 8l-2 4v6v2v4v4l2 6l-2 2l-2 10v2h-26l-64 2l-76 4z" />
<glyph unicode="oh" d="M1578 1122l-16 -8l-10 -6l-2 -4l-4 -4l-6 -6l-6 -2l-4 2l-6 -4l-2 -2h-4l-2 -4l-6 2l-2 2h-6l-2 -4l-8 2l4 4h-2l-4 2l-4 2h-2l-8 2l-14 -2l-30 -6l6 -42l8 -78l4 2l2 -2h6l8 -2l2 -4l4 -6h2h6h4l6 -6v2l2 2h4h6l2 -2h2h2l2 4l4 2l6 4l2 -8l2 -2h4l2 -4l2 -2h2l4 2l2 2v4 l2 2v4v2v4l2 2v2v4l4 4l4 -2l2 -2l2 2l-4 4l4 4v2v4l4 2v2l4 6l6 -2l6 4l4 8l2 2l2 6v2v4l-2 4h2l2 2l-2 4l2 10l2 2l-2 8l-4 4l2 4h2l2 2z" />
<glyph unicode="ok" d="M772 840l-2 -20l50 -2l40 -2h16l4 -2l4 -2l-2 -90l4 -4l6 -4l2 -2l2 2l4 -2h2l2 6l2 -4l4 -2l2 -4v-4h4v-2l4 2l2 -2l6 -2h2h6l2 -2v-2h2l4 4l6 -2l6 2v-6v-2h4l2 -4v-2h2l6 6l6 -2v-2h4v-4h2l4 2h6v-2l4 2v2l2 2l4 -2l4 -2l4 2l4 -2l2 -2l2 -2l4 -2h2h4l4 4l2 2l4 2 l4 -2h2l2 2l8 2l4 -4h2h2l2 4h6l8 -4l4 -4l4 -2l2 -2l6 -2v82l-2 14l-6 40v22h-46h-86l-86 2l-62 2z" />
<glyph unicode="or" d="M112 1402v-2l-2 -6l-2 -2l-2 -4v-2v-2l2 -4l-4 -4v-2l4 -6l-6 2v-2l-2 -2v-4l-2 -2v-4l-4 -4v-4l-6 -8v-6l-2 -6v-4v-2l-4 -2v-2l-2 -6l-6 -16l-2 -2h2v-6h-4l-2 -2l-2 -4v-2h2l-4 -10l-2 6l-4 -8v4l-4 -10l-6 -6v-6l2 -6l-2 -4l-2 -4v-2l-2 -4v-12l2 -4h2l76 -22l66 -16 l60 -14l40 -8l18 84l2 2l2 6l2 4l2 2l-2 2l-2 2h-4l-2 4l2 10l4 4l4 6l6 4l2 2l2 2v4l6 6l4 10l8 8v2v4l-6 6l-2 2l-2 4v2l-38 8l-28 8l-4 -2h-4l-4 2h-6h-2l-2 -2h-10h-6l-6 -2h-4l-4 2l-4 2h-2l-10 -2l-2 2h-8v4h-2l-4 2l-2 2h-6h-2h-2l-4 -2h-4h-6h-4l-2 2h-2l-4 2l-4 2 l-2 4l2 16l-2 4l-4 4v2h-2h-2l-6 2l-2 2l-2 2h-2h-2l2 -4l-8 4v2z" />
<glyph unicode="pa" d="M1758 1160l-32 -6l-48 -10l-44 -10l-30 -4l-2 10l-10 -8h-2l-6 -4l-4 -2v-2l18 -104l36 8l62 12l70 14v2l2 4l4 2h4h4l2 2l2 2l2 2v2l2 2v2h2l2 4l4 2v2l-4 4l-4 2l-2 2l-4 2v2l-2 2l-4 4v6l2 4v2l-2 2l-2 4l4 4l4 6v4v4l4 2h-2l-4 2l-6 2l-2 4l-2 2l-2 6l-2 2h-4l-2 4 h-2z" />
<glyph unicode="ri" d="M1892 1196l-10 -4l8 -22v-4v-2l8 6v2l-2 4v2l-2 4l2 4l-2 8z" />
<glyph unicode="sc" d="M1614 794h-12l-36 -4h-2l-2 -2l-6 -2l-6 -4l-2 -2l-10 -4v-2l-6 -8v-2v-2l2 -2h4l6 -4h4l4 -4l2 -2l4 -4v-4l8 -8l6 -4l6 -4l4 -4l2 -2v-2h4l4 -4l4 -2v-2v-2l4 -2v-4h4v-2l2 -2h2l8 -6v-2l4 -6l2 -4v-2v-2l2 -2l6 -2l2 -4l2 -2l2 -4v-4v-2l2 -2l6 -2l2 4l2 6h-2v4l-4 4 h-4l4 2l-6 10l10 -8l4 2v4l2 -4l4 2h4h2h4v2l2 4l2 -2l2 2h2v2l4 2l-2 2l-2 8h6l2 -4l2 4l2 2h2l-2 4l4 4h4h2v2l2 2h-2l2 4h2v2l-4 2v6l2 4l6 2l6 12l8 8v2l-48 34l-44 -6l-2 2v2v4l-4 2h-4z" />
<glyph unicode="sd" d="M764 1274l-2 -42l-2 -2l-6 -94l34 -2l60 -4l58 -2h40l4 -4l12 -6h2l2 4l8 -2l14 2l4 -4l4 -2l4 -2l2 2l4 -4l2 -2v4l2 4v2l2 4v4l2 2v2l-4 2l-2 6l2 2h2l-2 4l-2 6h6v84l-2 2h-2l-4 2l-4 6l-2 4v4l4 4h2l2 4v2h-58l-62 2l-66 4z" />
<glyph unicode="tn" d="M1578 860h-2l-12 -2l-42 -6h-6l-12 -2l-4 -2h-14l-12 -2l-12 -2h-16l-10 -2l-20 -2l-18 -2l-20 -2l-16 -2l-16 -2l-4 2h-2v-4v-6l-54 -4l-2 -2l2 -4h-4l2 -4l-4 -2l2 -2l-2 -4l-2 -4l2 -2v-4l-2 -2l2 -2l-6 -4l-2 -2l2 -4l-4 -2l-2 -2l2 -2l-4 -8v0l2 -10l-2 -2h-2l-2 -2 l48 4l28 2l-2 2l60 4l42 4l36 6h14v12l6 2l2 2l2 4v4l4 4l6 4h6h2l10 8l6 6h2l2 2v8l4 -2v2l2 2l4 2l4 -2l2 2l2 2l4 4l6 2l2 -2l2 2l2 8l4 2l2 2v4v4h2z" />
<glyph unicode="tx" d="M768 816v-2l-8 -116l-4 -44l-2 -50l-4 -4h-2l-36 2l-76 6l-28 4l2 -4l2 -4l2 -2h2l2 -2l2 -4l2 -4l2 -4l2 -2l6 -4l4 -2l6 -10l6 -6l2 -2l4 -6l2 -2l4 -2l6 -6h4v-4l2 -2l2 -4v-4l2 -2l4 -6l2 -4l-2 -4v-2v-6l6 -14l4 -4l4 -2l2 -2l2 -2l8 -6l2 -2l6 -2l2 -4l8 -4l4 -2 l2 -2h4v-2h2h2l2 2l2 2l2 4h4v2v4l2 2l6 12l2 4l2 2h4l4 2h2h2l2 4h6l4 -4h4h2h4h2l8 -2l4 2l4 -2l4 -4v-2l4 -4h2l2 -4l2 -2l4 -2v-2l10 -8l2 -6l4 -2l2 -8l2 -8l2 -4l2 -2l2 -2l2 -6v-6l4 -6l2 -2h4l2 -6l2 -2l2 -2l2 -4l2 -4l4 -6l6 -2l2 -2l2 -4v-2v-4v-4v-2l2 -2v-4v-2 v-2l2 -4l4 -6l2 -2l2 -8l2 -6l2 -2v-4h6l4 -2h2l4 -2l2 -2v-2l2 2l4 -2h4l6 -6l2 -2h12h8l2 -2h4l6 -6l4 -2v2l4 2l-4 6h2v6l-6 10v4l-2 10l-4 4v4v2l2 4h2v2l2 4v2h-4h-2l-6 -2l2 4h-2v4v2l-6 10l10 -8l2 -2h2l2 2l4 -2l4 14l-2 2l-2 4h-2l-6 4l8 2h8l2 -2l2 4l-4 4l2 4 l-2 4h6l4 2l2 -2l4 12v-12l2 2v2l-2 4l2 4v0v0l2 2l4 -6h2l6 4l-6 -2l2 4v2l-6 10h8l2 -2l2 -4l-2 6l4 2l2 -4h2l4 2l2 -4h4l4 2l8 4h6l6 4l4 2l2 2l6 6v4l6 4l2 4l2 2h2l-4 2v4l-2 2v4l-2 4l4 4l4 -2v2l4 2l6 -2v-6l-2 -2h4h10l2 2l10 4h6l-4 4l6 8l2 4l2 2l2 2l-2 8l-2 4 l2 4v6l2 4l2 2v4l2 2v4v2v2v4v2v2l-6 8v2v2l-2 2l-2 2l-2 4v6l-2 4l-2 4l-6 4l-2 74l-8 2l-4 -2l-4 4l-8 2l-4 2l-4 2l-6 4l-6 4l-2 -2l-4 -2h-4h-2l-2 4l-6 -2l-2 -2h-4h-4h-2l-2 -2l-4 -4h-4l-2 -4l-4 4l-2 2l-4 2l-2 2h-2l-2 -2l-6 2l-2 4v-2l-4 -2l-2 -6l-4 -2l-2 2 l-2 4v2l-4 -2h-4l-2 4h-2l-2 2l-2 2l-4 -6h-4h-4v6h-4l-2 6v0l-6 2l-4 -4h-4l-4 2v2h-2h-4l-6 2l-4 2l-2 -2l-2 2h-4l-2 4v2l-2 2l-2 2v-2h-4l-4 2l-2 -2l-4 2l-6 6l-2 2h-4v8l2 84h-2l-2 2h-16l-40 2z" />
<glyph unicode="ut" d="M398 1128l-42 -234l32 -6l52 -8l50 -8l48 -6l24 188l-72 10l8 48l-40 6l-50 8z" />
<glyph unicode="va" d="M1790 956l-2 -6l-2 -6l2 -4h-2v-6h2v2v6v4l2 2l2 6l2 -2v6l2 6l2 4v4h-2l-4 -4l2 -2l-2 -6h-2v-4zM1790 912l-2 4h-6h-2v-2l4 -6l-8 4h-2l-8 -8l2 10l-2 2h-2l-2 4l-2 2h-2h-2h-4l-6 2h-12l4 6h4l6 2l2 -2v4l6 -6h2l4 2l-4 2l-12 10l12 -2l6 -4l4 -2l-4 4l4 2l4 -2v4 l-2 -2l-6 4h2v2h-4l-4 2v2l-6 2l-2 4l-4 2l-2 2l-2 2l-6 4l-20 2l22 2l4 -2l4 -2l2 -4h4l2 -4h2l6 -4h4v-2l2 2v2l-4 6v0l-6 2h-2v2l-2 2v2l-6 -2h-2h-2l-2 2l-6 4v2h-2l-2 -2l-4 -2l-4 2l-2 6h2l-2 2l2 8l-6 -4q-2 -2 -4 -2t-2 2q-4 2 -4 6l2 8l-6 6q-2 2 -2 4t2 2q0 4 4 4 h-2h-4v-4l-4 -4l-16 8h-2v-2v-2v-8l-2 -2l-2 -8l-4 -2l-2 -2l-2 -6h-4h-4v-2v-4l-2 -2v-8l-2 -4l-6 -2l-8 2v2l-2 2v-6v-4h-2l-2 -6l-2 -4v-2l-2 -8l-2 -4l-4 -6v-4l2 -4l-2 -2v-4l-2 -2l-6 -4h-4l-6 -4h-2l-2 -4l-4 -2l-6 -2l-4 -2l-4 2v-2l-8 -4l-6 2l-6 2l-4 4l-2 2 l-10 -10l-10 -8l-2 -2v-4l-2 -2l-2 -4l-2 -4h-4l-2 -2v-4l-8 -4h-2h6l42 6l12 2l4 2l6 -2l12 2l30 4l84 16l42 8l34 8l-6 10l8 -8v8z" />
<glyph unicode="vt" d="M1850 1334l-46 -12l-10 -4l2 -2l-2 -2l4 -4v-6v-4l4 -2v-4v-4l2 -2v-4l-2 -2v-6l2 -4l2 -4l2 -6v-2l8 -6l6 -34v-2l22 4v2l-2 4v4l2 2l-2 10v6l-4 10l2 4v4l2 4v2v4l2 2l-2 4l2 6l-2 4v6l4 4h2l4 6l2 2v2v4l-4 2v4l2 6z" />
<glyph unicode="wa" d="M184 1520h-2v-2l2 -4l2 -2l4 -2l-2 -4l2 -4l-2 -6h-2v-4h-2l4 -4l-2 -4v-6l2 -4v-4l-4 -4l-2 -2v-4l-2 -2l2 -2l-4 -4v-6l-4 -4l-4 -4h-2l-4 -4h-4h-2v2v0l-2 -6l-6 6v2l-10 4h12l2 4l4 2h-6v0l-4 4l4 4l6 6l2 2l8 10l-4 6l-4 -2v8h-2l-4 -2l-4 4h-6l-2 2l-6 2l-6 4l-2 2 l-2 2l-4 2l-4 6v-2h-2v-4l-2 -2v-2l-2 -4v-2l2 -2l2 -4l2 -6v-4l-2 -12l2 -8l-2 -10l4 -2l2 -2l10 -4l-12 -2l-6 -2v-2h2l6 -2l2 -8h-4l-2 2v-4l-2 -2l2 -4l-2 -4h4l2 -4h4l2 -2h2v-4l2 -2h2h4l2 -4l4 -2l2 -8l-2 -16l4 -2l4 -2h2l2 -2h2h6h2l4 2h4h4l4 -2h4l4 -2l4 -2v-2h4 l4 -2l8 2h4l4 -4h2h2l6 2h6h10l4 2h2h8l4 -2h2l2 2l32 -8l36 -6v8l-2 8l2 2l2 10l22 108l-28 6l-56 12l-48 12zM174 1510l-2 -2l2 -4l2 4v-4l2 4zM166 1508l-2 -4l2 -2l2 -2l2 4l-2 4h-2zM180 1494l-4 -4l-2 -2v-4l2 -4v-2l2 -4l2 -2v-2l4 2l-2 2l-2 4h-2v6l-2 2l2 2l4 2 l-2 2v2zM174 1468l-2 -2h2v2zM168 1462v-2h2zM164 1460l-4 -2l-4 -6v2l8 -2v0h6v2l-4 -2v6l-2 -4v6zM170 1450h-6v-2l4 2h2z" />
<glyph unicode="wv" d="M1590 1044v-2l-2 -8l2 -4l-2 -6v0v-4v-4l-2 -6l-4 -4l-4 -6l-6 -6l-6 2v-2v-4l-6 -2v-2v-4l-2 -2l2 -4l-2 -4l-2 -6l-6 8l-2 -2v-2v-4l-2 -2v-2l2 -8l-4 -2v-4l-4 -4l-4 -2h-2h2v-4l-2 -6l6 -6l2 -4l2 -2l6 -8l6 -4h8v-4l2 -4l2 -2l6 -4h4l4 4l2 4l6 -2h2l8 2l2 2v6l6 -2 l6 4h4l4 4v2l2 2l-2 4v6l4 6l2 4l2 6v4l2 4l2 6h2v4v6l6 2l4 -4h4h2l2 2v6l2 4v4l2 4h4h2l4 6l2 2l2 2l2 6l2 2v6v2v4l6 4l16 -10v2v4v2l-2 2v2l-4 2v2h-4l-2 2l-4 2v-2l-2 -4h-4l-2 -2v-4h-6h-4l-2 2l-4 -8h-4h-2l-2 -2l-2 -4l-2 -4l-2 -2l-6 -6l-4 26l-38 -6z" />
<glyph unicode="wi" d="M1198 1320l-2 -2l-2 -2l-4 -2h-4l-6 -4l-12 -4l-4 -2l-4 2l-2 2l-2 -4h-2l2 -24v-4l-2 -4l-8 -2l-4 -4l-2 -2l-2 -4l-2 -2v-2l2 -2h4l4 -8l-4 -10v-6v-2l2 -6l-2 -6v-2l4 -2l2 -4l4 -2h6l2 -4l2 -2h4l6 -4l4 -6l4 -6l4 -2h2l4 -2l4 -4l2 -4l2 -8v-4v-2l2 -2v-2v-2v-2h2 l4 -6l-4 -6l2 -4v-4l2 -4v-4l2 -2h2l10 -2l2 -6l54 2l42 4v6v2v2v4l-4 2v4l-2 2l2 4l-2 6v8l2 6v2v4l2 4v2l-2 6v4l2 6l2 4l2 2l-2 8l2 4v6l4 8v2l-2 2v2l-4 -2h-2v-2l-2 -4l-2 -4l-2 -2l-2 -4h-6l-2 6l2 4l2 6l2 4v4h4l2 2v2v2l-4 2v4l2 4h-2l-4 -2l-2 6l2 4v4l-2 4v2l-4 2 h-6v6l-2 2h-8l-2 2l-2 -2l-8 2v-2l-12 6l-32 6l-4 6l-4 2l-2 2h-2l-4 2l-4 2h-2l-2 -2h-8l2 4l2 4v2l2 4v2h-2z" />
<glyph unicode="wy" d="M524 1254l-2 -2l-2 -20l-24 -164l70 -10l34 -4l58 -6l30 -4l54 -4l8 94l6 94l-44 4l-66 6l-60 8z" />
<glyph unicode="usa" d="M1770 1000l8 4l-2 12l-6 20l-6 -4h-2l-2 -2l-2 -6l4 -2v-4l2 -2l-2 -2v-2h6l-4 -6l4 -6h2zM1776 988l4 10l-2 6l-6 -10h-6v-6l4 -2l2 -2l4 14v-10zM1802 992l2 -2v2l-2 4l-18 -6l-4 6v-12l4 -2l-2 -2l2 -2l6 2l-4 -8h2h2l4 4l4 2v2l2 2zM1756 978l-2 2l-6 4l-2 4l-2 6v10 l-4 -4l2 -8q0 -4 -2 -6h-2l2 -4l2 -4l2 8l2 -8l2 -2l2 2l6 -2l2 -2h4l-2 2zM1732 986h-2v-2h-2l2 -4v2v2l4 2h-2zM1712 1018h4l4 8q2 4 6 4t4 -4l4 -8l8 -2q2 0 4 -2l2 2v2l-10 6l6 2l-4 4l8 -2v2v2l2 4h2l4 6v2h4l6 4v-2l2 -2l-2 6l-68 -14l-10 -2l2 -2h6l2 -2v-2h2v-4 l2 -2v-2h6zM1642 1008l2 2l4 4v4h4h4l2 6v2l4 2l4 -4h2h2l2 2l2 4l-36 -6l2 -18zM1752 988l2 -2h2l-4 4l-2 6l-2 4v4v2v4v2v-2q0 -2 -2 -4l2 -12zM1792 954l2 -2v6l2 6l2 4v4h-2l-4 -4l2 -2l-2 -6h-2v-6l-2 -4l-2 -6l2 -4h-2v-6h2v2v6v4l2 2zM1790 912l-2 4l-6 -2l-2 2v-2 l4 -6l-8 4h-2l-8 -8l2 10l-2 2h-2l-2 4l-2 2h-2h-2h-4l-6 2h-12l4 6h4l6 2l2 -2v4l6 -6h2l4 2l-4 2l-12 10l12 -2l6 -4l4 -2l-4 4l4 2l4 -2v4l-2 -2l-6 4h2v2h-4l-4 2v2l-6 2l-2 4l-4 2l-2 2l-2 2l-6 4l-20 2l22 2l4 -2l4 -2l2 -4h4l2 -4h2l6 -4h4v-2l2 2v2l-4 6v0l-6 2h-2 v2l-2 2v2l-6 -2h-2h-2l-2 2l-6 4v2h-2l-2 -2l-4 -2l-4 2l-2 6h2l-2 2l2 8l-6 -4q-2 -2 -4 -2t-2 2q-4 2 -4 6l2 8l-6 6q-2 2 -2 4t2 2q0 4 4 4h-2h-4v-4l-4 -4l-16 8h-2v-2v-2v-8l-2 -2l-2 -8l-4 -2l-2 -2l-2 -6h-4h-4v-2v-4l-2 -2v-8l-2 -4l-6 -2l-8 2v2l-2 2v-6v-4h-2 l-2 -6l-2 -4v-2l-2 -8l-2 -4l-4 -6v-4l2 -4l-2 -2v-4l-2 -2l-6 -4h-4l-6 -4h-2l-2 -4l-4 -2l-6 -2l-4 -2l-4 2v-2l-8 -4l-6 2l-6 2l-4 4l-2 2l-10 -10l-10 -8l-2 -2v-4l-2 -2l-2 -4l-2 -4h-4l-2 -2v-4l-8 -4h-2h6l42 6l12 2l4 2l6 -2l12 2l30 4l84 16l42 8l34 8l-6 10l8 -8 v8zM1744 1012h-2l-10 2l-4 10q-2 2 -3 2t-1 -2l-6 -10l-10 -2l-2 -2l2 -2l6 -6l-2 -10q0 -2 2 -2q0 -2 1 -2t1 2l10 4l8 -4q0 -2 1 -2t1 2q2 0 2 2l-2 10l6 6l2 2v2zM164 512v-4v-2l2 -4l-2 -2l-2 -4l-4 -2v-2l2 -4v-2l2 -4l2 -4v-2l-2 -6l2 -4h2l2 -2h2h2l2 2l2 4h2l2 2 l4 2h2l4 2h4l2 4h2l2 2v4h-2l-4 4v2l-2 2l-2 4l-2 2l-10 6h-2l-4 2h-2l-4 4h-2zM124 536h-4l2 -4l4 -4v2l2 2l-2 4h-2zM134 540v-2l-2 -2l2 -4l6 -2h2v-4l2 -2h2l4 2h2h2l4 2l-2 4l-4 2l-2 2h-4h-4h-2l-2 4h-4zM114 546l-2 -4h6h2h4l2 -2h2l4 2l-2 4l-2 -2h-2l-4 2h-2h-4h-2 zM88 564h-2l-4 -4h-2h-2l2 -4l2 -2l4 -4h2v2h2l4 -4l2 2h4l-2 4v2h-4l-2 2zM16 576l-4 -2l-2 -2v-4l2 2l2 2l2 2v2zM34 586l-4 -2l-2 -2h-2v-4l2 -2l6 -4h2h2l2 2l2 4v2v2l-2 2h-4zM318 372l2 2zM374 316h-2v-2zM338 384l-2 -2h-2zM330 378h-2h2zM192 52l-2 -2l-2 2l2 -2h2 l4 -2h4h2h2l-6 2h-2l-2 2h-2zM154 54v-2h2zM212 54l-2 -2v-2l2 2h2zM152 54l-2 -2v-2l2 2v2zM240 56h-2v-2h2v2zM148 58l-2 -2v-2h-2l-2 -2l-2 -2l4 2v-2h2l4 2v2l-2 2v2zM138 58v-2h-6v-2l2 2l2 -2h2l2 2v2h-2zM158 58h-4l2 -2h2v2zM256 60l-6 -2l4 -2zM186 60l-2 -2v-2 l-2 -2h-2h-6h-4l2 -2l2 2l4 -2h2l2 2l2 -2h2v4h2v2zM124 62v-2l2 -2v-2v-2l4 4l-2 2l-2 2h-2zM114 64v-2v2zM76 70v-2h2l4 -8l2 2l-2 2v2l-2 2l-2 2h-2zM280 72h-2l-2 -2v-2v-2h-4l-2 -2v-2l-2 -4h-2h4l2 2h2l2 2l2 4h2l4 2l2 2v2h-2h-4zM92 74h-2l2 -2h2zM310 76h-2l2 -2v2 zM76 80v-2v2zM324 82h-2l2 -2v2zM302 82l-2 -2h-2l-2 -2l2 -2h2l2 -2h-4v-2l-2 -2h2h-2l-6 -2h-2h-2l-2 -2l2 -2l6 2l4 2h2h2v2h2l2 2h2h2l-2 2h-2v2h2l2 2v2l-2 -2h-2v2zM314 86l-2 -2v-2l2 -2l4 2l-2 2zM320 86l-2 -2l2 -2l2 2zM64 86l-2 -2h-6l2 -2l4 2zM360 90v-4h2v2 h-2v2zM366 100v-2h2v2h-2zM408 102l2 -2v2h-2zM346 104l-4 -2l-2 -2l-2 2l-2 -2l-2 -4l-4 -2v-2v-2l2 -2h2h4v4h2l2 2h2l6 -2l2 2v2l2 -2h2v2h-2l-2 2v2l-2 2l-2 2h-2zM376 104v-2v2zM406 106v-2l2 -2v4h-2zM402 108l-2 -2l-2 -2v-2v-2v-2l2 4l2 4v2zM396 110l-2 -2h2v2z M390 110l-2 -2v-2l2 -2l4 2l-2 2v2l-2 -2v2zM12 118h-2l-2 -2l2 -2h2v4zM416 124v-4l2 4h-2zM462 126l-2 -2v-2l2 2v2zM2 134h-2l2 -2v-2l2 -2h2h2h2l-2 2v2h-2l-2 2h-2zM440 142l-2 -2zM476 144l-2 -2v-2l2 2v2v0zM480 144h-2v-2h2v2v0zM492 160l-2 -2v-2h2l2 2l2 2h-2h-2z M778 178v-2h2v2h-2zM486 180v-2l2 -2h2l-2 2zM488 180l2 -2v-2v-2l-2 2v-4l-2 2v-2v2l-2 2h-2l-2 -2l2 -2h2l-2 -2l2 -2h-2v-4l2 -2l-2 2v2l-2 2v2h-2h-2l-4 -4l-2 -4l2 -2l2 -2v-2v-2l2 -2l2 -2l2 2v6l-2 -2h-2v2h2h2v-2h2l2 2l-2 -4h2l-4 -4v-2h2l4 4l2 2l-2 2h2v2h2l2 2 h2l-2 4h2h2l2 -2v2l-2 4h-2h2h2h4l2 4h-2l-2 2v2v2l-2 2l-2 -4l-2 -2v4h-2zM770 184v-2v-4l2 -2l6 -4h2v4l-4 2l-2 2l-2 2zM774 184v-2l2 -2h2l-2 2zM768 184l-2 -2v-2l2 2v2zM764 184l-2 -2l2 -2v2v2zM760 186l2 -2v2h-2zM762 188l2 -2zM798 188l-2 -2v-2l2 2v2zM808 188 v-2l2 2h-2zM764 188l2 -2v2h-2zM790 192v-2l2 -2h4l-2 4h-2h-2zM496 192h-2v-4h-2l-2 -2h2h-2v-4l-2 2v-2l2 -2h2v2l2 -2v2l2 2l2 2v-2h2v2h2l2 2v2l-2 -2v2h-2h-2zM750 192h-2l2 -2v2zM786 194v-2v-2h2v2v2h-2zM762 194h-2h-2v-2l2 -2v4h2zM754 194v-2v2v0zM390 196l-2 -2 l-2 -2l2 -2h2v2v4zM762 196l2 -2zM498 196h-2v-2h2v2zM760 206h-6v-2l2 -2h2h-2v-2l-2 -4l2 -2l2 2v2l2 2v2v-2l2 -2l2 -2v-2l-2 -2l2 -2h2l2 2v-2l4 -4h-2h-2v-2h2h2v-2l2 2h2v2l2 -2l2 -2v-2h2l4 -2v-2h2l2 2v2l-2 4l-2 -2l-2 2l2 2v2h-2l-2 2l-2 2l-2 -2v2l-4 -2v2l4 2h2 h-2l-2 2l-2 2l-2 2l-2 2h-2h-4h-2v2zM788 210h-2l-2 -2v-4h2l-2 -2l2 2l-2 -4l2 -2v-2v-2h2l2 2l-2 2l2 -2l2 2l-2 2l2 -2v-2v-2h2l-2 2l2 -2h2v2v4l-2 2v2l-4 4zM768 212h-2v-4v-2l2 -2h2l4 -2l2 2l-2 2v2l-4 2zM764 212l-4 -2l2 -2h2h2v2zM768 216l2 -6h4l2 -2v2l-2 4z M740 216l2 -2h-2v-2v-2h2h2l-2 -2l4 -2l-2 -2v-2l4 -4l2 -4v2l-2 2v2l2 -2v2l-2 4v2v4v2v2h-2v-2v-2v2l-2 2l-2 2h-2zM718 218l-2 -2l4 -4l-2 -2h2l2 2l-2 4zM760 220l-2 -2v-2l2 -2h2l2 2v2zM752 222v-2l-2 2h-2h-4l-2 -2l2 -2h2v-2l4 -6l2 -2l2 2h2l2 2l-4 4l-2 2h2l2 -2 l2 -2v4l-2 2v2h-2h-2zM728 224v-2h2zM720 224l-2 -4v-2l2 -2l2 2v-2l2 -2h2v-2l2 -4h2v-2v2v-2l2 -2v2v-2l2 -2l2 -2l2 -2h2v2l-2 4v2l-2 4l-6 8l-2 2l-2 2l-4 2l-2 -2l2 2h-2zM702 232v-4l2 -2v2v2l-2 2v0zM732 238l2 -2zM322 238h-2h-2l-2 -2h-4l-2 -2l2 -4h2l4 -4h2l4 -4 v4l2 -2l4 2h2l-2 4v6l-2 2l-2 -2l-2 2h-2zM546 238v-2l2 2h-2zM708 240l-2 -4h-2l2 -2l-4 2l2 -2l-2 -2l6 -2h-2l-2 -2l2 -2l2 -2l2 -2l2 2l2 -2l2 -2h-2l2 -2h2v4l-2 2l-2 2h2l8 -2h2v2l-2 6l-2 -2h-2h-2l-8 2h4h4l2 -2l2 2l-2 2h2v2l-2 2h-2h-2h-2l-2 -4h-2l2 2l2 2h-4z M550 240l-2 -2l2 2v0zM548 242l-2 -2v-2v2zM546 244l-2 -2l2 -4v2v4v0zM498 244v-2l2 2h-2zM718 246v-2l2 -2l2 -2l6 -10l2 -2l2 2v-2l2 -2v-8v-2l2 2v2l2 2v2l-2 2h2l2 2l-2 2v2l-2 2h-2l-4 4l-2 2v2l2 -2l2 -2h2l2 -2l2 -2l-2 2l-4 4l-2 2v2h-2h-4l-2 -2l-2 2zM546 248v-2 v2zM594 248h-2v-2v-2zM556 250l-2 -6v-2l-2 -2l-2 -4v-2l2 2l2 2l2 2v4l2 2zM548 252v-6v-2h2v2v2v2zM564 254l-2 -2v-2h2l-2 -2l2 2l2 2h2v2l-2 -2zM580 256v-2v2zM542 256l2 -2zM570 258l-2 -2v-2l4 4h-2zM544 262l-2 -2l2 -2l2 2zM430 510l-2 -2l-4 -4v-4l-2 -2l-4 -2 l-6 -2h-2l-4 -2v2v2l-2 -2l-4 -4l2 -2l2 -2h2h-4v-6l-2 2v2v4h-2l-4 -4l-4 -4h-2h-2h-2h2v2h-2l-4 -8l-4 -4l-2 -4v-4l-4 -4l-2 -6l-2 -2h-2l-2 -2h-10h-6h-2v-6l-2 -2l-2 -4h-2h4l2 -2l2 -4h2l2 -2l6 -6l2 -2l2 -2l2 -2v-2l2 -4v-4l2 -2l4 -2h4h2l2 2v-2v-2l2 2h4v-2l-2 -4 v-4l2 -2l4 -2l2 4h2l2 -2h2h2v-2v-4h-4l-2 2l-2 2h-2l-4 -2l-2 2v2l-2 2v2v2l-2 2h-4l2 -2l4 -4l2 -2v-2v-4l2 2h2l4 -2v-4v-2l-2 2l-2 2h-2v-2l-2 -2h2l-2 -2l-2 2l-2 -2l-2 2l-2 -2l-2 2h-4h-2h-2l-2 2v2h-2h2v4l2 2l-2 2h2l-2 2h-4l-2 -2h-2l-2 -2h-6l-2 -2l-2 -2l2 -2 v-2h-2l-4 2l-6 -4l-2 -2h-2h-2l-2 -2v-2h-4h-2l6 -6l2 -2h2l2 -2h2l-2 2l6 -2l2 -4l-2 2h-2l-2 -2l-2 -2l-2 2v2v-2l2 -2v-2l2 -2l2 -2l-2 -4l2 -2l2 -2l6 -2l4 -2l2 2h2h4h6h2l6 -4l-2 2v4h2l2 -2l2 -4l2 4h2l2 2l2 2l2 2l2 -2l2 2l2 2h2h-2l4 -2v-2v-2l-2 -2l-2 -2h-2 l-2 -2h4l2 -4v-6l2 -6v-2l-4 -4l-2 -2h-4h-2l-2 2h-2l-2 -2l-4 -6l-4 -4h-2l-2 2l-2 -2h-2l2 2l-2 2l-4 2h-2l-2 -2v-2l2 -2h-2h-2l-2 -2v-2v-2l2 -2l2 2l-2 -4h-2v-2h-2h-2l-8 -10v-2v-2v-2h-4v-2l2 -2h-2h-2v-2v-2l2 2l2 -2l-2 -2l2 -2l2 -2v-2v-2h2v2l4 4l4 4v2v-2l-2 -2 l-4 -2v-2v-2h2v-2l4 -2h-2l-2 -2v-2h2h2l2 -2h6h2l2 2v-2h-2h2l2 -4v-2h-2h-2v2l-2 2l-2 -2h-2l-2 -2l4 2l-2 2l-2 2h-2v2l-2 -2l-2 -2l-2 -2h-2v-4h4l-2 -2l2 -2l2 -2l2 2v-2l2 -2v-2l2 -2l2 -2h-2l2 -4h4h4h4l2 2l2 2h2h2v6h-2l2 2l2 2v4l2 2v2l2 -2l2 2l-2 -2l-2 -2v-2 l-2 -4v-2l2 -2v-2v-2v-2v-2l4 -8l-4 -6l2 -2l4 -4l-2 -2v-4v-2l-2 -2h-2h2l2 -2l4 4l2 2h2l2 2h2l6 4l2 -2v-2h2l2 -2h2l2 2v-2l2 -2l6 -8h2l2 2l-2 2l-2 4l2 2v4l2 -2l2 4v2v-2l6 -2v-2l-2 2l-2 2l-2 -2v-4l2 -2v-2h2h2l4 2l6 4h2l2 2v2l-2 -2v-4l2 -2l-4 -2v-2l-4 -2v-2 v-2l2 -2h2l2 -2l-2 2l-2 -2l-2 -2v-6l-2 -4l2 -2v-2l4 2l-2 -4h-2v4l-2 -2l-8 -6v-2l-4 -4v-2v-2v-2h-4h-2v-2l-6 -2l-4 -2l-2 -4l-4 -4l-2 -2v-4v-2l2 -2v-2h-2l-2 2h-2v-2h-2l-2 2v2h-2l-2 2l-6 -2l-6 -6l-4 -4v-2l-2 -2l-4 -2v-2l-2 2l-4 -2v-2v-2v-2l-2 -2h4l2 2l-4 2 l2 2h2l2 -2v-2l4 2l-2 2l2 2l-2 2h2l2 -4v-2h2l2 2l2 2v2h2l2 2v4l4 2h2v-2h-2v-2v-2h2h2l2 2h2h4l-2 2h2l2 -2l2 6h2h2v2l4 2h2v-2v-2l-2 -4l2 4l2 4l4 2h2l2 2h2l2 2l2 2l-2 -2l2 -2v4h2l-2 2l2 2h-2h-2l4 4h2h2h2v2l-2 2h2h2l2 2l2 2l-2 2l4 -2h2l-2 2h2l2 2h2l6 6l-2 2 l2 2h-2l4 4h2l-2 2h2h4l-2 2l2 2v2h2h2v2h2l2 2l2 2l2 2h2v2h2h2v2v2h-2l2 2h2l-2 2l2 2l2 2h2l2 2l2 6l-2 2h-2l-2 2h-2h-2h-2v2v4v2l6 2l-2 2l2 2h2l2 2v-2l2 2l2 2l-2 2h-2h2l2 2h2l2 4l-2 2l-2 2l-2 2h2l2 -2h2l2 4v2v2l4 6h2l-2 2l2 4l2 2h2l2 2l2 2l4 4v2v-2l2 -2l2 2 h2l2 4l2 2h2h2l-2 -2l-4 -4v-2v-2l4 -2h4l2 -2h-6l-2 2l-2 -2h-2l-4 2l-2 -2l-4 -6l-4 -2l2 -4v-4v-2v-2l-2 -4l-2 -2v-6l2 -2h2h2l2 2h2l-2 -4l-2 -2v-2h-2h-2l-2 -2v-2v-2l2 -2l2 2l2 2h2h2l-2 2l6 -2v2l2 4v2h2l2 4v-2v-2v2l2 2h2l-2 4l2 -2h2v2v2v2v-2l2 -2l-2 2l2 2v2 v2l4 -4v2h6l2 2v2l2 2v2h-2l2 2v2l2 2v2h-2l-2 -2l-2 2l-2 -2l2 2h2v2v2l-2 -2l-2 2h-2l2 2l-2 -2l4 4v2v2l-2 -2v2l2 2l2 -2l2 2v2l2 2l-2 -2v-2v-2v-2l2 -2l2 2v-2v4v4l2 -6v2l2 -2v2h2l2 2l4 4h2h2l-4 -2l-2 -2l2 -2l2 -2h2v2h2l-4 -4v-2l2 2l4 2l-2 -4l2 2h2h2v-2v-2h2 l2 -2h2l2 2v2l2 2l2 2v2v-2v-2v-2v-2v-2l2 -2l6 2l2 -2v-2h2h2l2 2l6 2l6 2h10h2l2 2v2l2 -2l2 -2l-2 -2h6h8h2l4 6v4h2l4 -2h2h2h-2l-2 -2v-2l2 -2l-2 2l-2 2v4l-2 -2v-2l2 -2v-2v-2l-4 -2l6 -2h2h2l2 -2h2h4h2v-2h2h2l4 -2l2 -2l4 -2h2v-2l6 -2h4h2l2 -2v2v2v2l4 -2l2 2v2 l-2 2l-2 2l-2 -2v2h-2l-2 2h-4h-2l2 2l-2 2l2 -2l2 2h2l2 -2l2 -2l2 2v2l-2 2h4l-2 -2l2 -2l4 -6l-2 -2h2l2 2h4v-2l2 -2l2 2v2l-2 4l-2 2h2l-2 2l-6 6v2l-2 2l2 -2l-2 4h-2v4l2 -4l2 -2l4 -4v-2l2 -2h2v-2l4 -4l2 -2h2v0l2 -2h4l-4 2h2h2v8h2l-2 -2v-2l2 -2v-2v-2l2 -2h2v2 v2v-4l2 -2h2v2h6h-6l2 -2l2 -2h2l2 -2h2h-4h-4l2 -2h2v-2h2v-2h4l-2 -2h-2v-4h2l2 2h2l2 -2l2 2l2 -2v-2h2l2 -2l2 2l-2 -2l2 -2l2 2l2 -4h2l2 -2h2l2 -2h2h2h-2l-2 -2l2 -2v-4v-2l-2 -2l2 -4h2h2l-2 2h2v4l-2 2l4 4l2 2l2 4v-2v-2l4 -2l2 -4l2 -4l2 -2h2l-2 -2v-2v-2h2l2 2 v2l2 4l-2 -4v-2l-2 -2v-2l2 -4h4l-2 4l2 -4l2 4l2 2v2v6v2l-4 6l-2 2l-2 2v2v2v2l-2 2l-2 -2h-2l-4 2h-2l-2 2l-4 -2l-2 2h-4h-2l-2 -2l-2 2l-2 2l-2 2l-2 2l-2 2h-2v2l-2 2l-2 2l-4 2l-6 6l-4 2l-2 2l-4 4l-2 2l-4 2l-4 2l-2 2h-4h-2l-4 6h-2h-2h-2l-4 4v4h-2l-2 2h-2h-2 l-2 -4l-2 -2h-2v-4l-2 -4l2 -2v-2l-2 -2l-4 -4l-2 -2v-4l-6 8l-16 8l-2 2l-2 2h-4l-2 2v2v2l-2 2l-4 -2l-4 -4h-4l-2 -2h-6v2l-60 204l-6 16h-2h-2l-2 2h-2l-6 2l-2 2h-2h-2l-2 -2l-2 2h-2l-2 -2v-2h-2l-2 -2h-4h-2h-2l-4 2h-2h-2h-2h-2l-2 -2h-4l-2 2l-2 2h-2l-2 -2l-2 2 l-2 2h-2h-2h-2h-2l-2 -4h-2l-2 2h-2l-2 -2l-2 -2l-2 2h-4l2 2h-2h-4h-2h4l-4 2l2 2v2h-2h-2l-4 2l-2 -2h-2l-4 -2h-2l-2 2v2v2h-2v-2l-2 2l-2 -2l-2 -4h-2l-2 2l4 2v2v2h-2h-2l-2 2h-2zM1864 1136l-4 -2l-10 -2h-2l-2 -4h-4l-6 -4l-2 2l-2 -2v-4h-4v-2l-6 -4v-2h6l12 6l4 4 h4l6 4l4 2l2 2h4l4 4h-6zM1880 1144l-2 -2h-2l-2 -4zM1790 1318l-20 -6l-24 -4h-2l-4 -4l-12 -12l-8 -14v-4l-6 -8l-2 -2l-2 -4l-6 -4v-2l6 4v-4l8 2l-6 -8v-4h-2l2 -6l2 -4v-4l-2 -4h-4l-4 -4l-2 -2l-2 -4l-4 -4h-2l-4 -4h-2h-6h-6l-6 -4l-10 2h-12l-10 -2l-6 -2l-4 -2 l-2 -2l-4 -2h-2l2 -4v-2h6v-4v-2l2 -6v-4l-4 -6l-2 -4l-2 -4l-4 -4l-6 -6l-8 -6l2 -10l26 4l44 10l50 10l34 8v-2l4 -2v-2h2l4 -4l4 -6v-2l2 -2l6 -2l4 -2l4 -2l26 -10v4l-4 4v4l2 6l2 -8l4 -2l2 -6v-8v-2h2v4l2 4l-2 4v2l4 6l-2 4l-6 34l-2 2l2 30v4l-2 2v2l-6 30l-2 2 l-2 -4l-4 8v4l-2 6l-2 4l-2 6v8h2v2l-2 4v4v2l-4 2v4v8l-4 2l2 4zM1892 1196l-10 -4l8 -22v-4v-2l8 6v2l-2 4v2l-2 4l2 4l-2 8zM1926 1472h-2l-2 -4l-4 -2l-2 -4h-4l-4 -4l-4 2l-4 2l-2 6h-2h-2l-12 -40l2 -14l-4 -4v-8v-2v-6l4 -4l-4 -6l2 -4l-6 -6l-2 -4v-2l6 -10l-8 2 l2 -4l-6 -4l-2 2h-2l2 -2l22 -68l4 -10v-4v-2l2 -2l2 -2l4 -2v-4l2 -2l2 2v2v4v4l4 2v4v4l2 6v4v4l8 10v6l8 12l-2 -14v2l4 2v0l6 4l-2 -4l2 2h4h2h2v4v2v4v2v4l2 2l-4 4l6 4l-2 12l8 -10v-2h2v-4h2v2v2v10l6 -6v6l10 -4v2l4 2v10l2 -4l2 2l2 -2h4v2l2 2v4l-2 2h10h2l2 6 l-2 -2l-6 6l2 2l-4 8h-2l-2 -4l-6 4l-2 4v4l-2 2l-2 4l2 2h-4h-2l-4 2l-4 -2l-2 6v2v4v2l-4 10l-14 40h-2l-6 4l-6 4h-2zM1862 1350l-2 -2l-2 2l-2 -2v-2l-2 -6l2 -4h-2l2 -6l-2 -6v-2l2 -2l2 -4v-4l-4 -6l-4 -6h-2l-2 -2v-2l2 -6l-2 -6l2 -4l-2 -2v-4v-4l-2 -2v-4v-4l2 -10 v-6l2 -10l-2 -2v-4l2 -2l2 -2l36 8l4 4l2 4h2l2 4l4 2v2l2 4h-2l-4 4v4h-2l-4 4l-2 2v4v4l-4 8zM1878 1192h-4l-18 -6h-2h-2l-6 -2h-4l-18 -4l6 -32l2 -4v-4l-4 -6h2l6 6l2 2l4 4l2 -2l4 6h4l2 2h4l2 2l8 2l-4 6l8 -2v-2l6 4l6 2l2 2v4zM1926 1196v-6v-4h2l2 2l2 4h2h2l-4 2 l-4 -2l-2 2v2zM1946 1200l-2 -2l-4 -4l2 2h2l2 2v2zM1900 1242l-2 -2l-2 -4h-2v-2l-4 -6l-40 -8l-26 -6v-2l-2 -28h2l18 4h4l6 2h4l22 6h2l12 4l4 -4l2 -2l2 -2v-2l2 -2h2v2h4v-4l2 -2v-2h4v4l4 2l2 4l6 4l-2 4h-4l-4 2v6l-4 4h-2l-4 -2l-4 4l-4 6h4v2l2 2v2l2 4l2 2l-4 4 l-2 2l-2 2v2zM1784 808l-2 -2l-6 -2h-4l8 2l6 2h-2zM1794 820l-2 -2v-2l2 2v2zM1802 822l-4 -4l-2 -2v-4l-4 -8l4 10zM1806 830l-2 -4zM1814 838l-2 -2l-2 -4zM1786 848l-2 -2h2v2zM1820 868v-4l2 -2l2 -4v-12l-2 -2l-2 -2v-2l4 2v6v10v4zM1762 892l-8 -2l-42 -8l-84 -16 l-30 -4l-12 -2h-4l-2 -2v-2v-8h-4l-2 -4l-2 -6l-4 -4l-4 2l-4 -2l-2 -2l-2 -4l-4 -2h-4l-2 2l-2 -2v-4h-4l-2 -4l-2 -4h-2l-6 -4l-10 -8l-2 -2h-6l-6 -4l-2 -2v-2l-2 -6l-4 -4h-4v-10l44 8l10 4l4 2l4 4l6 2l4 2h2l36 4l14 2l2 -4l2 2l8 -6v-4v-2l44 6l50 -36l6 2l8 2h4l2 2 v4l-2 10h4v-2v2l4 6l4 8l6 4l-2 2l2 2l-4 8l10 -4l4 6l4 -2l6 4h2l6 6v-2v2l4 -4l2 4l-6 4l-6 -4h-8l-4 6l-12 14l14 -10l4 -2l2 -2h2l2 2l4 4h-4l2 6h4l-4 2h-4l-14 4l-2 2l2 4l8 -2h4h2v2v4h8v2l2 -2v2v-2l4 -6h2h6v2l4 10v4h6v2l-2 6v2l-2 -2h-4v-2l2 -6l-6 -6l-4 6l2 2 h-2l2 4v4v2h-2l-2 -2l-2 -4l-6 2l-4 -2l-4 -2h-4l-2 4l-2 4l-2 4v2v4v0zM1788 898l-24 -6l8 -10v-2v-2l2 -4h2l2 -2l4 4l-6 4h8l-4 4l10 -2h2l-2 2l-12 4l12 2l4 -2zM1798 902l4 -12l2 -2l4 -6l2 -4l2 -2l4 -4l2 -2l-2 4l-8 8l-4 6zM1850 1334l-46 -12l-10 -4l2 -2l-2 -2 l4 -4v-6v-4l4 -2v-4v-4l2 -2v-4l-2 -2v-6l2 -4l2 -4l2 -6v-2l8 -6l6 -32v-2v-2l22 4v2l-2 4v4l2 2l-2 10v6l-4 10l2 4v4l2 4v2v4l2 2l-2 4l2 6l-2 4v6l4 4l6 6l2 2v4v2l-4 2v4l2 6zM1788 1136l-2 -2v-4v-2l-4 -10l-2 -2v0l2 -4v-4l-2 -4v-2l2 -2l4 -2v-4l2 -2h2l4 -4l8 -6 l-2 -4l-4 -4l-2 -4h-2v-2v-4l-6 -4h-2l-2 -2l-2 -2v-6v-2v-2h2l-2 -2l6 -4h2l4 -2l4 -4l2 2h8l2 -6v-4v-2v2v4l2 2l2 6v2v4l4 4v0l2 4l-2 4h4v4l2 4l2 2l-2 2v4v4l-2 4h2l2 6v10v2h-6h-2h-4v10l2 6h2v2l2 6v2v2zM1804 1002l-8 -4l10 2zM1776 1058h-2l-2 -2l-2 -2v-2l10 -34 l4 -20l2 -2l8 2l6 8v4l2 2h-4l-6 6l-2 2l-4 4l-2 4v4v2l-4 2l-2 4l-2 4v2l-4 4l2 2l2 4v2zM1766 1038h4l-2 4zM1756 1040v-4l2 2zM1758 1160l-32 -6l-48 -10l-44 -10l-30 -4l-2 10l-10 -8h-2l-6 -6h-4v-2l18 -104l36 8l62 12l70 14v2l2 4l4 2h4h4l2 2l2 2l2 2v2l2 2v2h2l2 4 l4 2v2l-4 4l-4 2l-2 2l-4 2v2l-2 2l-4 4v6l2 4v2l-2 2l-2 4l4 4l4 6v4v4l4 2h-2l-4 2l-6 2l-2 4l-2 2l-2 6l-2 2h-4l-2 4h-2zM1658 668h-2l2 2h-2l-2 2l2 -6h2v2zM1614 794h-12l-34 -4h-4l-2 -2l-6 -2l-6 -4l-2 -2l-10 -4v-2l-6 -8v-2v-2l2 -2h4l6 -4h4l4 -4l2 -2l4 -4v-2 l8 -10l6 -4l6 -4l4 -4l2 -2v-2h4l4 -4l4 -2v-2v-2l4 -2v-4h4v-2l2 -2h2l8 -6v-2l4 -6l2 -4v-2v-2l2 -2l6 -2l2 -4l2 -2l2 -4v-4v-2l2 -2l6 -2l2 4l2 6h-2v4l-2 4h-6l4 2l-6 10l10 -8l4 2v4l2 -4l4 2h4h2h4v2l2 4l2 -2l2 2h2v2l4 2l-2 2l-2 8h6l2 -4l2 4l2 2h2l-2 4l4 4h4h2 v2l2 2h-2l2 4h2v2l-4 2v6l2 4l6 2l6 12l8 8v2l-48 34l-42 -6l-4 2v2v4l-4 2h-4zM1590 1044v-2l-2 -8l2 -4l-2 -6v0v-4v-4l-2 -6l-4 -4l-4 -6l-6 -6l-6 2l-2 -2v-4l-4 -2v-2v-4l-2 -2l2 -4l-2 -4l-2 -6l-6 8l-2 -2v-2v-4l-2 -2v-2l2 -8l-4 -2v-4l-4 -4l-4 -2h-2h2v-4l-2 -6 l6 -6l2 -4l2 -2l6 -8l6 -4h8v-4l2 -4l2 -2l6 -4h4l4 4l2 4l6 -2h2l6 2l4 2v6l6 -2l6 4h4l4 4l-2 2l4 2l-2 4v6l4 6l2 4l2 6v4l2 4l2 6h2v4v6l6 2l4 -4h4h2l2 2v6l2 4v4l2 4h4h2l4 6l2 2l2 2l2 6l2 2v6v2v4l6 4l16 -10v2v4v2l-2 2v2l-4 2v2h-4l-4 2l-2 2v-2l-2 -4h-4l-2 -2 v-4h-6h-4l-2 2l-4 -8h-4h-2l-2 -2l-2 -4l-2 -4l-2 -2l-6 -6l-4 26l-38 -6zM1772 926l-2 2l-2 -2l-6 2l4 -2l2 -2l4 -2v-2h2v2h2l-2 2zM1790 898h-2l4 -4l-2 2v2zM1534 776l-44 -8h-16l-32 -6l14 -42l14 -52l2 -2v-4l2 -2l2 -6l4 -4l2 -6v-4h2l2 -6l-4 -2l-2 -2v-6v-4l-2 -4 l2 -6l4 -4v-4v-4v-2v-8v-2l2 -2l4 -6v-2l4 -6v-2l2 -2l104 8l6 -4l2 -6l2 2v6v2l-2 2v4v6h2l4 2l4 -2l8 -2h2h2v2l-2 2v6h-2l2 4l-2 2h2h-2l2 8l4 -2l2 4h-2h-2l-8 4l6 2h4v4l2 -2v2l-4 4l4 2l-4 8l4 -2l-2 2l6 2l-2 2v8l6 -2v2l4 2h-2l-2 2h-6l-4 4v4v2l-2 4l-2 2l-2 2 l-4 2l-4 4v4v2l-2 2l-4 6v2l-4 4h-4l-4 4l-4 2v2l-2 2l-2 4v2h-2l-4 4h-4l-2 4l-2 2l-2 4l-6 2l-8 4l-8 12v2l-4 4v2l-4 2h-4l-6 4h-2l-4 4l-2 4v4zM1578 1122l-16 -8l-10 -6l-2 -4l-4 -4l-6 -6l-6 -2l-4 2l-6 -4l-2 -2h-4l-2 -4l-6 2l-2 2h-6l-2 -4l-8 2l4 4h-2l-4 2l-4 2 h-2l-8 2l-14 -2l-30 -6l6 -42l8 -78l4 2l2 -2h6l8 -2l2 -4l4 -6h2h6h4l6 -6l2 4h4h6l2 -2h2h2l2 4l4 2l6 2l2 -6l2 -2h4l2 -4l2 -2h2l4 2l2 2v4l2 2v4v2v4l2 2v2v4l4 4l4 -2l2 -2l2 2l-4 4l4 4v2v4l4 2v2l4 6l6 -2l6 4l4 8l2 2l2 6v2v4l-2 4h2l2 2l-2 4l2 10l2 2l-2 8l-4 4 l2 4h2l2 2zM1680 492l2 -2zM1610 424v-2l4 -2zM1624 402l4 -4l2 -2v2l-8 6zM1614 584l-2 -2v-2v-2l2 -4v-2v-8l-4 -4h-6l-2 8l-2 2l-106 -8l-4 4v2l-4 6l-62 -8l-38 -4h-2v-2l4 -6l2 -2l4 -4l-2 -4v-2l4 -2v-2l-2 -4l2 2l4 4v2l-2 2l6 4v-2l4 10l2 -10l4 -4v-2l2 2h4l-6 2 h12l6 6l2 -4v2h6l6 -2l2 -6l8 -2l-2 2l6 2l4 -2l8 6l-2 -10h-4l2 -2h4l2 -2h8l-6 -6h2l4 -4l2 -4v-4l2 2l6 2h2l6 4l2 -2l10 8l4 2h-2l2 4h2v2l4 4h6h4h2l8 -4h2l8 -4l4 -6l6 -2l2 -6v-2l10 -6l2 -2l2 -2l2 -2l2 -2l6 2l6 -6v-4l2 -2l4 -2v-4l2 -2v-8v-4v-2l-2 -16v-4v-6 l-2 -4l6 -4h2v4h-2l-2 2v2l-2 4v4l10 -6l2 2l6 -4v-4l-6 -10v-6l4 -6l-2 2l2 -4v-2l6 -10h10l2 -2l6 4l2 -4l-4 -2l2 -2v-8v-2l2 -2h2v4l18 14l-14 -18v-2l-2 -2l2 -2l4 -2l4 -12l4 -6h12l-6 -2h4l6 -4l2 -2l2 -2l4 -6l2 -4l4 -4l2 -2h4l6 -4l-2 -2l2 2l4 -2h2l2 2l2 2l2 2 l-8 4l12 -4l2 4l2 2l-2 6v2v2l2 4v4l2 2v2l2 6l-2 8v8v4v14l-4 10l-2 2v4l-4 4l-2 2l-6 -4l4 8l-4 6l-6 12l-10 16l-12 18l-4 10l-4 8h6l-14 18l-10 16l-6 10l-4 10l-2 4l-2 6l-2 6v2l-4 4l-4 6h-2l-10 2zM1692 324l4 2l-4 2h-2v-2zM1408 1284l-4 -2l-2 -2v-2l-4 -4l2 -4 l2 -2l2 -6h-6h-4l-2 -2l-2 -2l2 -10v-4v-2l-2 -4l-8 -10v4v-2l-2 8l2 4l-2 2v4v-2l-2 -2l-2 -6l-4 2l-2 -4v-4l-4 -2l-2 -2l2 -6v-6v-2v-4l-4 -10l-2 -2v-2v-4l4 -10l-2 -4l-2 -2v-2l8 -14l8 2l-6 -6l4 -10l2 -12v-10l-2 -10v-4l-4 -6l-2 -10l-2 -2l-2 -4h12l52 6l2 -2l32 6 l14 2l2 6l4 8v10l2 4l2 2l2 2l2 2v6l2 4l2 4l6 2l2 -4v6v2v8h2l-2 2l-2 4l-2 4l-4 14l-2 2l-2 12l-4 6l-2 2l-2 2h-2l-6 -4h-2l-4 -4v-2l-2 -6l-4 -2v-4l-4 -4l-4 2h-4l-4 4l-2 6l2 8l4 2l2 2l2 2l2 6v4l4 2l2 2l-2 10l2 6l-2 6l-2 2l-2 2l-2 4v6h4l-2 2l-2 4l-2 2h-2h-2 l-4 2l-6 2l-4 2h-2h-4l-2 4l-2 2h-2h-4h-2l-4 2h-4v2zM1270 1336l-6 -6l-2 -2l-6 -4l-2 -2l-4 -2l-4 -2h-4l-2 -2h-4h-2l-6 -8l-8 -4h2l2 -4l4 -4l32 -6l10 -4l6 -2l4 2l4 -2l8 -2l4 -2v-4h2l6 -2l4 -4v-2v-2v-8l-2 -2h2h6l-2 -8v-2h2l2 6l4 8l2 6l2 4l2 2l2 8l2 4l4 -2v-2 v-4l2 2v2l4 2l4 2h6l-2 -4l4 2v2l2 4l4 2h4h2l6 2h2l2 2l4 4l6 2l4 -2l4 2l6 -4l6 -4v2l2 6h4l4 -2l2 2h14v0l-4 2v2h-2l-4 4v4l-2 2v4l-2 2h-2v-4l-6 -2l-2 2l-6 -2l-6 2l-2 4l-2 10l-2 -2h-4l-6 -4l-2 -2h-12h-4l-4 -2l-4 -2l-6 -4l-4 -8l-4 2h-4h-4l-2 2l-6 -2h-4l-4 2 l-2 4l-6 6l-2 2h-2l-2 4h-4h-4l-2 -2l-4 -2l-6 -4l-2 -2l-2 6v6l-4 6zM1438 762l-42 -4l-54 -4l4 -2l-2 -148l8 -70h2h6h2v8v4l2 2l-2 10l6 -8h2l2 -6v-2v-4v-2h2l2 2l4 -6v-2h2v2l-2 4l6 -2l2 2l2 4l-2 4l2 4l-2 2h-4l-6 8l2 6l4 2l38 4l62 8l-2 4l-2 2v4v8v2v4v2l-4 4 l-2 6l2 8v2v6l4 4l2 2l-2 2h-2v6l-2 4l-4 4l-2 6l-2 4v2l-2 2l-14 52zM1426 1090l-48 -6l-20 -2l-6 -4l-6 -2l-4 -2l-6 2l10 -110l-2 -4l2 -2l-2 -4v-2l2 -4l2 -2v-4l2 -6v-6h-2l-2 -4l-2 -4l-4 -8l-2 -2l-2 -2v-2l-2 -10v-2l8 -2l4 2v0l2 2v-2l4 2h4l10 -4h2v2l2 4h4l4 4 l2 -4h4v-2v2l2 2v4l4 4h2l-4 8l10 -4l2 -6h2h6l2 2l-2 4l4 8h4h2v8l4 2l2 2v2v4l-2 4l6 2h4l2 -2l6 4l6 2l-4 4l2 4l-2 4v2l-8 80l-6 42zM1334 896v-2v-2h2zM1450 964h-4l2 -4l-2 -2l4 -4l-2 -6l-6 -2l-8 -4l-4 2h-2v-2v-4v-4l-4 -4l-2 -2v-6l-6 -2h-2l-2 -4l2 -4l-2 -4 l-4 -4l-8 2l-4 2v2l-4 -2l-2 -2l2 -2l-4 -4v-6l-6 4h-4v2h-2l-2 -2l-2 -2l-4 -6l-4 4l-8 2h-4v-4l-8 -2v2h-4l-2 -6l-4 2v-4l-2 -2v-2l2 -4l-2 -4l-6 -2l-4 -2h-2v-2v-2l2 -4l2 -4l-4 -6l-6 2l-2 2h-6l-2 2h-2h-2l-4 -6l2 -2v-4v-4v-4l-2 -2l2 -2l-2 -6l40 2v2l-2 8h10l2 -2 l16 2l16 2l18 2l20 2l18 2l10 2h18l12 2l12 2h14l4 2l6 4h2l4 2l6 2v4l4 2l4 2v2l2 4l2 2v4l4 4l10 8l10 10h-4l-6 4l-8 10l-2 2l-2 4l-6 6l2 8v2l-2 2v2l-2 2l-2 2h-4l-4 4v4l-2 -2l-4 -2l-2 -4h-2l-4 -2l-4 4h-4l-2 -2l-6 -2l-6 6h-2h-6h-4l-6 6v4l-6 2h-6h-2zM1288 824h4 l-2 2zM1280 822h4l-2 4zM1578 860h-2l-12 -2l-42 -6h-6l-12 -2l-4 -2h-14l-12 -2l-12 -2h-16l-10 -2l-20 -2l-18 -2l-20 -2l-16 -2l-16 -2l-4 2h-2v-4v-6l-54 -4l-2 -2l2 -4h-4l2 -4l-4 -2l2 -2l-2 -4l-2 -4l2 -2v-4l-2 -2l2 -2l-6 -4l-2 -2l2 -4l-4 -2l-2 -2l2 -2l-4 -8v0 l2 -10l-2 -2h-2l-2 -2l48 4l28 2l-2 2l60 4l44 4l34 6h14v12l6 2l2 2l2 4v4l4 4l6 4h6h2l10 8l6 6h2l2 2v8l4 -2v2l2 2l4 2l4 -2l2 2l2 2l4 4l6 2l2 -2l2 2l2 8l4 2l2 2v4v4h2zM1338 752l-26 -2l-52 -4l2 -4l-6 -4h-2v-6h2l-6 -4h2l-2 -6v-2l-2 -4l-2 -2h-2v-2l-2 -2l-2 -4 v0v0h-2v-2l2 -4l-6 -4v-4v-2v-4l2 -2l-6 -4v-2l-2 -2v0l4 -4l4 4l-4 -10v-2h2v-8v-2h-2v-4l2 -2l2 -6l-4 -2l6 -4l-4 -4l8 2l-4 -6l4 -6h-2v-2h4v-2v-4h-4l-2 -2l-2 -2l8 2l-6 -8v-2l-8 -10h-2l2 -2l-4 -6v-2l-2 -4l-2 -2l2 -6l-2 -2v-4h-4l2 -2l-2 -4l4 -4h-2l36 2l40 4v-4 v-4l-2 -6v-4v-2l2 -4l4 -4l2 -2l2 -4l-2 -2l2 -2l2 -2h2v4l4 2h-4l14 4l2 2h4v2h6h2l4 -2h-2h2h2v2l6 -2h2v2l-10 70l2 146h-2zM1318 1114l-42 -4l-52 -2l6 -6l2 -4l2 -2l4 -2l2 -2l2 -4l-2 -12l-4 -4v-8l-4 -4l-6 -2l-4 -2l-10 -2v-2l-2 -4l6 -6v-8l-4 -6v-2v-4l-2 -4 l-8 -4v-2v-2v-4l-2 -2l-2 -4v-2v-6l2 -4v-2l2 -6l2 -4v-2l4 -4l4 -2l4 -2v-4l8 -4l4 -2l2 -4l2 -14l2 -2v2l2 2h4h4h2l8 -6v-2l-2 -4v-6l-2 -4l-2 -6l-2 -2v-4v-2l6 -4l8 -6h2l2 -4v2l8 -4l2 -4l2 -2l4 -2v-6l4 -8v-4l-2 -2l4 -6l2 -4l4 2v0l4 8h4h6l2 -2l6 -2h2l2 -2l2 2 l-2 2l-2 4v4v4l4 2l4 2l6 2l-2 4v4l2 2v4l-2 4l2 2v8h2v4v6l4 2l2 4l4 6v2l4 8v2l-2 6v2l-2 2l-2 6v4v2v4l2 4l-10 112l-4 4v4l-2 2v4l-4 4l-4 6v4v6zM1198 1320l-2 -2l-2 -2l-4 -2h-4l-6 -4l-12 -4l-4 -2l-4 2l-2 2l-2 -4v-24v-4l-2 -4l-8 -2l-4 -4l-2 -2l-2 -4l-2 -2v-2 l2 -2h4l4 -8l-4 -10v-6v-2l2 -6l-2 -6v-2l4 -4l2 -2l4 -2h6l2 -4l2 -2h4l6 -4l4 -6l4 -6l4 -2h2l4 -2l4 -4l2 -4l2 -8v-4v-2l2 -2v-2v-2v-2h2l4 -6l-4 -6l2 -4v-4l2 -4v-4l2 -2h2l10 -2l2 -6l54 2l42 4v6v2v2v4l-2 2v4l-4 2l2 4l-2 6v8l2 6v2v4l2 4v2l-2 6v4l2 6l2 4l2 2 l-2 8l2 4v6l4 8v2l-2 2v2l-2 -2h-4v-2l-2 -4l-2 -4l-2 -2l-2 -4h-6l-2 6l2 4l2 6l2 4v4h4l2 2v2v2l-4 2v4l2 4h-2l-4 -2l-2 6l2 4v4l-2 4v2l-4 2h-6v6l-2 2h-8l-2 2l-2 -2l-6 2l-2 -2l-12 6l-32 6l-4 6l-2 2l-4 2h-2l-4 2l-4 2h-2l-2 -2h-8l2 4l2 4v2l2 4v2h-2zM1226 648 l-62 -4l-46 -2v-46l6 -4l2 -4l2 -6v-4l2 -4l2 -2l2 -4v-4l4 -4l2 -2v-4l2 -4l-2 -2v-2v-4v-2l-2 -4v-4l-2 -2l-2 -4v-6v-2v-4l2 -8l-2 -4l-2 -2l2 -4l-2 -4l-4 -2l2 -2l2 2l12 2l-2 2l4 2l2 12l6 -6v-4v-4l-2 -2h4l6 -2l6 -2l4 -2l4 -2l16 -2h2l4 4l-6 6h8v2l4 2l10 2l-2 -6 v2h10v-4l4 -2v-4h2l4 -2l2 4h4l2 -4h-2v-2l2 -2l2 -2l4 -4l-2 -2h4l6 -4l2 2h2l2 -2h2v4v4l4 2l8 2v-4h2h6v-6v-2v2l2 2h2l-4 4l4 2v4l-6 2l-2 6l2 2l12 -6h4l4 -2l2 -2v-2l2 2l2 -4h2h6v-4l2 -2v8h-2h-4l-2 4l-4 2h-4l-2 6l4 2l-2 2l4 2v2l4 4h4v2l-4 2v4l-2 -2v-2l-2 -4 h-4l-2 2h-2l-4 2l-2 4l4 2l-2 2l-2 -2l-4 -2l-8 -2h-6l-4 4l-2 4l4 4l4 6l4 2h6l4 -2l2 -4h2h2l2 2l2 -2l2 -2v0l-2 4v2v2l-2 2l-4 4l-2 4l-2 4l2 6l2 6l-36 -2l-46 -2l6 6l-2 2l2 2l-4 6l6 2l-4 4h4v6l2 2h-6l8 4v4h2l-2 2l2 4l4 2l6 6l-10 4h10l-4 2l2 6h4l2 2l-2 4h-2 l-2 6v2h-2l-2 4l4 4h-2l-2 6l4 2v2l-8 -6zM1322 476l-4 2l2 -8l2 2l2 -4l2 2v2l-2 4h-2zM1256 818l-70 -4l-60 -2l-36 -2l6 -38l2 -14v-82l2 -2l2 -2l2 2l12 -2v-26l48 2l64 4v2l-2 4h4v2l-2 2v4v2h-2l-8 -6l6 12l-2 4l4 2l-4 4l4 2v4h4v2v2l-4 4l8 4v6l-4 6l8 -2l2 2v4h4 l2 2v2l2 4l-2 2v16v8l2 -6v4l6 -8h2v2v2h-2l2 4l4 2v2l4 2l-2 8h-4l2 6l4 2l-2 2l4 2l2 4l-2 2v2l4 2l2 2h2l-2 4l4 2v2l-24 -2l-2 4l2 4l4 4l2 2l2 2v2v2l-2 4h-2zM1186 1014l-22 -2l-56 -4h-26h-38l2 -4l2 -6l2 -2l4 -2v-4l4 -2l-2 -4l10 -8l4 2h4l2 -6v-4v-2h-4v-2l-4 -4 l2 -2l2 -2l4 -4v-4l4 -4l2 -2l4 -2l4 -126l36 2l60 2l70 4l4 -2l4 -4v-4v-4l-4 -4h-2l-2 -4l-2 -2h2l18 2l2 4l2 2l-4 2l4 4l-2 4l4 2l-2 4l4 8l2 -4l2 2l4 2h2l-2 4l4 4v2v4v2h-4l-2 -2l-6 8l-4 8l2 4v2l-4 6v6h-2l-4 4l-2 2l-4 2l-4 -2v6h-2l-10 6l-6 6v4v4l2 4l2 4l2 6v4 l2 4l-6 4h-2h-2l-2 -2l-6 -2l-4 4l-2 14l-2 2l-2 2l-8 6l-2 2l-4 2l-2 4l-4 4l-2 2l-2 4l-2 6v2l-2 6v6l2 4v2l-2 4l-8 4v2zM1194 1154l-32 -2l-50 -2l-60 -2h-38v-2l2 -2l-2 -6v0l4 -4v-4l-2 -4v-2l-2 -8h-2v-2v-2l4 -2v-6h4v-6v-2l2 -2v-4v-2l2 -4v-2l6 -6v-4l2 -2v-4v-4 v-2v-2h2v-4l4 -2l-2 -4l2 -4v-2l2 -4v-4v-4l2 -6l-2 -8l2 -2l2 -2h38h26l54 4l26 2l2 -4l6 -4l2 -2v2l-2 4l4 4l6 4l2 2v2v4l4 4v6l-6 6l2 8v4l12 2l4 2l6 2l2 2v6l4 6l2 8l-2 4l-2 2l-2 2l-4 2l-2 4l-4 4l-4 4v2l-2 4l-8 2l-4 2l-2 4v2l-2 4v6l-2 4l2 6v2l-2 2l-2 4h-2v2z M1058 1428v-12l-2 -4l-26 -2h-38v-2l2 -8l2 -4l-2 -6v-4v-4v-2v-6l2 -2l2 -10v-2l4 -10l2 -6v-4v-2v-4v-6v-6v-4l2 -4v-4v-10l2 -2v-4v-2l4 -6v-4v-2l2 -8v-2v-4l-2 -6l-2 -4l-4 -2l-2 -2v-2l2 -2l2 -4l4 -2l2 -2l4 -4v-84h34l60 2l50 2l32 2v2v2l-2 8l-2 4l-2 2l-4 2l-2 2 l-4 2l-6 4l-4 8l-4 2l-4 2l-4 2l-2 2l-4 2h-4l-4 4l-6 4l2 4v6v6v4v6l4 8l-4 4h-2l-4 4v4l4 4v2l2 4l6 6l6 2l2 2v2l-2 28h4l2 2v2l2 2l10 8l2 2l2 2l4 4l8 8l2 6l12 12l10 4l6 4h4l12 8h2h-2h-4l-4 2l-2 2h-6h-2h-6l-4 -2h-4l-2 4l-2 2v0l-6 -4l-4 -2l-6 -4h-6l-6 4v2l-8 4 l-2 4h-2h-2l-2 -6l-6 2l-2 4v2l-2 2l-6 -2l2 6l-10 4h-8h-2l-2 -2l-2 -2l-10 -2l-4 2l-2 2l-12 2l-2 2h-6l-4 2l-4 2v6l-2 8l-2 10l-2 2h-4zM1762 794l-4 -2l-2 -4l-2 -4l2 4zM816 984l-8 -142l60 -2l86 -2h86h46l-4 100l-2 2h-2l-6 8v2l-4 2l-2 4l-2 4l4 6l2 4h2v2l-2 2 l-4 -2l-8 6h-62h-46l-90 4zM990 680h2v4zM772 840l-2 -20l50 -2l40 -2h16l4 -2l4 -2l-2 -90l4 -4l6 -4l2 -2l2 2l4 -2h2l2 6l2 -4l4 -2l2 -4v-4h4v-2l4 2l2 -2l6 -2h2h6l2 -2v-2h2l4 4l6 -2l6 2v-6v-2h4l2 -4v-2h2l6 6l6 -2v-2h4v-4h2l4 2h6v-2l4 2v2l2 2l4 -2l4 -2l4 2 l4 -2l2 -2l2 -2l4 -2h2h4l4 4l2 2l4 2l4 -2h2l2 2l8 2l4 -4h2h2l2 4h6l8 -4l4 -4l4 -2l2 -2l6 -2v82l-2 14l-6 40v22h-46h-86l-86 2l-62 2zM774 1418l-10 -140l58 -4l66 -4h62l60 -2v2v2l-2 6v4v2l-4 6v4v2l-2 4v12v2l-2 2v6v6v6v4v2v4l-2 6l-4 10v2l-2 8l-2 4v6v2v4v4l2 6 l-2 2l-2 10v2h-26l-64 2l-76 4zM764 1274l-2 -42l-2 -2l-6 -94l34 -2l60 -4l58 -2h40l4 -4l12 -6h2l2 4l8 -2l14 2l4 -4l4 -2l4 -2l2 2l4 -4l2 -2v4l2 4v2l2 4v4l2 2v2l-4 2v6l2 2l-2 4l-2 6h6v84l-2 2h-2l-4 2l-4 6l-2 4v4l4 4h2l2 4l2 2h-60l-62 2l-66 4zM1012 1106v2 l-2 2v-4h2zM752 1132l-6 -92l32 -2l36 -2l4 -2l-2 -46l44 -2l90 -4h46l56 2v2l-2 2v4l-2 2l-4 4l-2 4l-2 4v4v2l-4 2l2 10l-2 6v4v4l-2 2v4l-2 4l2 2l-4 2v2h-4l2 2v4v2v4v2l-2 4v2l-6 6v2l-2 4v4v2l-2 4v2v2h-2l-4 2l-2 2l-2 4h-4l-2 2h-2l-2 2h-2l-2 2l-6 4l-12 -2h-6 l-2 -2l-4 -2l-14 8l-4 4h-38l-58 2l-60 4zM768 816v-2l-8 -116l-4 -44l-2 -50l-4 -4h-2l-36 2l-76 6l-28 4l2 -4l2 -4l2 -2h2l2 -2l2 -4l2 -4l2 -4l2 -2l6 -4l4 -2l6 -10l6 -6v-2l6 -6l2 -2l4 -2l6 -6h4v-4l2 -2l2 -4v-4l2 -2l4 -6v-4v-4v-2v-6l6 -14l4 -4l4 -2l2 -2l2 -2 l8 -6l2 -2l6 -2l2 -4l8 -4l4 -2l2 -2h4v-2h2h2l2 2l2 2l2 4h4v2v4l2 2l6 12l2 4l2 2h4l4 2h2h2l2 4h6l4 -4h2h4h4h2l8 -2l4 2l4 -2l4 -4v-2l4 -4h2l2 -4l2 -2l4 -2v-2l10 -8l2 -6l4 -2l2 -8l2 -8l2 -4l2 -2l2 -2l2 -6v-6l4 -6l2 -2h4l2 -6l2 -2l2 -2l2 -4v-4l6 -6l6 -2l2 -2 l2 -4v-2v-4v-4v-2l2 -2v-4v-2v-2l2 -4l4 -6l2 -2l2 -8l2 -6l2 -2v-4h6l4 -2h2l4 -2l2 -2v-2l2 2l4 -2h4l6 -6l2 -2h12h8l2 -2h4l6 -6l4 -2v2l4 2l-4 6h2v6l-6 10v4l-2 10l-4 4v4v2l2 4h2v2l2 4v2h-4h-2l-6 -2l2 4h-2v4v2l-6 10l10 -8l2 -2h2l2 2l4 -2l4 14l-2 2l-2 4h-2 l-6 4l8 2h8l2 -2l2 4l-4 4l2 4l-2 4h6l4 2l2 -2l4 12v-12l2 2v2l-2 4l2 4v0v0l2 2l4 -6h2l6 4l-6 -2l2 4v2l-6 10h8l2 -2l2 -4l-2 6l4 2l2 -4h2l4 2l2 -4h4l4 2l8 4h6l6 4l4 2l2 2l6 6v4l6 4l2 4l2 2h2l-4 2v4l-2 2v4l-2 4l4 4l4 -2v2l4 2l6 -2v-6l-2 -2h4h10l2 2l10 4h6 l-4 4l6 8l2 4l2 2l2 2l-2 8l-2 4l2 4v6l2 4l2 2v4l2 2v4v2v2v4v2v2l-6 8v2v2l-2 2l-2 2l-2 4v6l-2 4l-2 4l-6 4l-2 74l-8 2l-4 -2l-4 4l-8 2l-4 2l-4 2l-6 4l-6 4l-2 -2l-4 -2h-4h-2l-2 4l-6 -2l-2 -2h-6h-2h-2l-2 -2l-4 -4h-4l-2 -4l-4 4l-2 2l-4 2l-2 2h-2l-2 -2l-6 2 l-2 4v-2l-4 -2l-2 -6h-4h-2l-2 4v2l-4 -2h-4l-2 4h-2l-2 2l-2 2l-4 -6h-4h-4v6h-4l-2 6v0l-6 2l-4 -4h-4l-4 2v2h-2h-4l-6 2l-4 2l-2 -2l-2 2h-4l-2 4v2l-2 2l-2 2v-2h-4l-4 2l-2 -2l-4 2l-6 6l-2 2h-4v8l2 84h-2l-2 2h-16l-40 2zM566 1054l-24 -188l62 -8l56 -6l66 -4 l78 -6l10 188l-2 2l-34 2l-34 2l-56 4l-30 4l-60 6zM542 862l-34 -268l30 -4v2l2 14l2 6l64 -8v2l-2 6v4l34 -4l74 -6l36 -2l2 2l2 48l4 44l8 122h2l2 20l-42 4l-68 4l-54 6zM524 1254l-2 -2l-2 -20l-24 -164l70 -10l34 -4l58 -6l30 -4l54 -4l8 94l6 94l-44 4l-66 6l-60 8z M394 1470l-10 -44l6 -10l2 -6v-4v-4l2 -4h-2l2 -4l2 -2l4 -4l2 -2l2 -4v-4l4 -6l4 -2l-2 -2v-2l4 -4v-2h4v-4h2h4l4 -2l-4 -12l-2 -6l-2 -4l-2 -2v-2v-4l2 -2l-2 -8h-4v-2v-4l-2 -4h2l2 -4h2l14 8l2 -6l2 -2v-8l2 -8l2 -4l2 -4l2 -4v-4l-2 -4v-2h2h2l6 -4l2 -6l-2 -4l2 -2 v-4l2 -2v2l4 2l8 -2l2 -2h2l4 4h2l8 -2h6l2 -2l2 2l4 -2l8 8l4 -2l2 -6l2 -2l4 18l4 2l62 -8l60 -8l66 -6l44 -4l2 2l2 42l10 142l-22 2l-60 6l-50 6l-46 6l-72 10l-82 14zM398 1128l-42 -234l32 -6l52 -8l48 -8l50 -6l24 188l-72 10l8 48l-40 6l-50 8zM362 1476l-22 -106 l-2 -10l-2 -4l2 -6v-8v-4v-4l2 -2v-2l8 -6v-8l-2 -2l-6 -8l-6 -10l-4 -6l-2 -2l-2 -4l-2 -4l-4 -2l-4 -6l-4 -4v-8h2l4 -4l2 -4l-2 -4l-2 -4l-2 -6l-2 -2l-18 -84l54 -10l62 -12l50 -8l38 -6l18 116l-4 2v4l-2 4l-2 2l-4 -6v-4l-8 2h-2l-4 2h-6l-6 2l-4 -4h-4l-4 2l-4 2 l-2 -2v-2l-4 -2l-4 4l-2 4v2l-2 4l2 4l-2 4l-2 2l-4 -2l-4 6v4l2 4v2l-2 2l-2 4l-2 6l-2 8v6l-2 2v2l-12 -6l-4 -2l-2 6l-6 2l2 6l2 2l-2 2l4 4l2 2v4l-2 2l2 4v4l2 2l2 4l2 6l4 8h-2h-4l-4 2v2h-2l-2 4l-4 2v6l-2 2l-4 8v2l-2 4l-2 2l-4 2l-2 4l-6 8h4l-2 2l2 4v2l-2 6v2 l-6 10l10 46zM488 868l-50 8l-50 8l-34 6l-6 -36l-4 -4l-4 -6l-6 2v4l-2 2h-4l-2 2h-2l-4 -2v-2l2 -8l-2 -2v-4v-6v-4l-2 -2l2 -6v-8l-4 -4v-6l-2 -2l2 -2l2 -8l2 -4v-2l2 -4v-4l4 -4l4 -6l-4 -4l-10 -6l-2 -2l-2 -2l-2 -4v-6l-2 -4l-2 -4l-6 -8h-2l-2 -2l2 -4v-4l-2 -2v-2 h2l4 -2l2 -4v-8l-4 -2l-2 -4l-6 2v0l-4 -6h-2l8 -6l80 -46l52 -28l60 -10l18 -2l34 268zM190 1172l-26 -106l-8 -32l112 -162l44 -66v2l4 4v6l-2 6l2 4v4v4v6l2 2l-2 6l2 4l4 4h4l4 -2h4l4 -4v-2l4 2l2 4l6 36l44 238l-46 8l-56 10l-44 10zM170 1450h-6v-2l4 2h2zM164 1460 l-4 -2l-4 -6v2l8 -2v0h6v2l-4 -2v6l-2 -4v6zM168 1462v-2h2zM174 1468l-2 -2h2v2zM180 1494l-4 -4l-2 -2v-4l2 -4v-2l2 -4l2 -2v-2l4 2l-2 2l-2 4h-2v6l-2 2l2 2l4 2l-2 2v2zM166 1508l-2 -4l2 -2l2 -2l2 4l-2 4h-2zM174 1510l-2 -2l2 -4l2 4v-4l2 4zM184 1520h-2v-2l2 -4 l2 -2l4 -2l-2 -4l2 -4l-2 -6l-2 -4h-2l4 -4l-2 -4v-6l2 -4v-4l-4 -4l-2 -2v-4l-2 -2l2 -2l-4 -4l2 -6l-6 -4l-4 -2l-2 -2l-4 -4h-4h-2v2v0l-2 -6l-6 6l2 2l-12 4h12l2 4l4 2h-6v0l-4 4l4 4l6 6l2 2l8 10l-4 6l-4 -2v8h-2l-4 -2l-4 4h-6l-2 2l-6 2l-6 4l-2 2l-2 2l-4 2l-4 6 v-2h-2v-4l-2 -2v-2l-2 -4v-2l2 -2l2 -4l2 -6v-4l-2 -12l2 -8l-2 -10l4 -2l2 -2l10 -4l-12 -2l-6 -2v-2h2l6 -2l2 -8h-4l-2 2v-4l-2 -2l2 -4l-2 -4h4l2 -4h4l2 -2h2v-4l2 -2h2h4l2 -4l4 -2l2 -8l-2 -16l4 -2l4 -2h2l2 -2h2h6h2l4 2h4h4l4 -2h4l4 -2l4 -2v-2h4l4 -2l8 2h4 l4 -4h2h2l6 2h8h8l4 2h2h8l4 -2h2l2 2l32 -8l36 -6v8l-2 8l2 2l2 10l22 108l-28 6l-56 12l-48 12zM114 1408h2l-4 6h-2v-2h2zM308 754h2l2 4l10 6l2 2l-8 8l2 4l-2 2v4l-2 4l-4 6v4l2 2l-48 70l-112 164l8 32l26 106l-62 16l-78 22l-2 -6v-2l2 -2v-4v-6v-2l-2 -6l-6 -12v-2 l-2 -6l-2 -2v-2v-2l-4 -2l-4 -2v-2l-4 -4l-2 -6v-4v-2l6 -10v-2l2 -4l2 -10v-2l2 -4l-2 -4v-4l-2 -2l-2 -6v-12v-6l-2 -2l2 -6l2 -6l4 -8l2 -4l4 -2v-4l2 -4v-2l2 -6l2 -6h-4l4 -4v-4h4l2 -4v-2v2l2 4v2l2 4l4 2l6 -4l2 -2v-2l4 2h4l2 -4h4l10 8l-4 -8h2v0l2 -4l4 -4v-8 l-8 12l-6 -2h-2h-4l2 2l-6 2h-4l-2 2l-4 -2h-2l2 -4v-2v-2l2 -2l2 -6v-6l4 -6h-8l-4 4l-2 4l-4 2l2 6v2v2v-2l-2 -2l-2 -6l2 -2v-8v-4h-2v-2l2 -4l4 -8l2 -2h8l2 -8v-10h-2l-2 -2l-4 -2v-6l-2 -4l2 -4l4 -6l2 -6l2 -2l2 -8l2 -6v-2l2 -2l4 -4l2 -6l6 -6v-6l-2 -2v-2v-2h4 l4 -4l-2 -6l-2 -4v-6l-2 -2v-4l-2 -4h2l2 -4l2 -2l10 -2l2 -2h4l6 -4h2l6 -2l6 -4l2 -4l4 -2v-6l8 -6l4 -2l14 -2v-2l4 -8v-2l-2 -4v-2h2v2h6l4 -4l2 -4l2 -4l4 -2l10 -14l4 -6l2 -6v-8v-6l-2 -6l4 -2l-2 -4l2 -2l94 -10h4h2v2l4 2v2v2l-4 2l-4 2v4l2 4v2l-2 4l2 4l4 2l4 6 l2 4l2 2v6zM112 1402v-2l-2 -6l-2 -2l-2 -4v-2v-2l2 -4l-4 -4v-2l4 -6l-6 2v-2l-2 -2v-4l-2 -2v-4l-4 -4v-4l-6 -8v-6l-2 -6v-4v-2l-4 -2v-2l-2 -6l-6 -16l-2 -2h2v-6h-4l-2 -2l-2 -4v-2h2l-4 -10l-2 6l-4 -8v4l-4 -10l-6 -6v-6l2 -6l-2 -4l-2 -4v-2l-2 -4v-12l2 -4h2 l76 -22l66 -16l60 -14l40 -8l18 84l2 2l2 6l2 4l2 2l-2 2l-2 2h-4l-2 4l4 10l2 4l4 6l6 4l2 2l2 2v4l6 6l4 10l8 8v2v4l-6 6l-2 2l-2 4v2l-38 8l-28 8l-4 -2h-4l-4 2h-6h-2l-2 -2h-10h-6l-6 -2h-4l-4 2l-4 2h-2l-10 -2l-2 2h-8v4h-2l-4 2l-2 2h-6h-2h-2l-4 -2h-4h-6h-4l-2 2 h-2l-4 2l-4 2l-2 4l2 16l-2 4l-4 4v2h-2h-2l-6 2l-2 2l-2 2h-2h-2l2 -4l-8 4v2z" />
<glyph unicode="&#x9;" d="M1786 1830q102 -102 159 -236t57 -284v-528q0 -292 -200 -504q-94 -100 -220 -160t-268 -70v140v138q174 18 290 148q120 132 120 308v528q0 190 -135 324t-323 134h-986v-986q0 -176 118 -308q118 -130 290 -148v-138v-140q-140 10 -266 70t-220 160q-200 212 -200 504 v1264h1264q148 0 283 -57t237 -159zM1001 1006q69 0 118 49t49 118t-49 118t-118 49t-118 -49t-49 -118t49 -118t118 -49zM862 868v-410v-410h140h138v410v410h-138h-140z" />
<glyph unicode="&#xd;" />
<glyph unicode=" " d="M1786 1830q102 -102 159 -236t57 -284v-528q0 -292 -200 -504q-94 -100 -220 -160t-268 -70v140v138q174 18 290 148q120 132 120 308v528q0 190 -135 324t-323 134h-986v-986q0 -176 118 -308q118 -130 290 -148v-138v-140q-140 10 -266 70t-220 160q-200 212 -200 504 v1264h1264q148 0 283 -57t237 -159zM1001 1006q69 0 118 49t49 118t-49 118t-118 49t-118 -49t-49 -118t49 -118t118 -49zM862 868v-410v-410h140h138v410v410h-138h-140z" />
<glyph unicode="!" d="M1786 1830q102 -102 159 -236t57 -284v-528q0 -292 -200 -504q-94 -100 -220 -160t-268 -70v140v138q174 18 290 148q120 132 120 308v528q0 190 -135 324t-323 134h-986v-986q0 -176 118 -308q118 -130 290 -148v-138v-140q-140 10 -266 70t-220 160q-200 212 -200 504 v1264h1264q148 0 283 -57t237 -159zM1001 1006q69 0 118 49t49 118t-49 118t-118 49t-118 -49t-49 -118t49 -118t118 -49zM862 868v-410v-410h140h138v410v410h-138h-140z" />
<glyph unicode="&#x22;" d="M1786 1830q102 -102 159 -236t57 -284v-528q0 -292 -200 -504q-94 -100 -220 -160t-268 -70v140v138q174 18 290 148q120 132 120 308v528q0 190 -135 324t-323 134h-986v-986q0 -176 118 -308q118 -130 290 -148v-138v-140q-140 10 -266 70t-220 160q-200 212 -200 504 v1264h1264q148 0 283 -57t237 -159zM1001 1006q69 0 118 49t49 118t-49 118t-118 49t-118 -49t-49 -118t49 -118t118 -49zM862 868v-410v-410h140h138v410v410h-138h-140z" />
<glyph unicode="#" d="M1786 1830q102 -102 159 -236t57 -284v-528q0 -292 -200 -504q-94 -100 -220 -160t-268 -70v140v138q174 18 290 148q120 132 120 308v528q0 190 -135 324t-323 134h-986v-986q0 -176 118 -308q118 -130 290 -148v-138v-140q-140 10 -266 70t-220 160q-200 212 -200 504 v1264h1264q148 0 283 -57t237 -159zM1001 1006q69 0 118 49t49 118t-49 118t-118 49t-118 -49t-49 -118t49 -118t118 -49zM862 868v-410v-410h140h138v410v410h-138h-140z" />
<glyph unicode="$" d="M1786 1830q102 -102 159 -236t57 -284v-528q0 -292 -200 -504q-94 -100 -220 -160t-268 -70v140v138q174 18 290 148q120 132 120 308v528q0 190 -135 324t-323 134h-986v-986q0 -176 118 -308q118 -130 290 -148v-138v-140q-140 10 -266 70t-220 160q-200 212 -200 504 v1264h1264q148 0 283 -57t237 -159zM1001 1006q69 0 118 49t49 118t-49 118t-118 49t-118 -49t-49 -118t49 -118t118 -49zM862 868v-410v-410h140h138v410v410h-138h-140z" />
<glyph unicode="%" d="M1786 1830q102 -102 159 -236t57 -284v-528q0 -292 -200 -504q-94 -100 -220 -160t-268 -70v140v138q174 18 290 148q120 132 120 308v528q0 190 -135 324t-323 134h-986v-986q0 -176 118 -308q118 -130 290 -148v-138v-140q-140 10 -266 70t-220 160q-200 212 -200 504 v1264h1264q148 0 283 -57t237 -159zM1001 1006q69 0 118 49t49 118t-49 118t-118 49t-118 -49t-49 -118t49 -118t118 -49zM862 868v-410v-410h140h138v410v410h-138h-140z" />
<glyph unicode="&#x26;" d="M1786 1830q102 -102 159 -236t57 -284v-528q0 -292 -200 -504q-94 -100 -220 -160t-268 -70v140v138q174 18 290 148q120 132 120 308v528q0 190 -135 324t-323 134h-986v-986q0 -176 118 -308q118 -130 290 -148v-138v-140q-140 10 -266 70t-220 160q-200 212 -200 504 v1264h1264q148 0 283 -57t237 -159zM1001 1006q69 0 118 49t49 118t-49 118t-118 49t-118 -49t-49 -118t49 -118t118 -49zM862 868v-410v-410h140h138v410v410h-138h-140z" />
<glyph unicode="'" d="M1786 1830q102 -102 159 -236t57 -284v-528q0 -292 -200 -504q-94 -100 -220 -160t-268 -70v140v138q174 18 290 148q120 132 120 308v528q0 190 -135 324t-323 134h-986v-986q0 -176 118 -308q118 -130 290 -148v-138v-140q-140 10 -266 70t-220 160q-200 212 -200 504 v1264h1264q148 0 283 -57t237 -159zM1001 1006q69 0 118 49t49 118t-49 118t-118 49t-118 -49t-49 -118t49 -118t118 -49zM862 868v-410v-410h140h138v410v410h-138h-140z" />
<glyph unicode="(" d="M1786 1830q102 -102 159 -236t57 -284v-528q0 -292 -200 -504q-94 -100 -220 -160t-268 -70v140v138q174 18 290 148q120 132 120 308v528q0 190 -135 324t-323 134h-986v-986q0 -176 118 -308q118 -130 290 -148v-138v-140q-140 10 -266 70t-220 160q-200 212 -200 504 v1264h1264q148 0 283 -57t237 -159zM1001 1006q69 0 118 49t49 118t-49 118t-118 49t-118 -49t-49 -118t49 -118t118 -49zM862 868v-410v-410h140h138v410v410h-138h-140z" />
<glyph unicode=")" d="M1786 1830q102 -102 159 -236t57 -284v-528q0 -292 -200 -504q-94 -100 -220 -160t-268 -70v140v138q174 18 290 148q120 132 120 308v528q0 190 -135 324t-323 134h-986v-986q0 -176 118 -308q118 -130 290 -148v-138v-140q-140 10 -266 70t-220 160q-200 212 -200 504 v1264h1264q148 0 283 -57t237 -159zM1001 1006q69 0 118 49t49 118t-49 118t-118 49t-118 -49t-49 -118t49 -118t118 -49zM862 868v-410v-410h140h138v410v410h-138h-140z" />
<glyph unicode="*" d="M1786 1830q102 -102 159 -236t57 -284v-528q0 -292 -200 -504q-94 -100 -220 -160t-268 -70v140v138q174 18 290 148q120 132 120 308v528q0 190 -135 324t-323 134h-986v-986q0 -176 118 -308q118 -130 290 -148v-138v-140q-140 10 -266 70t-220 160q-200 212 -200 504 v1264h1264q148 0 283 -57t237 -159zM1001 1006q69 0 118 49t49 118t-49 118t-118 49t-118 -49t-49 -118t49 -118t118 -49zM862 868v-410v-410h140h138v410v410h-138h-140z" />
<glyph unicode="+" d="M1786 1830q102 -102 159 -236t57 -284v-528q0 -292 -200 -504q-94 -100 -220 -160t-268 -70v140v138q174 18 290 148q120 132 120 308v528q0 190 -135 324t-323 134h-986v-986q0 -176 118 -308q118 -130 290 -148v-138v-140q-140 10 -266 70t-220 160q-200 212 -200 504 v1264h1264q148 0 283 -57t237 -159zM1001 1006q69 0 118 49t49 118t-49 118t-118 49t-118 -49t-49 -118t49 -118t118 -49zM862 868v-410v-410h140h138v410v410h-138h-140z" />
<glyph unicode="," d="M1786 1830q102 -102 159 -236t57 -284v-528q0 -292 -200 -504q-94 -100 -220 -160t-268 -70v140v138q174 18 290 148q120 132 120 308v528q0 190 -135 324t-323 134h-986v-986q0 -176 118 -308q118 -130 290 -148v-138v-140q-140 10 -266 70t-220 160q-200 212 -200 504 v1264h1264q148 0 283 -57t237 -159zM1001 1006q69 0 118 49t49 118t-49 118t-118 49t-118 -49t-49 -118t49 -118t118 -49zM862 868v-410v-410h140h138v410v410h-138h-140z" />
<glyph unicode="-" d="M1786 1830q102 -102 159 -236t57 -284v-528q0 -292 -200 -504q-94 -100 -220 -160t-268 -70v140v138q174 18 290 148q120 132 120 308v528q0 190 -135 324t-323 134h-986v-986q0 -176 118 -308q118 -130 290 -148v-138v-140q-140 10 -266 70t-220 160q-200 212 -200 504 v1264h1264q148 0 283 -57t237 -159zM1001 1006q69 0 118 49t49 118t-49 118t-118 49t-118 -49t-49 -118t49 -118t118 -49zM862 868v-410v-410h140h138v410v410h-138h-140z" />
<glyph unicode="." d="M1786 1830q102 -102 159 -236t57 -284v-528q0 -292 -200 -504q-94 -100 -220 -160t-268 -70v140v138q174 18 290 148q120 132 120 308v528q0 190 -135 324t-323 134h-986v-986q0 -176 118 -308q118 -130 290 -148v-138v-140q-140 10 -266 70t-220 160q-200 212 -200 504 v1264h1264q148 0 283 -57t237 -159zM1001 1006q69 0 118 49t49 118t-49 118t-118 49t-118 -49t-49 -118t49 -118t118 -49zM862 868v-410v-410h140h138v410v410h-138h-140z" />
<glyph unicode="/" d="M1786 1830q102 -102 159 -236t57 -284v-528q0 -292 -200 -504q-94 -100 -220 -160t-268 -70v140v138q174 18 290 148q120 132 120 308v528q0 190 -135 324t-323 134h-986v-986q0 -176 118 -308q118 -130 290 -148v-138v-140q-140 10 -266 70t-220 160q-200 212 -200 504 v1264h1264q148 0 283 -57t237 -159zM1001 1006q69 0 118 49t49 118t-49 118t-118 49t-118 -49t-49 -118t49 -118t118 -49zM862 868v-410v-410h140h138v410v410h-138h-140z" />
<glyph unicode="0" d="M1786 1830q102 -102 159 -236t57 -284v-528q0 -292 -200 -504q-94 -100 -220 -160t-268 -70v140v138q174 18 290 148q120 132 120 308v528q0 190 -135 324t-323 134h-986v-986q0 -176 118 -308q118 -130 290 -148v-138v-140q-140 10 -266 70t-220 160q-200 212 -200 504 v1264h1264q148 0 283 -57t237 -159zM1001 1006q69 0 118 49t49 118t-49 118t-118 49t-118 -49t-49 -118t49 -118t118 -49zM862 868v-410v-410h140h138v410v410h-138h-140z" />
<glyph unicode="1" d="M1786 1830q102 -102 159 -236t57 -284v-528q0 -292 -200 -504q-94 -100 -220 -160t-268 -70v140v138q174 18 290 148q120 132 120 308v528q0 190 -135 324t-323 134h-986v-986q0 -176 118 -308q118 -130 290 -148v-138v-140q-140 10 -266 70t-220 160q-200 212 -200 504 v1264h1264q148 0 283 -57t237 -159zM1001 1006q69 0 118 49t49 118t-49 118t-118 49t-118 -49t-49 -118t49 -118t118 -49zM862 868v-410v-410h140h138v410v410h-138h-140z" />
<glyph unicode="2" d="M1786 1830q102 -102 159 -236t57 -284v-528q0 -292 -200 -504q-94 -100 -220 -160t-268 -70v140v138q174 18 290 148q120 132 120 308v528q0 190 -135 324t-323 134h-986v-986q0 -176 118 -308q118 -130 290 -148v-138v-140q-140 10 -266 70t-220 160q-200 212 -200 504 v1264h1264q148 0 283 -57t237 -159zM1001 1006q69 0 118 49t49 118t-49 118t-118 49t-118 -49t-49 -118t49 -118t118 -49zM862 868v-410v-410h140h138v410v410h-138h-140z" />
<glyph unicode="3" d="M1786 1830q102 -102 159 -236t57 -284v-528q0 -292 -200 -504q-94 -100 -220 -160t-268 -70v140v138q174 18 290 148q120 132 120 308v528q0 190 -135 324t-323 134h-986v-986q0 -176 118 -308q118 -130 290 -148v-138v-140q-140 10 -266 70t-220 160q-200 212 -200 504 v1264h1264q148 0 283 -57t237 -159zM1001 1006q69 0 118 49t49 118t-49 118t-118 49t-118 -49t-49 -118t49 -118t118 -49zM862 868v-410v-410h140h138v410v410h-138h-140z" />
<glyph unicode="4" d="M1786 1830q102 -102 159 -236t57 -284v-528q0 -292 -200 -504q-94 -100 -220 -160t-268 -70v140v138q174 18 290 148q120 132 120 308v528q0 190 -135 324t-323 134h-986v-986q0 -176 118 -308q118 -130 290 -148v-138v-140q-140 10 -266 70t-220 160q-200 212 -200 504 v1264h1264q148 0 283 -57t237 -159zM1001 1006q69 0 118 49t49 118t-49 118t-118 49t-118 -49t-49 -118t49 -118t118 -49zM862 868v-410v-410h140h138v410v410h-138h-140z" />
<glyph unicode="5" d="M1786 1830q102 -102 159 -236t57 -284v-528q0 -292 -200 -504q-94 -100 -220 -160t-268 -70v140v138q174 18 290 148q120 132 120 308v528q0 190 -135 324t-323 134h-986v-986q0 -176 118 -308q118 -130 290 -148v-138v-140q-140 10 -266 70t-220 160q-200 212 -200 504 v1264h1264q148 0 283 -57t237 -159zM1001 1006q69 0 118 49t49 118t-49 118t-118 49t-118 -49t-49 -118t49 -118t118 -49zM862 868v-410v-410h140h138v410v410h-138h-140z" />
<glyph unicode="6" d="M1786 1830q102 -102 159 -236t57 -284v-528q0 -292 -200 -504q-94 -100 -220 -160t-268 -70v140v138q174 18 290 148q120 132 120 308v528q0 190 -135 324t-323 134h-986v-986q0 -176 118 -308q118 -130 290 -148v-138v-140q-140 10 -266 70t-220 160q-200 212 -200 504 v1264h1264q148 0 283 -57t237 -159zM1001 1006q69 0 118 49t49 118t-49 118t-118 49t-118 -49t-49 -118t49 -118t118 -49zM862 868v-410v-410h140h138v410v410h-138h-140z" />
<glyph unicode="7" d="M1786 1830q102 -102 159 -236t57 -284v-528q0 -292 -200 -504q-94 -100 -220 -160t-268 -70v140v138q174 18 290 148q120 132 120 308v528q0 190 -135 324t-323 134h-986v-986q0 -176 118 -308q118 -130 290 -148v-138v-140q-140 10 -266 70t-220 160q-200 212 -200 504 v1264h1264q148 0 283 -57t237 -159zM1001 1006q69 0 118 49t49 118t-49 118t-118 49t-118 -49t-49 -118t49 -118t118 -49zM862 868v-410v-410h140h138v410v410h-138h-140z" />
<glyph unicode="8" d="M1786 1830q102 -102 159 -236t57 -284v-528q0 -292 -200 -504q-94 -100 -220 -160t-268 -70v140v138q174 18 290 148q120 132 120 308v528q0 190 -135 324t-323 134h-986v-986q0 -176 118 -308q118 -130 290 -148v-138v-140q-140 10 -266 70t-220 160q-200 212 -200 504 v1264h1264q148 0 283 -57t237 -159zM1001 1006q69 0 118 49t49 118t-49 118t-118 49t-118 -49t-49 -118t49 -118t118 -49zM862 868v-410v-410h140h138v410v410h-138h-140z" />
<glyph unicode="9" d="M1786 1830q102 -102 159 -236t57 -284v-528q0 -292 -200 -504q-94 -100 -220 -160t-268 -70v140v138q174 18 290 148q120 132 120 308v528q0 190 -135 324t-323 134h-986v-986q0 -176 118 -308q118 -130 290 -148v-138v-140q-140 10 -266 70t-220 160q-200 212 -200 504 v1264h1264q148 0 283 -57t237 -159zM1001 1006q69 0 118 49t49 118t-49 118t-118 49t-118 -49t-49 -118t49 -118t118 -49zM862 868v-410v-410h140h138v410v410h-138h-140z" />
<glyph unicode=":" d="M1786 1830q102 -102 159 -236t57 -284v-528q0 -292 -200 -504q-94 -100 -220 -160t-268 -70v140v138q174 18 290 148q120 132 120 308v528q0 190 -135 324t-323 134h-986v-986q0 -176 118 -308q118 -130 290 -148v-138v-140q-140 10 -266 70t-220 160q-200 212 -200 504 v1264h1264q148 0 283 -57t237 -159zM1001 1006q69 0 118 49t49 118t-49 118t-118 49t-118 -49t-49 -118t49 -118t118 -49zM862 868v-410v-410h140h138v410v410h-138h-140z" />
<glyph unicode=";" d="M1786 1830q102 -102 159 -236t57 -284v-528q0 -292 -200 -504q-94 -100 -220 -160t-268 -70v140v138q174 18 290 148q120 132 120 308v528q0 190 -135 324t-323 134h-986v-986q0 -176 118 -308q118 -130 290 -148v-138v-140q-140 10 -266 70t-220 160q-200 212 -200 504 v1264h1264q148 0 283 -57t237 -159zM1001 1006q69 0 118 49t49 118t-49 118t-118 49t-118 -49t-49 -118t49 -118t118 -49zM862 868v-410v-410h140h138v410v410h-138h-140z" />
<glyph unicode="&#x3c;" d="M1786 1830q102 -102 159 -236t57 -284v-528q0 -292 -200 -504q-94 -100 -220 -160t-268 -70v140v138q174 18 290 148q120 132 120 308v528q0 190 -135 324t-323 134h-986v-986q0 -176 118 -308q118 -130 290 -148v-138v-140q-140 10 -266 70t-220 160q-200 212 -200 504 v1264h1264q148 0 283 -57t237 -159zM1001 1006q69 0 118 49t49 118t-49 118t-118 49t-118 -49t-49 -118t49 -118t118 -49zM862 868v-410v-410h140h138v410v410h-138h-140z" />
<glyph unicode="=" d="M1786 1830q102 -102 159 -236t57 -284v-528q0 -292 -200 -504q-94 -100 -220 -160t-268 -70v140v138q174 18 290 148q120 132 120 308v528q0 190 -135 324t-323 134h-986v-986q0 -176 118 -308q118 -130 290 -148v-138v-140q-140 10 -266 70t-220 160q-200 212 -200 504 v1264h1264q148 0 283 -57t237 -159zM1001 1006q69 0 118 49t49 118t-49 118t-118 49t-118 -49t-49 -118t49 -118t118 -49zM862 868v-410v-410h140h138v410v410h-138h-140z" />
<glyph unicode="&#x3e;" d="M1786 1830q102 -102 159 -236t57 -284v-528q0 -292 -200 -504q-94 -100 -220 -160t-268 -70v140v138q174 18 290 148q120 132 120 308v528q0 190 -135 324t-323 134h-986v-986q0 -176 118 -308q118 -130 290 -148v-138v-140q-140 10 -266 70t-220 160q-200 212 -200 504 v1264h1264q148 0 283 -57t237 -159zM1001 1006q69 0 118 49t49 118t-49 118t-118 49t-118 -49t-49 -118t49 -118t118 -49zM862 868v-410v-410h140h138v410v410h-138h-140z" />
<glyph unicode="?" d="M1786 1830q102 -102 159 -236t57 -284v-528q0 -292 -200 -504q-94 -100 -220 -160t-268 -70v140v138q174 18 290 148q120 132 120 308v528q0 190 -135 324t-323 134h-986v-986q0 -176 118 -308q118 -130 290 -148v-138v-140q-140 10 -266 70t-220 160q-200 212 -200 504 v1264h1264q148 0 283 -57t237 -159zM1001 1006q69 0 118 49t49 118t-49 118t-118 49t-118 -49t-49 -118t49 -118t118 -49zM862 868v-410v-410h140h138v410v410h-138h-140z" />
<glyph unicode="@" d="M1786 1830q102 -102 159 -236t57 -284v-528q0 -292 -200 -504q-94 -100 -220 -160t-268 -70v140v138q174 18 290 148q120 132 120 308v528q0 190 -135 324t-323 134h-986v-986q0 -176 118 -308q118 -130 290 -148v-138v-140q-140 10 -266 70t-220 160q-200 212 -200 504 v1264h1264q148 0 283 -57t237 -159zM1001 1006q69 0 118 49t49 118t-49 118t-118 49t-118 -49t-49 -118t49 -118t118 -49zM862 868v-410v-410h140h138v410v410h-138h-140z" />
<glyph unicode="A" d="M1438 762l-42 -4l-54 -4l4 -2l-2 -148l8 -70h2h6h2v8v4l2 2l-2 10l6 -8h2l2 -6v-2v-4v-2h2l2 2l4 -6v-2h2v2l-2 4l6 -2l2 2l2 4l-2 4l2 4l-2 2h-4l-6 8l2 6l4 2l38 4l62 8l-2 4l-2 2v4v8v2v4v2l-4 4l-2 6l2 8v2v6l4 4l2 2h-2l-2 2v6l-2 4l-4 4l-2 6l-2 4v2l-2 2l-14 52z " />
<glyph unicode="B" d="M430 510l-2 -2l-4 -4v-4l-2 -2l-4 -2l-6 -2h-2l-4 -2v2v2l-2 -2l-4 -4l2 -2l2 -2h2h-4v-6l-2 2v2v4h-2l-4 -4l-4 -4h-2l-2 -2h-2l2 2v2h-2l-4 -8l-4 -4l-2 -4v-4l-4 -6l-2 -4l-2 -2h-2l-2 -2h-10h-6h-2v-6l-2 -2l-2 -4h-2h4l2 -2l2 -4h2l2 -2l6 -6l2 -2l2 -2l2 -2v-2 l2 -4v-4l2 -2l4 -2h4h2l2 2v-2v-2l2 2h4v-2l-2 -4v-4l2 -2l4 -2l2 4h2l2 -2h2h2v-2v-4h-4l-2 2l-2 2h-2l-4 -2l-2 2v2l-2 2v2v2l-2 2h-4l2 -2l4 -4l2 -2v-2v-4l2 2h2l4 -2v-4v-2l-2 2l-2 2h-2v-2l-2 -2h2l-2 -4l-2 4l-2 -2l-2 2l-2 -2l-2 2h-4h-2h-2l-2 2v2h-2h2v4l2 2l-2 2 h2l-2 2h-4l-2 -2h-2l-2 -2h-6l-2 -2l-2 -2l2 -2v-2h-2l-4 2l-8 -4v-2h-2h-2l-2 -2v-2h-4h-2l6 -6l2 -2h2l2 -2h2l-2 2l6 -4l2 -2l-2 2h-2l-2 -2l-2 -2l-2 2v2v-2l2 -2v-2l2 -2l2 -2l-2 -4l2 -2l2 -2l6 -2l4 -2l2 2h2h4h6h2l6 -4l-2 2v4h2l2 -2l2 -4l2 4h2l2 2l2 2l2 2l2 -2 l2 2l2 2h2h-2l4 -2v-2v-2l-2 -4h-2h-2l-2 -2h4l2 -4v-6l2 -6v-2l-4 -4l-2 -2h-4h-2l-2 2h-2l-2 -4l-4 -4l-4 -4h-2l-2 2l-2 -2h-2l2 2l-2 2l-4 2h-2l-2 -2v-2l2 -2h-2h-2l-2 -2v-4l2 -2l2 2l-2 -4h-2v-2h-2h-2l-8 -10v-2v-2v-2h-4v-2l2 -2h-2h-2v-2v-2l2 2l2 -2l-2 -2l2 -4 h2v-2v-2h2v2l4 4l4 4v2v-2l-2 -2l-4 -2v-2v-4l2 2v-2l4 -2h-2l-2 -2v-2h2h2l2 -2h6h2l2 2v-2h-2l2 -2l2 -2v-2h-2h-2v2l-2 2l-2 -2h-2l-2 -2l4 2l-2 2l-2 2h-2v2l-2 -2l-2 -2l-2 -2l-2 -2v-2h4l-2 -2l2 -2l2 -2l2 2v-2l2 -2v-2l2 -2l2 -2l-2 -2l2 -2h4h4h4l2 2l2 2h2h2v6h-2 l2 2l2 2v4l2 2v2l2 -2l2 2l-2 -2l-2 -2v-2l-2 -4v-2l2 -2v-2v-2v-2v-2l4 -8l-4 -6l2 -2l4 -4l-2 -2v-4v-2l-2 -2h-2h2l2 -2l4 4l2 2h2l2 2h2l4 4l4 -2v-2h2l2 -2h2l2 2v-2l2 -2l4 -8h2h2l2 2l-2 2l-2 4l2 2v4l2 -2l2 4v2v-2l6 -2v-2l-2 2l-2 2l-2 -2v-4l2 -2v-2h2h2l4 2l6 4 h2l2 2v2l-2 -2v-4l2 -2l-4 -2l-2 -2l-2 -2v-2v-2l2 -2h2l2 -2l-2 2l-2 -2l-2 -2v-6l-2 -4l2 -2v-2l4 2l-2 -4h-2v4l-2 -2l-8 -6v-2l-4 -4v-2v-2l-2 -2h-2h-2v-4h-6l-4 -4l-2 -2l-4 -4l-2 -2v-4v-2l2 -2v-2h-2l-2 2h-2v-2h-2l-2 2v2h-2l-2 2l-6 -2l-6 -6l-4 -4v-2l-2 -2 l-4 -2v-2h-2h-4v-2v-2v-2l-2 -2h4l2 2l-4 2l2 2h2l2 -2v-2l4 2l-2 2l2 2l-2 2h2l2 -4v-2h2l2 2l2 2v2h2l2 2v4l4 2h2v-2h-2v-2v-2h2h2l2 2h2h4l-2 2h2l2 -2l2 6h2h2v2l4 2h2v-2v-2l-2 -4l2 4l2 4l4 2h2l2 2h2l2 2l2 2l-2 -2l2 -2v4h2l-2 2l2 2h-2h-2l4 4h2h2h2v2l-2 2h2h2h2 l2 4l-2 2l4 -2h2l-2 2h2l2 2h2l6 6l-2 2l2 2h-2l4 4h2l-2 2h2h4l-2 2l2 2v2h2h2v2h2l2 2l2 2l2 2h2v2h2h2v2v2h-2l2 2h2l-2 2l2 2l2 2h2l2 2l2 6l-2 2h-2l-2 2h-2h-2h-2v2v2v4l6 2l-2 2l2 2h2l2 2v-2l2 2l2 2l-2 2h-2h2l2 2h2l2 4l-2 2l-2 2l-2 2h2l2 -2h2l2 4v2v2l4 6h2 l-2 2l2 4l2 2h2l2 2l2 2l4 4v2v-2l2 -2l2 2h2l2 4l2 2h2h2l-2 -2l-4 -4v-2v-2l4 -2h4l2 -2h-6l-2 2l-2 -2h-2l-4 2l-2 -2l-4 -6l-4 -2l2 -4v-4v-2v-2l-2 -4l-2 -2v-6l2 -2h2h2l2 2h2l-2 -4l-2 -2v-2h-2h-2l-2 -2v-2v-2l2 -2l2 2l2 2h2h2l-2 2l6 -2v2l2 4v2h2l2 4v-2v-2v2 l2 2h2l-2 4l2 -2h2v2v2v2v-2l2 -2l-2 2l2 2v2v2l4 -4v2h6l2 2v2l2 2v2h-2l2 2v2l2 2v2h-2l-2 -2l-2 2l-2 -2l2 2h2v2v2l-2 -2l-2 2h-2l2 2l-2 -2l4 4v2v2l-2 -2v2l2 2l2 -2l2 2v2l2 2l-2 -2v-2v-2v-2l2 -2l2 2v-2v4v2l2 -4v2l2 -2v2h2l2 2l4 4h2h2l-4 -2l-2 -2l2 -2l2 -2h2 v2h2l-4 -4v-2l2 2l4 2l-2 -4l2 2h2h2v-2v-2h2l2 -2h2l2 2v2l2 2l2 2v2v-2v-2v-2v-2v-2l2 -2h6h2v-2h2h2l2 2l6 2l6 2h10h2l2 2v2l2 -2l2 -2l-2 -2h6h8h2l4 6v4h2l4 -2h2h2h-2l-2 -2v-2l2 -2l-2 2l-2 2v4l-2 -2v-2l2 -2v-2v-2l-4 -2l6 -2h2h2l2 -2h2h4h2v-2h2h2l4 -2l2 -2 l4 -2h2v-2l6 -2h4h2l2 -2v2v2v2l4 -2l2 2v2l-2 2l-2 2l-2 -2v2h-2l-2 2h-4h-2l2 2l-2 2l2 -2l2 2h2l2 -2l2 -2l2 2v2l-2 2h4l-2 -2l2 -2l4 -6l-2 -2h2l2 2h4v-2l2 -2l2 2v2l-2 4l-2 2h2l-2 2l-6 6v2l-2 2l2 -2l-2 4h-2v4l2 -4l2 -2l4 -4v-2l2 -2h2v-2l4 -4l2 -2h2v0l2 -2h4 l-4 2h2h2v8h2l-2 -2v-2l2 -2v-2v-2l2 -2h2v2v2v-4l2 -2h2v2h6h-6l2 -2l2 -2h2l2 -2h2h-4h-4l2 -2h2v-2h2v-2h4l-2 -2h-2v-4h2l2 2l2 -2h2l2 2l2 -2v-2h2l2 -2l2 2l-2 -2l2 -2l2 2l2 -4h2l2 -2h2l2 -2h2h2h-2l-2 -2l2 -2v-4v-2l-2 -2l2 -4h2h2l-2 2h2v4l-2 2l4 4l2 2l2 4v-2 v-2l4 -4l2 -2l2 -4l2 -2h2l-2 -2v-2v-2h2l2 2v2l2 4l-2 -4v-2l-2 -2v-2l2 -4h4l-2 4l2 -4l2 2l2 4v2v6v2l-4 6l-2 2l-2 2v2v2v2l-2 2l-2 -2h-2l-4 2h-2l-2 2l-4 -2l-2 2h-4h-2l-2 -2l-2 2l-2 2l-2 2l-2 2l-2 2h-2v2l-2 2l-2 2l-4 2l-6 6l-4 2l-2 2l-4 4l-2 2l-4 2l-4 2l-2 2 h-4h-2l-4 6h-2h-2h-2l-4 4v4h-2h-2l-2 2h-2l-2 -4l-2 -2h-2v-4l-2 -4l2 -2v-2l-4 -2l-2 -4l-2 -2v-4l-6 8l-16 8l-2 2l-2 2h-4l-2 2v2v2l-2 2l-4 -2l-4 -4h-4l-2 -2h-6v2l-60 204l-6 16h-2h-2l-2 2h-2l-6 2l-2 2h-2h-2l-2 -2l-2 2h-2l-2 -2v-2h-2l-2 -2h-4h-2h-2l-4 2h-2h-2 h-2h-2l-2 -2h-4l-2 2l-2 2h-2l-2 -2l-2 2h-2l-2 2l-2 -2l-2 2l-2 -2l-2 -2h-2l-2 2h-2l-2 -2l-2 -2l-2 2h-4l2 2h-4h-2h-2h4l-4 2l2 2v2h-2h-2l-4 2l-2 -2h-2l-4 -2h-2l-2 2v2v2h-2v-2l-2 2l-2 -2l-2 -4h-2l-2 2l2 2l2 2v2h-2h-2l-2 2h-2zM544 262l-2 -2l2 -2l2 2zM570 258 l-2 -2v-2l4 4h-2zM542 256l2 -2zM580 256v-2v2zM564 254l-2 -2v-2h2l-2 -2l2 2l2 2h2v2l-2 -2zM548 252v-6v-2h2v2v2v2zM556 250l-2 -6v-2l-2 -2l-2 -4v-2l2 2l2 2l2 2v4l2 2zM594 248h-2v-2v-2zM546 248v-2v2zM718 246v-2l2 -2l2 -2l6 -10l2 -2l2 2v-2l2 -2v-8v-2l2 2v2 l2 2v2l-2 2h2l2 2h-2v4l-2 2h-2l-4 4l-2 2v2l2 -2l2 -2h2l2 -2l2 -2l-2 2l-4 4l-2 2v2l-2 -2h-4h-2l-2 2zM498 244v-2l2 2h-2zM546 244l-2 -2l2 -4v2v4zM548 242l-2 -2v-2v2zM550 240l-2 -2zM708 240l-2 -4h-2l2 -2l-4 2l2 -2l-2 -2l6 -4l-2 2l-2 -2l2 -2l2 -2l2 -2l2 2 l2 -2l2 -2h-2l2 -2h2v4l-2 2l-2 2h2l8 -2h2v2l-2 6l-2 -2l-2 -2l-2 2l-8 2h4h4l2 -2l2 2l-2 2h2v2l-2 2h-2h-2h-2l-2 -4h-2l2 2l2 2h-4zM546 238v-2l2 2h-2zM322 238h-2h-2l-2 -2h-4l-2 -2l2 -4h2l4 -4h2l4 -4v4l2 -2l4 2h2l-2 4l2 6l-4 2l-2 -2l-2 2h-2zM732 238l2 -2z M702 232v-4l2 -2v2v2zM720 224l-2 -4v-2l2 -2l2 2v-2l2 -2h2v-2l2 -4h2v-2v2v-2l2 -2v2v-2l2 -2l2 -2l2 -2h2v2l-2 4v2l-2 4l-6 8l-2 2l-2 2l-4 2l-2 -2l2 2h-2zM728 224v-2h2zM752 222v-2l-2 2h-2h-4l-2 -2l2 -2h2v-2l4 -6l2 -2l2 2h2l2 2l-4 4l-2 2h2l2 -2l2 -2v4l-2 2v2 h-2h-2zM760 220l-2 -2v-2l2 -2h2l2 2v2zM718 218l-2 -2l4 -4l-2 -2h2l2 2l-2 4zM740 216l2 -2h-2v-2v-2h2h2l-2 -2l4 -2l-2 -2v-2l4 -4l2 -4v2l-2 2v2l2 -2v2l-2 2v4v4v2v2h-2v-2v-2v2l-2 2l-2 2h-2zM768 216l2 -6h4l2 -2v4l-2 2zM764 212l-4 -2l2 -2h2h2v2zM768 212l-2 -2 l2 -2l-2 -2l2 -2h2l4 -2l2 2l-2 2v2l-4 2zM788 210h-2l-2 -4v-2h2l-2 -2l2 2l-2 -4l2 -2v-2v-2h2h2v2l-2 2l2 -2l2 2l-2 2l2 -2v-2v-2h2l-2 2l2 -2h2v2v4l-2 2v2l-4 4zM760 206h-6v-2l2 -2h2h-2v-2l-2 -4l2 -2l2 2v2l2 2v2v-2l2 -2l2 -2v-2v-2v-2h2l2 2v-2l4 -4h-2h-2v-2h2 h2v-2l2 2h2v2l2 -2l2 -2v-2h2l4 -2v-2h2l2 2v2l-2 4l-2 -2l-2 2l2 2v2h-2l-2 2l-2 2l-2 -2v2l-4 -2v2l4 2h2h-2l-2 2l-2 2l-2 2l-2 2h-2h-4h-2v2zM498 196h-2v-2h2l2 2h-2zM762 196l2 -2zM390 196l-2 -2l-2 -2l2 -2h2v2v4zM754 194v-2v2zM762 194h-2h-2v-2l2 -2v4h2z M786 194v-2v-2h4v2l-2 2h-2zM750 192h-2l2 -2v2zM496 192h-2v-4h-2l-2 -2h2h-2v-4l-2 2v-2l2 -2h2v2l2 -2v2l2 2l2 2v-2h2v2h2l2 2v2l-2 -2v2h-2h-2zM790 192v-2l2 -2h4l-2 4h-2h-2zM764 188l2 -2v2h-2zM808 188v-2l2 2h-2zM798 188l-2 -2v-2l2 2v2zM762 188l2 -2zM760 186 l2 -2v2h-2zM764 184l-2 -2l2 -2v2v2zM768 184l-2 -2v-2l2 2v2zM774 184v-2l2 -2h2l-2 2zM770 184v-2v-4l2 -2l6 -4h4l-2 4l-4 2l-2 2l-2 2zM488 180l2 -2v-2v-2l-2 2v-4l-2 2v-2v2l-2 2h-2l-2 -2l2 -2h2l-2 -2l2 -2h-2v-4l2 -2l-2 2v2l-2 2v2h-2h-2l-4 -4l-2 -4l2 -2l2 -2 v-2v-2l2 -2l2 -2l2 2v4h-2h-2v2h2h2v-2h2l2 2l-2 -4h2l-4 -4v-2h2l4 4l2 2l-2 2h2v2h2l2 2h2l-2 4h2h2l2 -2l2 2l-4 4h-2h2h4h2l2 4h-2l-2 2v2v2l-2 2l-2 -4l-2 -2v4h-2zM486 180v-2l2 -2h2l-2 2zM778 178v-2h2v2h-2zM492 160l-2 -2v-2h2l2 2l2 2h-2h-2zM480 144h-2v-2h2 l2 2h-2zM476 144l-2 -2v-2l2 2v2zM440 142l-2 -2zM2 134h-2l2 -2v-2l2 -2h2h2h2l-2 2v2h-2l-2 2h-2zM462 126l-2 -2v-2l2 2v2zM416 124v-4l2 4h-2zM12 118h-2l-2 -2l2 -2h2v4zM390 110l-2 -2v-2l2 -2l4 2l-2 2v2l-2 -2v2zM396 110l-2 -2h2v2zM402 108l-2 -2v-2l-2 -2v-2v-2 l2 4l2 4v2zM406 106v-2l2 -2v4h-2zM376 104v-2v2zM346 104l-4 -2l-2 -2l-2 2l-2 -2l-2 -4l-4 -2v-2v-2l2 -2h2l4 2v2h2l2 2h2l6 -2l2 2v2l2 -2h2v2h-2l-2 2v2l-2 2l-2 2h-2zM408 102l2 -2v2h-2zM368 100l-2 -2h2v2zM360 90v-4h2l2 2zM64 86l-2 -2h-6l2 -2l4 2zM320 86l-2 -2 l2 -2l2 2zM314 86l-2 -2v-2l2 -2l4 2l-2 2zM302 82l-2 -2h-2l-2 -2l2 -2h2l2 -2h-4v-2l-2 -2h2h-2l-6 -2h-2h-2l-2 -2l2 -2l6 2l4 2h2h2v2h2l2 2h2h2l-2 2h-2v2h2l2 2v2l-2 -2h-2v2zM324 82h-2l2 -2v2zM76 80v-2v2zM310 76h-2l2 -2v2zM92 74h-2l2 -2h2zM280 72h-2l-2 -2v-2 v-2h-4l-2 -2v-4l-2 -2l-2 -2l4 2l2 2h2l2 2l2 4h2l4 2l2 2v2h-2h-4zM76 70v-2h2l4 -8l2 2l-2 2v2l-2 2l-2 2h-2zM114 64v-2v2zM124 62v-2l2 -2v-2v-2l4 4l-2 2l-2 2h-2zM186 60l-2 -2v-2l-2 -2h-2h-6h-4l2 -2h2h4h2h2h2h2v4h2v2zM256 60l-6 -2l4 -2zM158 58h-4l2 -2h2v2z M138 58v-2h-6v-2l2 2l2 -2h2l2 2l2 2h-4zM148 58l-2 -2v-2h-2l-2 -2l-2 -2l4 2v-2h2l4 2v2l-2 2v2zM240 56h-2v-4v2h2v2zM152 54l-2 -2v-2l2 2v2zM212 54l-2 -2v-2l2 2h2zM154 54v-2h2zM192 52l-2 -2l-2 2l2 -2h2l4 -2h4h2h2l-4 2h-4l-2 2h-2z" />
<glyph unicode="C" d="M1256 818l-70 -4l-60 -2l-36 -2l6 -38l2 -14v-82l2 -2l2 -2l2 2l12 -2v-26l48 2l64 4v2l-2 4h4v2l-2 2v4v2h-2l-8 -6l6 12l-2 4l4 2l-4 4l4 2v4h4v2v2l-4 4l8 4v6l-4 6l8 -4v2l2 2v4h4l2 2v2l2 4h-2v18v8l2 -6v4l6 -8l2 2v2h-2l2 4l2 2l2 2l4 2l-2 8h-4l2 6l4 2l-2 2l4 2 l2 4l-2 2v2l4 2l2 2h2l-2 4l4 2v2l-24 -4l-2 6l2 4l4 4l2 2l2 2v2v2l-2 2z" />
<glyph unicode="D" d="M488 868l-50 8l-50 8l-34 6l-6 -36l-4 -4l-4 -6l-6 2v4l-2 2h-4l-2 2h-2l-4 -2v-2l2 -8l-2 -2v-4v-6v-4l-2 -2l2 -6v-8l-4 -4v-6l-2 -2l2 -2l2 -8l2 -4v-2l2 -4v-4l4 -4l4 -6l-4 -4l-10 -6l-2 -2l-2 -2l-2 -4v-6l-2 -4l-2 -4l-6 -8h-2l-2 -2l2 -4v-4l-2 -2v-2h2l4 -2 l2 -4v-8l-4 -2l-2 -4l-6 2v0l-4 -6h-2l8 -6l80 -46l52 -28l60 -10l18 -2l34 268z" />
<glyph unicode="E" d="M308 754h2l2 4l10 6l2 2l-8 8l2 4l-2 2v4l-2 4l-4 6v4l2 2l-48 70l-112 164l8 32l26 106l-62 16l-78 22l-2 -6v-2l2 -2v-4v-6v-2l-2 -6l-6 -12v-2l-2 -6l-2 -2v-2v-2l-4 -2l-4 -2v-2l-4 -4l-2 -6v-4v-2l6 -10v-2l2 -4l2 -10v-2l2 -4l-2 -4v-4l-2 -2l-2 -6v-12v-6l-2 -2 l2 -6l2 -6l4 -8l2 -4l4 -2v-4l2 -4v-2l2 -6l2 -6h-4l4 -4v-4h4l2 -4v-2v2l2 4v2l2 4l4 2l6 -4l2 -2v-2l4 2h4l2 -4h4l10 8l-4 -8h2v0l2 -4l4 -4v-8l-8 12l-6 -2h-2h-4l2 2l-6 2h-4l-2 2l-4 -2h-2l2 -4v-2v-2l2 -2l2 -6v-6l4 -6h-8l-4 4l-2 4l-4 2l2 6v2v2v-2l-2 -2l-2 -6 l2 -2v-8v-4h-2v-2l2 -4l4 -8l2 -2h8l2 -8v-10h-2l-2 -2l-4 -2v-6l-2 -4l2 -4l4 -6l2 -6l2 -2l2 -8l2 -6v-2l2 -2l4 -4l2 -6l6 -6v-6l-2 -2v-2v-2h4l4 -4l-2 -6l-2 -4v-6l-2 -2v-4l-2 -4h2l2 -4l2 -2l10 -2l2 -2h4l6 -4h2l6 -2l6 -4l2 -4l4 -2v-6l8 -6l4 -2l14 -2v-2l4 -8v-2 l-2 -4v-2h2v2h6l4 -4l2 -4l2 -4l4 -2l10 -14l4 -6l2 -6v-8v-6l-2 -6l4 -2l-2 -4l2 -2l94 -10h4h2v2l4 2v2v2l-4 2l-4 2v4l2 4v2l-2 4l2 4l4 2l4 6l2 4l2 2v6z" />
<glyph unicode="F" d="M566 1054l-24 -188l62 -8l56 -6l66 -4l78 -6l10 188l-2 2l-34 2l-34 2l-56 4l-30 4l-60 6z" />
<glyph unicode="G" d="M1878 1192h-4l-18 -6h-2h-2l-6 -2h-4l-18 -4l6 -32l2 -4v-4l-4 -6h2l6 6l2 2l4 4l2 -2l4 6h4l2 2h4l2 2l8 2l-4 6l8 -2v-2l6 4l6 2l2 2v4z" />
<glyph unicode="H" d="M1776 1058h-2l-2 -2l-2 -2v-2l10 -34l4 -20l2 -2l8 2l6 8v4l2 2h-4l-6 6l-2 2l-4 4l-2 6v2v2l-4 2l-2 4l-2 4v2l-4 4l2 2l2 4v2zM1804 1002l-8 -4l10 2z" />
<glyph unicode="I" d="M1744 1012h-2l-10 2l-4 10q-2 2 -3 2t-1 -2l-6 -10l-10 -2l-2 -2l2 -2l6 -6l-2 -10q0 -2 2 -2q0 -2 1 -2t1 2l10 4l8 -4q0 -2 1 -2t1 2q2 0 2 2l-2 10l6 6l2 2v2z" />
<glyph unicode="J" d="M1614 584l-2 -2v-2v-2l2 -4v-2v-8l-4 -4h-6l-2 8l-2 2l-106 -8l-4 4v2l-4 6l-62 -8l-38 -4h-2v-4l4 -4l2 -2l4 -4l-2 -4v-2l4 -2v-2l-2 -4l2 2l4 4v2l-2 2l6 4v-2l4 10l2 -10l4 -4v-2l2 2h4l-6 2h12l6 6l2 -4l6 2l6 -2l2 -6l8 -2l-2 2l6 2l2 -2l10 6l-2 -10h-4l2 -2h4 l2 -2h8l-6 -6h2l4 -4l2 -4v-4l2 2h6l2 2l6 4l2 -2l10 8l4 2h-2l2 4l2 2l4 4h6h4h2l8 -4h2l8 -4l4 -6l6 -2l2 -6v-2l10 -6l2 -2l2 -2l2 -2l2 -2l6 2l6 -6v-4l2 -2l4 -2v-4l2 -2v-8v-4v-4l-2 -14v-4v-6l-2 -4l6 -4h2v4h-2l-2 2v2l-2 4v4l10 -6l2 2l6 -4v-4l-6 -10v-6l4 -6 l-2 2l2 -4v-2l6 -10h10l2 -2l6 4l2 -4l-4 -2l2 -2v-8v-2l2 -2h2v4l18 14l-14 -18v-2l-2 -2l2 -2l4 -2l4 -12l4 -6h12l-6 -2h4l6 -4l2 -2l2 -2l4 -6l2 -4l4 -4l2 -2h4l6 -4l-2 -2l2 2l4 -2h2l2 2l2 2l2 2l-8 4l12 -4l2 4l2 2l-2 6v2v2l2 4v4l2 2v2l2 6l-2 8v8v4v14l-4 10 l-2 2v4l-4 4l-2 2l-6 -4l4 8l-4 6l-6 12l-10 16l-12 18l-4 10l-4 8h6l-14 18l-10 16l-6 10l-4 10l-2 4l-2 6l-2 6v2l-4 4l-4 6h-2l-10 2z" />
<glyph unicode="K" d="M1534 776l-44 -8h-16l-32 -6l14 -42l14 -52l2 -2v-4l2 -2l2 -6l4 -4l2 -6v-4h2l2 -6l-4 -2l-2 -2v-6v-4l-2 -4l2 -6l4 -4v-4v-4v-2v-8v-2l2 -2l4 -6v-2l4 -6v-2l2 -2l104 8l6 -4l2 -6l2 2v6v2l-2 2v4v6h2l4 2l4 -2l8 -2h2h2v2l-2 2v6h-2l2 4l-2 2h2h-2l2 8l4 -2l2 4h-2 h-2l-8 4l6 2h4v4l2 -2v2l-4 4l4 2l-4 8l4 -2l-2 2l6 2l-2 2v8l6 -2v2l2 2l-2 2h-6l-4 4v4v2l-2 4l-2 2l-2 2l-4 2l-4 4v4v2l-2 2l-4 6v2l-4 4h-4l-4 4l-4 2v2l-2 2l-2 4v2h-2l-4 4h-4l-2 4l-2 2l-2 4l-6 2l-8 4l-8 12v2l-4 4v2l-4 2h-4l-6 4h-2l-4 4l-2 4v4z" />
<glyph unicode="L" d="M34 586l-4 -2l-2 -2h-2v-4l2 -2l6 -4h2h2l2 2l2 4v2v2l-2 2h-4zM16 576l-4 -2l-2 -2v-4l2 2l2 2l2 2v2zM88 564h-2l-4 -4h-2h-2l2 -4l2 -2l4 -4h2v2h2l4 -4l2 2h4l-2 4l-2 2h-2l-2 2zM114 546l-2 -4h6h2h4l2 -2h2l4 2l-2 4l-2 -2h-2l-4 2h-2h-4h-2zM134 540v-2l-2 -2 l2 -4l6 -2h2v-4l2 -2h2l4 2h2h2l4 2l-2 4l-4 2l-2 2h-4h-4h-2l-2 4h-4zM124 536h-4l2 -4l4 -4v2l2 2l-2 4h-2zM164 512v-4v-2l2 -4l-2 -2l-2 -4l-4 -2v-2l2 -4v-2l2 -4l2 -4v-2l-2 -6l2 -4h2l2 -2h2h2l2 2l2 4h2l2 2l4 2h2l4 2h4l2 4h2l2 2v4l-4 2l-2 2v2l-2 4l-2 2l-2 2 l-10 6h-2l-4 2h-2l-4 4h-2z" />
<glyph unicode="M" d="M362 1476l-22 -106l-2 -10l-2 -4l2 -6v-8v-4v-4l2 -2v-2l8 -6v-8l-2 -2l-6 -8l-6 -10l-4 -6l-2 -2l-2 -4l-2 -4l-4 -2l-4 -6l-4 -4v-8h2l4 -4l2 -4l-2 -4l-2 -4l-2 -6l-2 -2l-18 -84l54 -10l62 -12l50 -8l38 -6l18 116l-4 2v4l-2 4l-2 2l-4 -6v-4l-6 2h-4l-4 2h-6l-6 2 l-4 -4l-4 2h-4l-4 2l-2 -2v-2l-4 -2l-4 4l-2 4v2l-2 4l2 4l-2 4l-2 2l-4 -2l-4 6v4l2 4v2l-2 2l-2 4l-2 6l-2 8v6l-2 2v2l-12 -6l-4 -2l-2 6l-6 2l2 6l2 2v2l2 4l2 2v4v2v4v4l2 2l2 4l2 6l4 8h-2h-4l-4 2v2h-2l-2 4l-4 4v4l-2 2l-4 8v2l-2 4l-2 2l-4 2l-2 4l-6 8h4l-2 2l2 4 v2l-2 6v2l-6 10l10 46z" />
<glyph unicode="N" d="M1318 1114l-42 -4l-52 -2l6 -6l2 -4l2 -2l4 -2l2 -2l2 -4l-2 -12l-4 -4v-8l-4 -2l-6 -4l-4 -2l-10 -2v-2l-2 -4l6 -6v-8l-4 -6v-2v-4l-2 -4l-8 -4v-2v-2v-4l-2 -2l-2 -2v-4v-6l2 -4v-2l2 -6l2 -4v-2l4 -4l4 -2l4 -2v-4l8 -4l4 -2l2 -4l2 -14l2 -2v2l2 2h4h4h2l8 -6v-2 l-2 -4v-6l-2 -4l-2 -6l-2 -2v-4v-2l6 -4l8 -6h2l2 -4v2l8 -4l2 -4l2 -2l4 -2v-6l4 -8v-4l-2 -2l4 -6l2 -4l4 2v0l4 8h4h6l2 -2l6 -2h2l2 -2l2 2l-2 2l-2 4v4v4l4 2l4 2l6 2l-2 4v4l2 2v4l-2 4l2 2v8h2v4v6l4 2l2 4l4 6v2l4 8v2l-2 6v2l-2 2l-2 6v4v2v4l2 4l-10 112l-4 4v4 l-2 2v4l-4 4l-4 6v4v6z" />
<glyph unicode="O" d="M1426 1090l-48 -6l-20 -2l-6 -4l-6 -2l-4 -2l-6 2l10 -110l-2 -4l2 -2l-2 -4v-2l2 -2l2 -4v-4l2 -6v-4l-2 -2l-2 -4l-2 -4l-4 -8l-2 -2l-2 -2v-2l-2 -10v-2l8 -2l4 2v0l2 2v-2l4 2h4l10 -4h2v2l2 4h4l4 4l2 -4h4v-2v2l2 2v4l4 4h2l-4 8l10 -4l2 -6h2h6l2 2l-2 4l4 8h4h2 v8l4 2l2 2v2v4l-2 4l6 2h4l2 -2l6 4l6 2l-4 4l2 4l-2 4v2l-8 80l-6 44h-2z" />
<glyph unicode="P" d="M1194 1154l-32 -2l-50 -2l-60 -2h-38v-2l2 -2l-2 -6v0l4 -4v-4l-2 -4v-2l-2 -8h-2v-2v-2l4 -2v-6h4v-6v-2l2 -2v-4v-2l2 -4l2 -2l4 -6v-4l2 -2v-4v-4v-2v-2h2v-4l4 -2v-4v-4v-2l2 -4v-4v-4l2 -6l-2 -8l2 -2l2 -2h38h26l54 4l26 2l2 -4l6 -4l2 -2v2l-2 2l4 6l6 4h2v4v4 l4 4v6l-6 6l2 8v4l12 2l4 2l6 2l2 2v6l4 6l2 8l-2 4l-2 2l-2 2l-4 2v4l-6 4l-4 4v2l-2 4l-8 2l-4 2l-2 4v2l-2 4v6l-2 4l2 6v2l-2 2l-2 2l-2 2v2z" />
<glyph unicode="Q" d="M816 984l-8 -142l60 -2l86 -2h86h46l-4 100l-2 2h-2l-6 8v2l-4 2l-2 4l-2 4l4 6l2 4h2v2l-2 2l-4 -2l-8 6h-62h-46l-90 2z" />
<glyph unicode="R" d="M1450 964h-4l2 -4l-2 -2l4 -4l-2 -6l-6 -2l-8 -4l-4 2h-2v-2v-4v-4l-4 -4l-2 -2v-6l-6 -2h-2l-2 -4l2 -4l-2 -4l-4 -4l-8 2l-4 2v2l-4 -2l-2 -2l2 -2l-4 -4v-6l-6 4h-4v2h-2l-2 -2l-2 -2l-4 -6l-4 4l-8 2h-4v-4l-8 -2v2h-4l-2 -4h-4v-4l-2 -2v-2l2 -4l-2 -4l-6 -2l-4 -2 h-2v-2v-2l2 -4l2 -4l-4 -6l-6 2l-2 2h-6l-2 2h-2h-2l-4 -4v-2l2 -2v-4v-4v-4l-2 -2l2 -2l-2 -6l40 2v2l-2 8h10l2 -2l16 2l16 2l18 2l20 2l18 2l10 2h18l12 2l12 2h14l4 2l6 4h2l4 2l6 2v4l4 2l4 2v2l2 4l2 2v4l4 4l10 8l10 10h-4l-6 6l-8 8l-2 2l-2 4l-6 6l2 8v2l-2 2v2 l-2 2l-2 2h-4l-4 4v4l-2 -2l-2 -2l-4 -4h-2l-4 -2l-4 4h-4l-2 -2l-6 -2l-6 6h-2h-6h-4l-6 8v2l-6 2h-6h-2z" />
<glyph unicode="S" d="M1226 648l-62 -4l-46 -2v-46l6 -4l2 -4l2 -6v-4l2 -4l2 -2l2 -4v-4l4 -4l2 -2v-4l2 -4l-2 -2v-2v-4v-2l-2 -4v-4l-2 -2l-2 -4v-6l-2 -2l2 -4l2 -8l-2 -4l-2 -2l2 -4l-2 -4l-4 -2l2 -2l2 2l12 2l-2 2l4 2l2 12l6 -6v-4v-4l-2 -2h4l6 -2l6 -2l4 -2l4 -2l16 -2h2l4 4l-6 6h6 l2 2l4 2l10 2l-2 -6v2h8l2 -4l4 -2v-4h2l4 -2l2 4h4l2 -4h-2v-2l2 -2l2 -2l2 -4v-2h4l6 -4l2 2h2l2 -2h2v4v4l4 2l6 2l2 -4h2h6l-2 -6l2 -2v2l2 2h2l-4 4l4 2v4l-6 2l-2 6l2 2l12 -6h4l4 -2l2 -2v-2l2 2l2 -4h2h6v-4l2 -2v8h-2h-6v4l-4 2h-4l-2 6l2 2v2l4 2l-2 2l6 4h4v2 l-4 2v4l-2 -2v-2l-2 -4h-4l-2 2h-2l-4 2l-2 4l4 2l-2 2l-2 -2l-4 -2l-8 -2h-6l-4 4l-2 4l4 4l4 6l4 2h6l4 -2l2 -4h2h2l2 2l2 -2l2 -2v0l-2 4v2v2l-2 2l-4 4l-2 4l-2 4l2 6l2 6l-36 -2l-46 -2l6 6l-2 2l2 2l-4 6l6 2l-4 4h4v6l2 2h-6l8 4v4h2l-2 2l2 4l4 2l6 6l-10 4h10 l-4 2l2 6l4 2h2l-2 4h-2l-2 6v2h-2l-2 4l4 4h-2l-2 6l4 2v2l-8 -6z" />
<glyph unicode="T" d="M1926 1472h-2l-2 -4l-4 -2l-2 -4h-4l-4 -4l-4 2l-4 2l-2 6h-2h-2l-12 -40l2 -14l-4 -4v-8v-2v-6l4 -4l-4 -6l2 -4l-6 -6l-2 -4v-2l6 -10l-8 2l2 -4l-6 -4l-2 2h-2h2l22 -70l4 -10v-4v-2l2 -2l2 -2l4 -2v-4l2 -2l2 2v2v4v4l2 2l2 4v4l2 6v4v4l8 10v6l8 12l-2 -14v2l4 2v0 l6 4l-2 -4l2 2h4h2h2v4v2v4v2v4v2l-2 4l6 4l-2 12l8 -10v-2h2v-4h2v2v2v10l6 -6v6l10 -4v2l4 2v10l2 -4v2l4 -2h4v2l2 2v4l-2 2h10h2l2 6l-2 -2l-6 6l2 2l-4 8h-2l-2 -4l-6 4l-2 4v4l-2 2l-2 4l2 2h-4h-2l-4 2l-4 -2l-2 6v2v4v2l-4 10l-14 40h-2l-6 4l-6 4h-2z" />
<glyph unicode="U" d="M1730 986v-2h-2l2 -4v2v2l4 2h-2h-2zM1780 996v-12l4 -2l-2 -2l2 -2l6 2l-4 -8h2h2l4 4h4v4l2 2l2 10l2 -2v2l-2 4l-18 -6zM1778 1004l-6 -10h-6v-6l4 -2l2 -2l4 14v-10l4 10zM1744 1004l-4 -4l2 -8q0 -4 -2 -6h-2l2 -4l2 -2l2 6l2 -8l2 -2l2 2l6 -2v-2h6l-2 2l-4 2l-2 2 l-6 4l-2 4l-2 6v10zM1748 1012v-2q0 -2 -2 -4l2 -12l4 -6l2 -2h2l-4 4l-2 6l-2 4v4v2v4v2zM1674 1030l-36 -6l2 -18l2 2l2 2l4 4v4h4h4l2 6v2l4 2l4 -4h2h2l2 2zM1770 1036l-6 -4h-2l-2 -2l-2 -6l4 -2v-4l2 -2l-2 -2v-2h6l-4 -6l4 -6h2l8 4l-2 12zM1766 1050l-68 -14l-10 -2 l2 -2h6h2v-4h2v-4l2 -2v-2h6l4 -2h4l4 8q2 4 6 4t4 -4l4 -8l8 -2q2 0 4 -2l2 2v2l-10 6l6 2l-4 4l8 -2v2v2l2 4h2l4 6v2h4l6 4v-2l2 -2z" />
<glyph unicode="V" d="M1900 1242l-2 -2l-2 -4h-2v-2l-4 -6l-40 -8l-26 -6v-2l-2 -28h2l18 4h4l6 2h4l22 6h2l12 4l4 -4l2 -2l2 -2v-2l2 -2h2v2h4v-4l2 -2v-2h4v4l4 2l2 4l6 4l-2 4h-4l-4 2v6l-4 4h-2l-4 -2l-4 4l-4 6h4v2l2 2v2l2 4l2 2l-4 4l-2 2l-2 2v2zM1946 1200l-2 -2l-4 -4l2 2h2l2 2v2z M1926 1196v-6v-4h2l2 2l2 4h2h2l-4 2l-4 -2l-2 2v2z" />
<glyph unicode="W" d="M1270 1336l-6 -6l-2 -2l-6 -4l-2 -2l-4 -2l-4 -2h-4l-2 -2h-4h-2l-6 -8l-8 -4h2l2 -4l4 -4l32 -6l10 -4l6 -2l4 2l4 -2h8l4 -4v-4h2l6 -2l4 -4v-2v-2v-8l-2 -2h2h6l-2 -8v-2h2l2 6l4 8l2 6l2 4l2 2l2 8l2 4l4 -2v-2v-4l2 2v2l4 2l4 2h6l-2 -4l4 2v2l2 4l4 2l4 2l2 -2l6 2 h2l2 2l4 4l6 2h4h4l6 -4l6 -4v2l2 6h4l4 -2l2 2h14v0l-4 2v2h-2l-4 4v4l-2 2v4l-2 2h-2v-4l-6 -2l-2 2l-6 -2l-6 2l-2 4l-2 10l-2 -2h-4l-6 -4h-2l-12 -2h-4l-4 -2l-4 -2l-6 -4l-4 -8l-4 2h-4h-4l-2 2l-6 -2h-4l-4 2l-2 4l-6 6l-2 2h-2l-2 4h-4h-4l-2 -2l-4 -2l-6 -4l-2 -2 l-2 6v6l-4 6zM1408 1284l-4 -2l-2 -2v-2l-4 -4l2 -4l2 -2l2 -6h-6h-4l-2 -2l-2 -2l2 -10v-4v-2l-2 -4l-8 -10v4v-2l-2 8l2 4l-2 2v4v-2l-2 -2l-2 -6l-4 2l-2 -4v-4l-4 -4h-2l2 -6v-6v-2v-4l-4 -10l-2 -2v-2v-4l4 -10l-2 -4l-2 -2v-2l8 -14l8 2l-6 -6l4 -10l2 -12v-10l-2 -10 v-4l-4 -6l-2 -10l-2 -4l-2 -2h12l52 6l2 -2l32 6l14 2l2 6l4 8v10l2 2l2 4l2 2l2 2v6l2 4l2 4l4 2l4 -4v6v2v8h2l-2 2l-2 4l-2 4l-4 14l-2 2l-2 12l-4 6l-2 2l-2 2h-2l-6 -4h-2l-4 -4v-2l-2 -6l-4 -2v-4l-4 -4l-4 2h-4l-4 4l-2 6l2 8l4 2l2 2l2 2l2 6v4l4 2l2 2l-2 10l2 6 l-2 6l-2 2l-2 2l-4 4l2 6h4l-2 2l-2 2l-2 4h-2h-2l-4 2l-6 2l-4 2h-2h-4l-2 4l-2 2h-2h-4h-2l-4 2h-4v2z" />
<glyph unicode="X" d="M1058 1428v-12l-2 -4l-26 -2h-38v-2l2 -8l2 -4l-2 -6v-4v-4v-2v-6l2 -2l2 -10v-2l4 -10l2 -6v-4v-2v-4v-6v-6v-4l2 -4v-4v-10l2 -2v-4v-2l4 -6v-4v-2l2 -8v-2v-4l-2 -6l-2 -4l-4 -2l-2 -2v-2l2 -2l2 -4l4 -2l2 -2l4 -4v-84h34l60 2l50 2l32 2v2v2l-2 8l-2 4l-2 2l-4 2 l-2 2l-4 2l-6 4l-4 8l-4 2l-4 2l-4 2l-2 2l-4 2h-4l-4 4l-6 4l2 4v6v6v4v6l4 6l-4 6h-2l-4 4v4l4 4v2l2 4l6 6l6 2l2 2v2l-2 28h4l2 2v2l2 2l10 8l2 2l2 2l4 4l8 8l2 6l12 12l10 4l6 4h4l12 8h2h-2l-4 -2l-4 4l-2 2h-6l-2 -2l-6 2l-4 -2h-4l-2 4l-2 2v0l-6 -4l-4 -2l-6 -4 h-6l-6 4v2l-8 4l-2 4h-2h-2l-2 -6l-6 2l-2 4v2l-2 2l-6 -2l2 6l-10 4h-8h-2l-2 -2l-2 -2l-10 -2l-4 2l-2 2l-12 2l-2 2h-6l-4 2l-4 4v4l-2 8l-2 10l-2 2h-4z" />
<glyph unicode="Y" d="M1338 752l-26 -2l-52 -4l2 -4l-6 -4h-2v-6h2l-6 -4h2l-2 -6v-2l-2 -4l-2 -2h-2v-2l-2 -2l-2 -4v0v0h-2v-2l2 -4l-6 -4v-4v-2v-4l2 -2l-6 -4v-2l-2 -2v0l4 -4l4 4l-4 -10v-2h2v-8v-2h-2v-4l2 -2l2 -6l-4 -2l6 -4l-4 -4l8 2l-4 -6l4 -6h-2v-2h2l2 -2v-4h-4l-2 -2l-2 -2l8 2 l-6 -8v-2l-8 -10h-2l2 -2l-4 -6v-2l-2 -4l-2 -2l2 -6l-2 -2v-4h-4l2 -2l-2 -4l4 -4h-2l36 2l40 4v-4v-4l-2 -6v-4v-2l2 -4l4 -4l2 -2l2 -4l-2 -2l2 -2l2 -2h2v4l4 2l-4 2l14 2l2 2h4v2h6h2l4 -2h-2h2h2v2l6 -2h2v2l-10 70l2 146h-2z" />
<glyph unicode="Z" d="M1186 1014l-22 -2l-56 -4h-26h-38l2 -4l2 -6l2 -2l4 -2v-4l4 -2l-2 -4l10 -8l4 2h4l2 -6v-4v-2h-4v-2l-4 -4l2 -2l2 -2l4 -4v-4l4 -4h2l4 -4l4 -126l36 2l60 2l70 4l4 -2l4 -4v-4v-4l-4 -4h-2l-2 -4l-2 -2h2l18 2l2 4l2 2l-4 2l4 4l-2 4l4 2l-2 4l4 8l2 -4l2 2l4 2h2 l-2 4l4 4v2v4v2h-4l-2 -2l-6 8l-4 8l2 4v2l-4 6v6h-2l-4 4l-2 2l-4 2l-4 -2v6h-2l-10 6l-6 6v4v4l2 4l2 4l2 6v4l2 4l-6 4h-2h-2l-2 -2l-6 -2l-4 6l-2 12l-2 2l-2 2l-8 6l-2 2l-4 2l-2 4l-4 4l-2 2l-2 4l-2 6v2l-2 6v6l2 4v2l-2 4l-8 4v2z" />
<glyph unicode="[" d="M1786 1830q102 -102 159 -236t57 -284v-528q0 -292 -200 -504q-94 -100 -220 -160t-268 -70v140v138q174 18 290 148q120 132 120 308v528q0 190 -135 324t-323 134h-986v-986q0 -176 118 -308q118 -130 290 -148v-138v-140q-140 10 -266 70t-220 160q-200 212 -200 504 v1264h1264q148 0 283 -57t237 -159zM1001 1006q69 0 118 49t49 118t-49 118t-118 49t-118 -49t-49 -118t49 -118t118 -49zM862 868v-410v-410h140h138v410v410h-138h-140z" />
<glyph unicode="\" d="M1786 1830q102 -102 159 -236t57 -284v-528q0 -292 -200 -504q-94 -100 -220 -160t-268 -70v140v138q174 18 290 148q120 132 120 308v528q0 190 -135 324t-323 134h-986v-986q0 -176 118 -308q118 -130 290 -148v-138v-140q-140 10 -266 70t-220 160q-200 212 -200 504 v1264h1264q148 0 283 -57t237 -159zM1001 1006q69 0 118 49t49 118t-49 118t-118 49t-118 -49t-49 -118t49 -118t118 -49zM862 868v-410v-410h140h138v410v410h-138h-140z" />
<glyph unicode="]" d="M1786 1830q102 -102 159 -236t57 -284v-528q0 -292 -200 -504q-94 -100 -220 -160t-268 -70v140v138q174 18 290 148q120 132 120 308v528q0 190 -135 324t-323 134h-986v-986q0 -176 118 -308q118 -130 290 -148v-138v-140q-140 10 -266 70t-220 160q-200 212 -200 504 v1264h1264q148 0 283 -57t237 -159zM1001 1006q69 0 118 49t49 118t-49 118t-118 49t-118 -49t-49 -118t49 -118t118 -49zM862 868v-410v-410h140h138v410v410h-138h-140z" />
<glyph unicode="^" d="M1786 1830q102 -102 159 -236t57 -284v-528q0 -292 -200 -504q-94 -100 -220 -160t-268 -70v140v138q174 18 290 148q120 132 120 308v528q0 190 -135 324t-323 134h-986v-986q0 -176 118 -308q118 -130 290 -148v-138v-140q-140 10 -266 70t-220 160q-200 212 -200 504 v1264h1264q148 0 283 -57t237 -159zM1001 1006q69 0 118 49t49 118t-49 118t-118 49t-118 -49t-49 -118t49 -118t118 -49zM862 868v-410v-410h140h138v410v410h-138h-140z" />
<glyph unicode="_" d="M1786 1830q102 -102 159 -236t57 -284v-528q0 -292 -200 -504q-94 -100 -220 -160t-268 -70v140v138q174 18 290 148q120 132 120 308v528q0 190 -135 324t-323 134h-986v-986q0 -176 118 -308q118 -130 290 -148v-138v-140q-140 10 -266 70t-220 160q-200 212 -200 504 v1264h1264q148 0 283 -57t237 -159zM1001 1006q69 0 118 49t49 118t-49 118t-118 49t-118 -49t-49 -118t49 -118t118 -49zM862 868v-410v-410h140h138v410v410h-138h-140z" />
<glyph unicode="`" d="M1786 1830q102 -102 159 -236t57 -284v-528q0 -292 -200 -504q-94 -100 -220 -160t-268 -70v140v138q174 18 290 148q120 132 120 308v528q0 190 -135 324t-323 134h-986v-986q0 -176 118 -308q118 -130 290 -148v-138v-140q-140 10 -266 70t-220 160q-200 212 -200 504 v1264h1264q148 0 283 -57t237 -159zM1001 1006q69 0 118 49t49 118t-49 118t-118 49t-118 -49t-49 -118t49 -118t118 -49zM862 868v-410v-410h140h138v410v410h-138h-140z" />
<glyph unicode="a" d="M394 1470l-10 -44l6 -8v-2l2 -6v-4v-4l2 -4h-2l2 -4l2 -2l4 -4l2 -2l2 -4v-4l4 -6l4 -2l-2 -2v-2l4 -4v-2h4v-4h2h4l4 -2l-4 -12l-2 -6l-2 -4l-2 -2l2 -2l-2 -4l2 -2l-2 -8h-4v-2v-4l-2 -4h2l2 -4h2l14 8l2 -4l2 -4v-8l2 -6l2 -6l2 -4l2 -4v-4l-2 -4v-2h2h2l6 -4l2 -6 l-2 -4l2 -2v-4l2 -2v2l4 2l8 -2h4l4 2h2l8 -2h6l2 -2l2 2l4 -2l8 8l4 -2l2 -6l2 -2l4 18l4 2l62 -8l60 -8l66 -6l44 -4l2 2l2 42l10 142l-22 2l-60 6l-50 6l-46 6l-72 10l-82 14z" />
<glyph unicode="b" d="M752 1132l-6 -92l32 -2l36 -2l4 -2l-2 -46l44 -2l90 -4h46h56v4l-2 2v4l-2 2l-4 4l-2 4l-2 4v4v2l-4 2l2 10l-2 6v4v4l-2 2v4l-2 4l2 2l-4 2v2h-4l2 2v4v2v4v2l-2 4v2l-4 6l-2 2l-2 4v4v2l-2 4v2v2h-2l-4 2l-2 2l-2 4h-4l-2 2h-2l-2 2h-2l-2 2l-6 4l-12 -2h-6l-2 -2 l-4 -2l-14 8l-4 4h-38l-58 2l-60 4z" />
<glyph unicode="c" d="M190 1172l-26 -106l-8 -32l112 -162l44 -66v2l4 4v6l-2 6l2 4v4v6v4l2 2l-2 6l2 4l4 4h4l4 -2h4l4 -4v-2l4 2l2 4l6 36l44 238l-46 8l-56 10l-44 10z" />
<glyph unicode="d" d="M1862 1350l-2 -2l-2 2l-2 -2v-2l-2 -6l2 -4l-2 -2l2 -4l-2 -6v-2l2 -4l2 -2v-4l-4 -6l-4 -6h-2l-2 -2v-2l2 -6l-2 -6l2 -4l-2 -2v-4v-4l-2 -2v-4v-4l2 -10v-6l2 -10l-2 -2v-4l2 -2l2 -2l36 8l4 4l2 4h2l2 4l4 2v2l2 4h-2l-4 4v4h-2l-4 4l-2 2v4v4l-4 8z" />
<glyph unicode="e" d="M1788 1136l-2 -2v-4v-2l-4 -10l-2 -2v0l2 -4v-4l-2 -4v-2l2 -2l4 -2v-4l2 -2h2l4 -4l8 -6l-2 -4l-4 -4l-2 -4h-2v-2v-4l-6 -4h-2l-2 -2l-2 -2v-6v-2v-2h2l-2 -2l6 -4h2l4 -2l4 -4l2 2h8l2 -6v-4v-2v2v4l2 2l2 6v2v4l4 4v0l2 4l-2 4l4 2v2l2 4l2 2l-2 2v4v4l-2 4h2l2 6v10 v2h-6h-2h-4v10l2 6h2v2l2 6v2v2z" />
<glyph unicode="f" d="M542 862l-34 -268l30 -4v2l2 14l2 6l64 -8v2l-2 6v4l34 -4l74 -6l36 -2l2 2l2 48l4 44l8 122h2v20l-40 4l-68 4l-56 6z" />
<glyph unicode="g" d="M1790 1318l-20 -6l-24 -6h-2l-4 -2l-12 -12l-8 -14v-4l-6 -8l-2 -2l-2 -4l-6 -4v-2l6 4v-4l8 2l-6 -8v-4h-2l2 -6l2 -4v-4l-2 -4h-4l-4 -4l-2 -2l-2 -4l-4 -4h-2l-4 -4h-2h-6h-6l-6 -4l-10 2h-12l-10 -2l-6 -2l-4 -2l-2 -2l-4 -2h-2l2 -4v-2h6v-4v-2l2 -6v-4l-4 -6l-2 -4 l-2 -4l-4 -4l-6 -6l-8 -6l2 -10l26 4l44 10l50 10l34 8v-2l4 -2v-2h2l4 -4l4 -6v-2l2 -2l6 -2l4 -2l4 -2l26 -10v4l-4 4v4l2 6l4 -8l2 -2l2 -6v-8v-2h2v4l2 4l-2 4v2l4 4v2l-2 4l-6 34l-2 2l2 30v4l-2 2v2l-6 30l-2 2l-2 -4l-4 8v4l-2 6l-2 4l-2 6v8h2v2l-2 4v4v2l-4 2v4v8 l-4 2l2 4zM1880 1144l-2 -2h-2l-2 -4zM1864 1136l-4 -2l-10 -2h-2l-2 -4h-4l-6 -4l-2 2l-2 -2v-4h-4v-2l-6 -4v-2h8l10 6h2l2 4h4l6 4l4 2l2 2h4l4 4h-6z" />
<glyph unicode="h" d="M1798 902l4 -12l2 -2l4 -6l2 -4l2 -2l4 -4l2 -2l-2 4l-8 8l-4 6zM1788 898l-24 -6l8 -10v-2v-2l2 -4h2l2 -2l4 4l-6 4h8l-2 4l8 -2h2l-2 2l-12 4l12 2l4 -2zM1762 892l-8 -2l-42 -8l-84 -16l-30 -4l-12 -2h-4l-2 -2v-2v-8h-4l-2 -4l-2 -6l-4 -4l-4 2l-4 -2l-2 -2l-2 -4 l-4 -2h-4l-2 2l-2 -2v-4h-4l-2 -4l-2 -4h-2l-6 -4l-10 -10h-2h-6l-6 -4l-2 -2l-2 -2v-6l-4 -4h-4v-10l44 8l10 4l2 2l6 4l6 2l4 2h2l36 4l14 2l2 -4l2 2l8 -6v-4v-2l44 6l50 -36l6 2l8 2h4l2 2v4l-4 10h6v-2v2l4 6l4 8l6 4l-2 2l2 2l-6 8l12 -4l4 6l4 -2l6 4h2l6 6v-2v2 l4 -4l2 4l-6 4l-6 -4h-8l-4 6l-12 14l14 -10l4 -2l2 -2h2l2 2l4 4h-4l2 6h4l-4 2h-4l-14 4l-2 2l2 4l8 -2h4h2v2v4h8v2l2 -2v2v-2l4 -6h2h6v2l4 10v4h4h2v2l-2 6v2l-2 -2h-4v-2l2 -6l-6 -6l-4 6l2 2h-2l2 4v4v2h-2l-2 -2l-2 -4l-6 2l-4 -2l-4 -2h-4l-2 4l-2 4l-2 4v2v4v0z M1820 868v-4l2 -2l2 -4v-12l-2 -2l-2 -2v-2l4 2v6v10v4zM1786 848l-2 -2h2v2zM1814 838l-2 -2l-2 -4zM1806 830l-2 -4zM1802 822l-4 -4l-2 -2v-4l-4 -8l4 10zM1794 820l-2 -2v-2l2 2v2zM1784 808l-2 -2l-6 -2h-4l8 2l6 2h-2z" />
<glyph unicode="i" d="M774 1418l-10 -140l58 -4l66 -4h62l60 -2v2v2l-2 6v4v2l-4 6v4v2l-2 4v12v2l-2 2v6v6v6l-2 4l2 2v4l-2 6l-4 10v2l-2 8l-2 4v6v2v4v4l2 6l-2 2l-2 10v2h-26l-64 2l-76 4z" />
<glyph unicode="j" d="M1578 1122l-16 -8l-10 -6l-2 -4l-4 -4l-6 -6l-6 -2l-4 2l-6 -4l-2 -2h-4l-2 -4l-6 2l-2 2h-6l-2 -4l-8 2l4 4h-2l-4 2l-4 2h-2l-8 2l-14 -2l-30 -6l6 -42l8 -78l4 2l2 -2h6l8 -2l2 -4l4 -6h2h6h4l6 -6v2l2 2h4h6l2 -2h2h2l2 4l4 2l6 4l2 -8l2 -2h4l2 -4l2 -2h2l4 2l2 2v4 l2 2v4v2v4l2 2v2v4l4 4l4 -2l2 -2l2 2l-4 4l4 4v2v4l4 2v2l4 6l6 -2l6 4l4 8l2 2l2 6v2v4l-2 4h2l2 2l-2 4l2 10l2 2l-2 8l-4 4l2 4h2l2 2z" />
<glyph unicode="k" d="M772 840l-2 -20l50 -2l40 -2h16l4 -2l4 -2l-2 -90l4 -4l6 -4l2 -2l2 2l4 -2h2l2 6l2 -4l4 -2l2 -4v-4h4v-2l4 2l2 -2l6 -2h2h6l2 -2v-2h2l4 4l6 -2l6 2v-6v-2h4l2 -4v-2h2l6 6l6 -2v-2h4v-4h2l4 2h6v-2l4 2v2l2 2l4 -2l4 -2l4 2l4 -2l2 -2l2 -2l4 -2h2h4l4 4l2 2l4 2 l4 -2h2l2 2l8 2l4 -4h2h2l2 4h6l8 -4l4 -4l4 -2l2 -2l6 -2v82l-2 14l-6 40v22h-46h-86l-86 2l-62 2z" />
<glyph unicode="l" d="M112 1402v-2l-2 -6l-2 -2l-2 -4v-2v-2l2 -4l-4 -4v-2l4 -6l-6 2v-2l-2 -2v-4l-2 -2v-4l-4 -4v-4l-6 -8v-6l-2 -6v-4v-2l-4 -2v-2l-2 -6l-6 -16l-2 -2h2v-6h-4l-2 -2l-2 -4v-2h2l-4 -10l-2 6l-4 -8v4l-4 -10l-6 -6v-6l2 -6l-2 -4l-2 -4v-2l-2 -4v-12l2 -4h2l76 -22l66 -16 l60 -14l40 -8l18 84l2 2l2 6l2 4l2 2l-2 2l-2 2h-4l-2 4l2 10l4 4l4 6l6 4l2 2l2 2v4l6 6l4 10l8 8v2v4l-6 6l-2 2l-2 4v2l-38 8l-28 8l-4 -2h-4l-4 2h-6h-2l-2 -2h-10h-6l-6 -2h-4l-4 2l-4 2h-2l-10 -2l-2 2h-8v4h-2l-4 2l-2 2h-6h-2h-2l-4 -2h-4h-6h-4l-2 2h-2l-4 2l-4 2 l-2 4l2 16l-2 4l-4 4v2h-2h-2l-6 2l-2 2l-2 2h-2h-2l2 -4l-8 4v2z" />
<glyph unicode="m" d="M1758 1160l-32 -6l-48 -10l-44 -10l-30 -4l-2 10l-10 -8h-2l-6 -4l-4 -2v-2l18 -104l36 8l62 12l70 14v2l2 4l4 2h4h4l2 2l2 2l2 2v2l2 2v2h2l2 4l4 2v2l-4 4l-4 2l-2 2l-4 2v2l-2 2l-4 4v6l2 4v2l-2 2l-2 4l4 4l4 6v4v4l4 2h-2l-4 2l-6 2l-2 4l-2 2l-2 6l-2 2h-4l-2 4 h-2z" />
<glyph unicode="n" d="M1892 1196l-10 -4l8 -22v-4v-2l8 6v2l-2 4v2l-2 4l2 4l-2 8z" />
<glyph unicode="o" d="M1614 794h-12l-36 -4h-2l-2 -2l-6 -2l-6 -4l-2 -2l-10 -4v-2l-6 -8v-2v-2l2 -2h4l6 -4h4l4 -4l2 -2l4 -4v-4l8 -8l6 -4l6 -4l4 -4l2 -2v-2h4l4 -4l4 -2v-2v-2l4 -2v-4h4v-2l2 -2h2l8 -6v-2l4 -6l2 -4v-2v-2l2 -2l6 -2l2 -4l2 -2l2 -4v-4v-2l2 -2l6 -2l2 4l2 6h-2v4l-4 4 h-4l4 2l-6 10l10 -8l4 2v4l2 -4l4 2h4h2h4v2l2 4l2 -2l2 2h2v2l4 2l-2 2l-2 8h6l2 -4l2 4l2 2h2l-2 4l4 4h4h2v2l2 2h-2l2 4h2v2l-4 2v6l2 4l6 2l6 12l8 8v2l-48 34l-44 -6l-2 2v2v4l-4 2h-4z" />
<glyph unicode="p" d="M764 1274l-2 -42l-2 -2l-6 -94l34 -2l60 -4l58 -2h40l4 -4l12 -6h2l2 4l8 -2l14 2l4 -4l4 -2l4 -2l2 2l4 -4l2 -2v4l2 4v2l2 4v4l2 2v2l-4 2l-2 6l2 2h2l-2 4l-2 6h6v84l-2 2h-2l-4 2l-4 6l-2 4v4l4 4h2l2 4v2h-58l-62 2l-66 4z" />
<glyph unicode="q" d="M1578 860h-2l-12 -2l-42 -6h-6l-12 -2l-4 -2h-14l-12 -2l-12 -2h-16l-10 -2l-20 -2l-18 -2l-20 -2l-16 -2l-16 -2l-4 2h-2v-4v-6l-54 -4l-2 -2l2 -4h-4l2 -4l-4 -2l2 -2l-2 -4l-2 -4l2 -2v-4l-2 -2l2 -2l-6 -4l-2 -2l2 -4l-4 -2l-2 -2l2 -2l-4 -8v0l2 -10l-2 -2h-2l-2 -2 l48 4l28 2l-2 2l60 4l42 4l36 6h14v12l6 2l2 2l2 4v4l4 4l6 4h6h2l10 8l6 6h2l2 2v8l4 -2v2l2 2l4 2l4 -2l2 2l2 2l4 4l6 2l2 -2l2 2l2 8l4 2l2 2v4v4h2z" />
<glyph unicode="r" d="M768 816v-2l-8 -116l-4 -44l-2 -50l-4 -4h-2l-36 2l-76 6l-28 4l2 -4l2 -4l2 -2h2l2 -2l2 -4l2 -4l2 -4l2 -2l6 -4l4 -2l6 -10l6 -6l2 -2l4 -6l2 -2l4 -2l6 -6h4v-4l2 -2l2 -4v-4l2 -2l4 -6l2 -4l-2 -4v-2v-6l6 -14l4 -4l4 -2l2 -2l2 -2l8 -6l2 -2l6 -2l2 -4l8 -4l4 -2 l2 -2h4v-2h2h2l2 2l2 2l2 4h4v2v4l2 2l6 12l2 4l2 2h4l4 2h2h2l2 4h6l4 -4h4h2h4h2l8 -2l4 2l4 -2l4 -4v-2l4 -4h2l2 -4l2 -2l4 -2v-2l10 -8l2 -6l4 -2l2 -8l2 -8l2 -4l2 -2l2 -2l2 -6v-6l4 -6l2 -2h4l2 -6l2 -2l2 -2l2 -4l2 -4l4 -6l6 -2l2 -2l2 -4v-2v-4v-4v-2l2 -2v-4v-2 v-2l2 -4l4 -6l2 -2l2 -8l2 -6l2 -2v-4h6l4 -2h2l4 -2l2 -2v-2l2 2l4 -2h4l6 -6l2 -2h12h8l2 -2h4l6 -6l4 -2v2l4 2l-4 6h2v6l-6 10v4l-2 10l-4 4v4v2l2 4h2v2l2 4v2h-4h-2l-6 -2l2 4h-2v4v2l-6 10l10 -8l2 -2h2l2 2l4 -2l4 14l-2 2l-2 4h-2l-6 4l8 2h8l2 -2l2 4l-4 4l2 4 l-2 4h6l4 2l2 -2l4 12v-12l2 2v2l-2 4l2 4v0v0l2 2l4 -6h2l6 4l-6 -2l2 4v2l-6 10h8l2 -2l2 -4l-2 6l4 2l2 -4h2l4 2l2 -4h4l4 2l8 4h6l6 4l4 2l2 2l6 6v4l6 4l2 4l2 2h2l-4 2v4l-2 2v4l-2 4l4 4l4 -2v2l4 2l6 -2v-6l-2 -2h4h10l2 2l10 4h6l-4 4l6 8l2 4l2 2l2 2l-2 8l-2 4 l2 4v6l2 4l2 2v4l2 2v4v2v2v4v2v2l-6 8v2v2l-2 2l-2 2l-2 4v6l-2 4l-2 4l-6 4l-2 74l-8 2l-4 -2l-4 4l-8 2l-4 2l-4 2l-6 4l-6 4l-2 -2l-4 -2h-4h-2l-2 4l-6 -2l-2 -2h-4h-4h-2l-2 -2l-4 -4h-4l-2 -4l-4 4l-2 2l-4 2l-2 2h-2l-2 -2l-6 2l-2 4v-2l-4 -2l-2 -6l-4 -2l-2 2 l-2 4v2l-4 -2h-4l-2 4h-2l-2 2l-2 2l-4 -6h-4h-4v6h-4l-2 6v0l-6 2l-4 -4h-4l-4 2v2h-2h-4l-6 2l-4 2l-2 -2l-2 2h-4l-2 4v2l-2 2l-2 2v-2h-4l-4 2l-2 -2l-4 2l-6 6l-2 2h-4v8l2 84h-2l-2 2h-16l-40 2z" />
<glyph unicode="s" d="M398 1128l-42 -234l32 -6l52 -8l50 -8l48 -6l24 188l-72 10l8 48l-40 6l-50 8z" />
<glyph unicode="t" d="M1790 956l-2 -6l-2 -6l2 -4h-2v-6h2v2v6v4l2 2l2 6l2 -2v6l2 6l2 4v4h-2l-4 -4l2 -2l-2 -6h-2v-4zM1790 912l-2 4h-6h-2v-2l4 -6l-8 4h-2l-8 -8l2 10l-2 2h-2l-2 4l-2 2h-2h-2h-4l-6 2h-12l4 6h4l6 2l2 -2v4l6 -6h2l4 2l-4 2l-12 10l12 -2l6 -4l4 -2l-4 4l4 2l4 -2v4 l-2 -2l-6 4h2v2h-4l-4 2v2l-6 2l-2 4l-4 2l-2 2l-2 2l-6 4l-20 2l22 2l4 -2l4 -2l2 -4h4l2 -4h2l6 -4h4v-2l2 2v2l-4 6v0l-6 2h-2v2l-2 2v2l-6 -2h-2h-2l-2 2l-6 4v2h-2l-2 -2l-4 -2l-4 2l-2 6h2l-2 2l2 8l-6 -4q-2 -2 -4 -2t-2 2q-4 2 -4 6l2 8l-6 6q-2 2 -2 4t2 2q0 4 4 4 h-2h-4v-4l-4 -4l-16 8h-2v-2v-2v-8l-2 -2l-2 -8l-4 -2l-2 -2l-2 -6h-4h-4v-2v-4l-2 -2v-8l-2 -4l-6 -2l-8 2v2l-2 2v-6v-4h-2l-2 -6l-2 -4v-2l-2 -8l-2 -4l-4 -6v-4l2 -4l-2 -2v-4l-2 -2l-6 -4h-4l-6 -4h-2l-2 -4l-4 -2l-6 -2l-4 -2l-4 2v-2l-8 -4l-6 2l-6 2l-4 4l-2 2 l-10 -10l-10 -8l-2 -2v-4l-2 -2l-2 -4l-2 -4h-4l-2 -2v-4l-8 -4h-2h6l42 6l12 2l4 2l6 -2l12 2l30 4l84 16l42 8l34 8l-6 10l8 -8v8z" />
<glyph unicode="u" d="M1850 1334l-46 -12l-10 -4l2 -2l-2 -2l4 -4v-6v-4l4 -2v-4v-4l2 -2v-4l-2 -2v-6l2 -4l2 -4l2 -6v-2l8 -6l6 -34v-2l22 4v2l-2 4v4l2 2l-2 10v6l-4 10l2 4v4l2 4v2v4l2 2l-2 4l2 6l-2 4v6l4 4h2l4 6l2 2v2v4l-4 2v4l2 6z" />
<glyph unicode="v" d="M184 1520h-2v-2l2 -4l2 -2l4 -2l-2 -4l2 -4l-2 -6h-2v-4h-2l4 -4l-2 -4v-6l2 -4v-4l-4 -4l-2 -2v-4l-2 -2l2 -2l-4 -4v-6l-4 -4l-4 -4h-2l-4 -4h-4h-2v2v0l-2 -6l-6 6v2l-10 4h12l2 4l4 2h-6v0l-4 4l4 4l6 6l2 2l8 10l-4 6l-4 -2v8h-2l-4 -2l-4 4h-6l-2 2l-6 2l-6 4l-2 2 l-2 2l-4 2l-4 6v-2h-2v-4l-2 -2v-2l-2 -4v-2l2 -2l2 -4l2 -6v-4l-2 -12l2 -8l-2 -10l4 -2l2 -2l10 -4l-12 -2l-6 -2v-2h2l6 -2l2 -8h-4l-2 2v-4l-2 -2l2 -4l-2 -4h4l2 -4h4l2 -2h2v-4l2 -2h2h4l2 -4l4 -2l2 -8l-2 -16l4 -2l4 -2h2l2 -2h2h6h2l4 2h4h4l4 -2h4l4 -2l4 -2v-2h4 l4 -2l8 2h4l4 -4h2h2l6 2h6h10l4 2h2h8l4 -2h2l2 2l32 -8l36 -6v8l-2 8l2 2l2 10l22 108l-28 6l-56 12l-48 12zM174 1510l-2 -2l2 -4l2 4v-4l2 4zM166 1508l-2 -4l2 -2l2 -2l2 4l-2 4h-2zM180 1494l-4 -4l-2 -2v-4l2 -4v-2l2 -4l2 -2v-2l4 2l-2 2l-2 4h-2v6l-2 2l2 2l4 2 l-2 2v2zM174 1468l-2 -2h2v2zM168 1462v-2h2zM164 1460l-4 -2l-4 -6v2l8 -2v0h6v2l-4 -2v6l-2 -4v6zM170 1450h-6v-2l4 2h2z" />
<glyph unicode="w" d="M1590 1044v-2l-2 -8l2 -4l-2 -6v0v-4v-4l-2 -6l-4 -4l-4 -6l-6 -6l-6 2v-2v-4l-6 -2v-2v-4l-2 -2l2 -4l-2 -4l-2 -6l-6 8l-2 -2v-2v-4l-2 -2v-2l2 -8l-4 -2v-4l-4 -4l-4 -2h-2h2v-4l-2 -6l6 -6l2 -4l2 -2l6 -8l6 -4h8v-4l2 -4l2 -2l6 -4h4l4 4l2 4l6 -2h2l8 2l2 2v6l6 -2 l6 4h4l4 4v2l2 2l-2 4v6l4 6l2 4l2 6v4l2 4l2 6h2v4v6l6 2l4 -4h4h2l2 2v6l2 4v4l2 4h4h2l4 6l2 2l2 2l2 6l2 2v6v2v4l6 4l16 -10v2v4v2l-2 2v2l-4 2v2h-4l-2 2l-4 2v-2l-2 -4h-4l-2 -2v-4h-6h-4l-2 2l-4 -8h-4h-2l-2 -2l-2 -4l-2 -4l-2 -2l-6 -6l-4 26l-38 -6z" />
<glyph unicode="x" d="M1198 1320l-2 -2l-2 -2l-4 -2h-4l-6 -4l-12 -4l-4 -2l-4 2l-2 2l-2 -4h-2l2 -24v-4l-2 -4l-8 -2l-4 -4l-2 -2l-2 -4l-2 -2v-2l2 -2h4l4 -8l-4 -10v-6v-2l2 -6l-2 -6v-2l4 -2l2 -4l4 -2h6l2 -4l2 -2h4l6 -4l4 -6l4 -6l4 -2h2l4 -2l4 -4l2 -4l2 -8v-4v-2l2 -2v-2v-2v-2h2 l4 -6l-4 -6l2 -4v-4l2 -4v-4l2 -2h2l10 -2l2 -6l54 2l42 4v6v2v2v4l-4 2v4l-2 2l2 4l-2 6v8l2 6v2v4l2 4v2l-2 6v4l2 6l2 4l2 2l-2 8l2 4v6l4 8v2l-2 2v2l-4 -2h-2v-2l-2 -4l-2 -4l-2 -2l-2 -4h-6l-2 6l2 4l2 6l2 4v4h4l2 2v2v2l-4 2v4l2 4h-2l-4 -2l-2 6l2 4v4l-2 4v2l-4 2 h-6v6l-2 2h-8l-2 2l-2 -2l-8 2v-2l-12 6l-32 6l-4 6l-4 2l-2 2h-2l-4 2l-4 2h-2l-2 -2h-8l2 4l2 4v2l2 4v2h-2z" />
<glyph unicode="y" d="M524 1254l-2 -2l-2 -20l-24 -164l70 -10l34 -4l58 -6l30 -4l54 -4l8 94l6 94l-44 4l-66 6l-60 8z" />
<glyph unicode="z" d="M1770 1000l8 4l-2 12l-6 20l-6 -4h-2l-2 -2l-2 -6l4 -2v-4l2 -2l-2 -2v-2h6l-4 -6l4 -6h2zM1776 988l4 10l-2 6l-6 -10h-6v-6l4 -2l2 -2l4 14v-10zM1802 992l2 -2v2l-2 4l-18 -6l-4 6v-12l4 -2l-2 -2l2 -2l6 2l-4 -8h2h2l4 4l4 2v2l2 2zM1756 978l-2 2l-6 4l-2 4l-2 6v10 l-4 -4l2 -8q0 -4 -2 -6h-2l2 -4l2 -4l2 8l2 -8l2 -2l2 2l6 -2l2 -2h4l-2 2zM1732 986h-2v-2h-2l2 -4v2v2l4 2h-2zM1712 1018h4l4 8q2 4 6 4t4 -4l4 -8l8 -2q2 0 4 -2l2 2v2l-10 6l6 2l-4 4l8 -2v2v2l2 4h2l4 6v2h4l6 4v-2l2 -2l-2 6l-68 -14l-10 -2l2 -2h6l2 -2v-2h2v-4 l2 -2v-2h6zM1642 1008l2 2l4 4v4h4h4l2 6v2l4 2l4 -4h2h2l2 2l2 4l-36 -6l2 -18zM1752 988l2 -2h2l-4 4l-2 6l-2 4v4v2v4v2v-2q0 -2 -2 -4l2 -12zM1792 954l2 -2v6l2 6l2 4v4h-2l-4 -4l2 -2l-2 -6h-2v-6l-2 -4l-2 -6l2 -4h-2v-6h2v2v6v4l2 2zM1790 912l-2 4l-6 -2l-2 2v-2 l4 -6l-8 4h-2l-8 -8l2 10l-2 2h-2l-2 4l-2 2h-2h-2h-4l-6 2h-12l4 6h4l6 2l2 -2v4l6 -6h2l4 2l-4 2l-12 10l12 -2l6 -4l4 -2l-4 4l4 2l4 -2v4l-2 -2l-6 4h2v2h-4l-4 2v2l-6 2l-2 4l-4 2l-2 2l-2 2l-6 4l-20 2l22 2l4 -2l4 -2l2 -4h4l2 -4h2l6 -4h4v-2l2 2v2l-4 6v0l-6 2h-2 v2l-2 2v2l-6 -2h-2h-2l-2 2l-6 4v2h-2l-2 -2l-4 -2l-4 2l-2 6h2l-2 2l2 8l-6 -4q-2 -2 -4 -2t-2 2q-4 2 -4 6l2 8l-6 6q-2 2 -2 4t2 2q0 4 4 4h-2h-4v-4l-4 -4l-16 8h-2v-2v-2v-8l-2 -2l-2 -8l-4 -2l-2 -2l-2 -6h-4h-4v-2v-4l-2 -2v-8l-2 -4l-6 -2l-8 2v2l-2 2v-6v-4h-2 l-2 -6l-2 -4v-2l-2 -8l-2 -4l-4 -6v-4l2 -4l-2 -2v-4l-2 -2l-6 -4h-4l-6 -4h-2l-2 -4l-4 -2l-6 -2l-4 -2l-4 2v-2l-8 -4l-6 2l-6 2l-4 4l-2 2l-10 -10l-10 -8l-2 -2v-4l-2 -2l-2 -4l-2 -4h-4l-2 -2v-4l-8 -4h-2h6l42 6l12 2l4 2l6 -2l12 2l30 4l84 16l42 8l34 8l-6 10l8 -8 v8zM1744 1012h-2l-10 2l-4 10q-2 2 -3 2t-1 -2l-6 -10l-10 -2l-2 -2l2 -2l6 -6l-2 -10q0 -2 2 -2q0 -2 1 -2t1 2l10 4l8 -4q0 -2 1 -2t1 2q2 0 2 2l-2 10l6 6l2 2v2zM164 512v-4v-2l2 -4l-2 -2l-2 -4l-4 -2v-2l2 -4v-2l2 -4l2 -4v-2l-2 -6l2 -4h2l2 -2h2h2l2 2l2 4h2l2 2 l4 2h2l4 2h4l2 4h2l2 2v4h-2l-4 4v2l-2 2l-2 4l-2 2l-10 6h-2l-4 2h-2l-4 4h-2zM124 536h-4l2 -4l4 -4v2l2 2l-2 4h-2zM134 540v-2l-2 -2l2 -4l6 -2h2v-4l2 -2h2l4 2h2h2l4 2l-2 4l-4 2l-2 2h-4h-4h-2l-2 4h-4zM114 546l-2 -4h6h2h4l2 -2h2l4 2l-2 4l-2 -2h-2l-4 2h-2h-4h-2 zM88 564h-2l-4 -4h-2h-2l2 -4l2 -2l4 -4h2v2h2l4 -4l2 2h4l-2 4v2h-4l-2 2zM16 576l-4 -2l-2 -2v-4l2 2l2 2l2 2v2zM34 586l-4 -2l-2 -2h-2v-4l2 -2l6 -4h2h2l2 2l2 4v2v2l-2 2h-4zM318 372l2 2zM374 316h-2v-2zM338 384l-2 -2h-2zM330 378h-2h2zM192 52l-2 -2l-2 2l2 -2h2 l4 -2h4h2h2l-6 2h-2l-2 2h-2zM154 54v-2h2zM212 54l-2 -2v-2l2 2h2zM152 54l-2 -2v-2l2 2v2zM240 56h-2v-2h2v2zM148 58l-2 -2v-2h-2l-2 -2l-2 -2l4 2v-2h2l4 2v2l-2 2v2zM138 58v-2h-6v-2l2 2l2 -2h2l2 2v2h-2zM158 58h-4l2 -2h2v2zM256 60l-6 -2l4 -2zM186 60l-2 -2v-2 l-2 -2h-2h-6h-4l2 -2l2 2l4 -2h2l2 2l2 -2h2v4h2v2zM124 62v-2l2 -2v-2v-2l4 4l-2 2l-2 2h-2zM114 64v-2v2zM76 70v-2h2l4 -8l2 2l-2 2v2l-2 2l-2 2h-2zM280 72h-2l-2 -2v-2v-2h-4l-2 -2v-2l-2 -4h-2h4l2 2h2l2 2l2 4h2l4 2l2 2v2h-2h-4zM92 74h-2l2 -2h2zM310 76h-2l2 -2v2 zM76 80v-2v2zM324 82h-2l2 -2v2zM302 82l-2 -2h-2l-2 -2l2 -2h2l2 -2h-4v-2l-2 -2h2h-2l-6 -2h-2h-2l-2 -2l2 -2l6 2l4 2h2h2v2h2l2 2h2h2l-2 2h-2v2h2l2 2v2l-2 -2h-2v2zM314 86l-2 -2v-2l2 -2l4 2l-2 2zM320 86l-2 -2l2 -2l2 2zM64 86l-2 -2h-6l2 -2l4 2zM360 90v-4h2v2 h-2v2zM366 100v-2h2v2h-2zM408 102l2 -2v2h-2zM346 104l-4 -2l-2 -2l-2 2l-2 -2l-2 -4l-4 -2v-2v-2l2 -2h2h4v4h2l2 2h2l6 -2l2 2v2l2 -2h2v2h-2l-2 2v2l-2 2l-2 2h-2zM376 104v-2v2zM406 106v-2l2 -2v4h-2zM402 108l-2 -2l-2 -2v-2v-2v-2l2 4l2 4v2zM396 110l-2 -2h2v2z M390 110l-2 -2v-2l2 -2l4 2l-2 2v2l-2 -2v2zM12 118h-2l-2 -2l2 -2h2v4zM416 124v-4l2 4h-2zM462 126l-2 -2v-2l2 2v2zM2 134h-2l2 -2v-2l2 -2h2h2h2l-2 2v2h-2l-2 2h-2zM440 142l-2 -2zM476 144l-2 -2v-2l2 2v2v0zM480 144h-2v-2h2v2v0zM492 160l-2 -2v-2h2l2 2l2 2h-2h-2z M778 178v-2h2v2h-2zM486 180v-2l2 -2h2l-2 2zM488 180l2 -2v-2v-2l-2 2v-4l-2 2v-2v2l-2 2h-2l-2 -2l2 -2h2l-2 -2l2 -2h-2v-4l2 -2l-2 2v2l-2 2v2h-2h-2l-4 -4l-2 -4l2 -2l2 -2v-2v-2l2 -2l2 -2l2 2v6l-2 -2h-2v2h2h2v-2h2l2 2l-2 -4h2l-4 -4v-2h2l4 4l2 2l-2 2h2v2h2l2 2 h2l-2 4h2h2l2 -2v2l-2 4h-2h2h2h4l2 4h-2l-2 2v2v2l-2 2l-2 -4l-2 -2v4h-2zM770 184v-2v-4l2 -2l6 -4h2v4l-4 2l-2 2l-2 2zM774 184v-2l2 -2h2l-2 2zM768 184l-2 -2v-2l2 2v2zM764 184l-2 -2l2 -2v2v2zM760 186l2 -2v2h-2zM762 188l2 -2zM798 188l-2 -2v-2l2 2v2zM808 188 v-2l2 2h-2zM764 188l2 -2v2h-2zM790 192v-2l2 -2h4l-2 4h-2h-2zM496 192h-2v-4h-2l-2 -2h2h-2v-4l-2 2v-2l2 -2h2v2l2 -2v2l2 2l2 2v-2h2v2h2l2 2v2l-2 -2v2h-2h-2zM750 192h-2l2 -2v2zM786 194v-2v-2h2v2v2h-2zM762 194h-2h-2v-2l2 -2v4h2zM754 194v-2v2v0zM390 196l-2 -2 l-2 -2l2 -2h2v2v4zM762 196l2 -2zM498 196h-2v-2h2v2zM760 206h-6v-2l2 -2h2h-2v-2l-2 -4l2 -2l2 2v2l2 2v2v-2l2 -2l2 -2v-2l-2 -2l2 -2h2l2 2v-2l4 -4h-2h-2v-2h2h2v-2l2 2h2v2l2 -2l2 -2v-2h2l4 -2v-2h2l2 2v2l-2 4l-2 -2l-2 2l2 2v2h-2l-2 2l-2 2l-2 -2v2l-4 -2v2l4 2h2 h-2l-2 2l-2 2l-2 2l-2 2h-2h-4h-2v2zM788 210h-2l-2 -2v-4h2l-2 -2l2 2l-2 -4l2 -2v-2v-2h2l2 2l-2 2l2 -2l2 2l-2 2l2 -2v-2v-2h2l-2 2l2 -2h2v2v4l-2 2v2l-4 4zM768 212h-2v-4v-2l2 -2h2l4 -2l2 2l-2 2v2l-4 2zM764 212l-4 -2l2 -2h2h2v2zM768 216l2 -6h4l2 -2v2l-2 4z M740 216l2 -2h-2v-2v-2h2h2l-2 -2l4 -2l-2 -2v-2l4 -4l2 -4v2l-2 2v2l2 -2v2l-2 4v2v4v2v2h-2v-2v-2v2l-2 2l-2 2h-2zM718 218l-2 -2l4 -4l-2 -2h2l2 2l-2 4zM760 220l-2 -2v-2l2 -2h2l2 2v2zM752 222v-2l-2 2h-2h-4l-2 -2l2 -2h2v-2l4 -6l2 -2l2 2h2l2 2l-4 4l-2 2h2l2 -2 l2 -2v4l-2 2v2h-2h-2zM728 224v-2h2zM720 224l-2 -4v-2l2 -2l2 2v-2l2 -2h2v-2l2 -4h2v-2v2v-2l2 -2v2v-2l2 -2l2 -2l2 -2h2v2l-2 4v2l-2 4l-6 8l-2 2l-2 2l-4 2l-2 -2l2 2h-2zM702 232v-4l2 -2v2v2l-2 2v0zM732 238l2 -2zM322 238h-2h-2l-2 -2h-4l-2 -2l2 -4h2l4 -4h2l4 -4 v4l2 -2l4 2h2l-2 4v6l-2 2l-2 -2l-2 2h-2zM546 238v-2l2 2h-2zM708 240l-2 -4h-2l2 -2l-4 2l2 -2l-2 -2l6 -2h-2l-2 -2l2 -2l2 -2l2 -2l2 2l2 -2l2 -2h-2l2 -2h2v4l-2 2l-2 2h2l8 -2h2v2l-2 6l-2 -2h-2h-2l-8 2h4h4l2 -2l2 2l-2 2h2v2l-2 2h-2h-2h-2l-2 -4h-2l2 2l2 2h-4z M550 240l-2 -2l2 2v0zM548 242l-2 -2v-2v2zM546 244l-2 -2l2 -4v2v4v0zM498 244v-2l2 2h-2zM718 246v-2l2 -2l2 -2l6 -10l2 -2l2 2v-2l2 -2v-8v-2l2 2v2l2 2v2l-2 2h2l2 2l-2 2v2l-2 2h-2l-4 4l-2 2v2l2 -2l2 -2h2l2 -2l2 -2l-2 2l-4 4l-2 2v2h-2h-4l-2 -2l-2 2zM546 248v-2 v2zM594 248h-2v-2v-2zM556 250l-2 -6v-2l-2 -2l-2 -4v-2l2 2l2 2l2 2v4l2 2zM548 252v-6v-2h2v2v2v2zM564 254l-2 -2v-2h2l-2 -2l2 2l2 2h2v2l-2 -2zM580 256v-2v2zM542 256l2 -2zM570 258l-2 -2v-2l4 4h-2zM544 262l-2 -2l2 -2l2 2zM430 510l-2 -2l-4 -4v-4l-2 -2l-4 -2 l-6 -2h-2l-4 -2v2v2l-2 -2l-4 -4l2 -2l2 -2h2h-4v-6l-2 2v2v4h-2l-4 -4l-4 -4h-2h-2h-2h2v2h-2l-4 -8l-4 -4l-2 -4v-4l-4 -4l-2 -6l-2 -2h-2l-2 -2h-10h-6h-2v-6l-2 -2l-2 -4h-2h4l2 -2l2 -4h2l2 -2l6 -6l2 -2l2 -2l2 -2v-2l2 -4v-4l2 -2l4 -2h4h2l2 2v-2v-2l2 2h4v-2l-2 -4 v-4l2 -2l4 -2l2 4h2l2 -2h2h2v-2v-4h-4l-2 2l-2 2h-2l-4 -2l-2 2v2l-2 2v2v2l-2 2h-4l2 -2l4 -4l2 -2v-2v-4l2 2h2l4 -2v-4v-2l-2 2l-2 2h-2v-2l-2 -2h2l-2 -2l-2 2l-2 -2l-2 2l-2 -2l-2 2h-4h-2h-2l-2 2v2h-2h2v4l2 2l-2 2h2l-2 2h-4l-2 -2h-2l-2 -2h-6l-2 -2l-2 -2l2 -2 v-2h-2l-4 2l-6 -4l-2 -2h-2h-2l-2 -2v-2h-4h-2l6 -6l2 -2h2l2 -2h2l-2 2l6 -2l2 -4l-2 2h-2l-2 -2l-2 -2l-2 2v2v-2l2 -2v-2l2 -2l2 -2l-2 -4l2 -2l2 -2l6 -2l4 -2l2 2h2h4h6h2l6 -4l-2 2v4h2l2 -2l2 -4l2 4h2l2 2l2 2l2 2l2 -2l2 2l2 2h2h-2l4 -2v-2v-2l-2 -2l-2 -2h-2 l-2 -2h4l2 -4v-6l2 -6v-2l-4 -4l-2 -2h-4h-2l-2 2h-2l-2 -2l-4 -6l-4 -4h-2l-2 2l-2 -2h-2l2 2l-2 2l-4 2h-2l-2 -2v-2l2 -2h-2h-2l-2 -2v-2v-2l2 -2l2 2l-2 -4h-2v-2h-2h-2l-8 -10v-2v-2v-2h-4v-2l2 -2h-2h-2v-2v-2l2 2l2 -2l-2 -2l2 -2l2 -2v-2v-2h2v2l4 4l4 4v2v-2l-2 -2 l-4 -2v-2v-2h2v-2l4 -2h-2l-2 -2v-2h2h2l2 -2h6h2l2 2v-2h-2h2l2 -4v-2h-2h-2v2l-2 2l-2 -2h-2l-2 -2l4 2l-2 2l-2 2h-2v2l-2 -2l-2 -2l-2 -2h-2v-4h4l-2 -2l2 -2l2 -2l2 2v-2l2 -2v-2l2 -2l2 -2h-2l2 -4h4h4h4l2 2l2 2h2h2v6h-2l2 2l2 2v4l2 2v2l2 -2l2 2l-2 -2l-2 -2v-2 l-2 -4v-2l2 -2v-2v-2v-2v-2l4 -8l-4 -6l2 -2l4 -4l-2 -2v-4v-2l-2 -2h-2h2l2 -2l4 4l2 2h2l2 2h2l6 4l2 -2v-2h2l2 -2h2l2 2v-2l2 -2l6 -8h2l2 2l-2 2l-2 4l2 2v4l2 -2l2 4v2v-2l6 -2v-2l-2 2l-2 2l-2 -2v-4l2 -2v-2h2h2l4 2l6 4h2l2 2v2l-2 -2v-4l2 -2l-4 -2v-2l-4 -2v-2 v-2l2 -2h2l2 -2l-2 2l-2 -2l-2 -2v-6l-2 -4l2 -2v-2l4 2l-2 -4h-2v4l-2 -2l-8 -6v-2l-4 -4v-2v-2v-2h-4h-2v-2l-6 -2l-4 -2l-2 -4l-4 -4l-2 -2v-4v-2l2 -2v-2h-2l-2 2h-2v-2h-2l-2 2v2h-2l-2 2l-6 -2l-6 -6l-4 -4v-2l-2 -2l-4 -2v-2l-2 2l-4 -2v-2v-2v-2l-2 -2h4l2 2l-4 2 l2 2h2l2 -2v-2l4 2l-2 2l2 2l-2 2h2l2 -4v-2h2l2 2l2 2v2h2l2 2v4l4 2h2v-2h-2v-2v-2h2h2l2 2h2h4l-2 2h2l2 -2l2 6h2h2v2l4 2h2v-2v-2l-2 -4l2 4l2 4l4 2h2l2 2h2l2 2l2 2l-2 -2l2 -2v4h2l-2 2l2 2h-2h-2l4 4h2h2h2v2l-2 2h2h2l2 2l2 2l-2 2l4 -2h2l-2 2h2l2 2h2l6 6l-2 2 l2 2h-2l4 4h2l-2 2h2h4l-2 2l2 2v2h2h2v2h2l2 2l2 2l2 2h2v2h2h2v2v2h-2l2 2h2l-2 2l2 2l2 2h2l2 2l2 6l-2 2h-2l-2 2h-2h-2h-2v2v4v2l6 2l-2 2l2 2h2l2 2v-2l2 2l2 2l-2 2h-2h2l2 2h2l2 4l-2 2l-2 2l-2 2h2l2 -2h2l2 4v2v2l4 6h2l-2 2l2 4l2 2h2l2 2l2 2l4 4v2v-2l2 -2l2 2 h2l2 4l2 2h2h2l-2 -2l-4 -4v-2v-2l4 -2h4l2 -2h-6l-2 2l-2 -2h-2l-4 2l-2 -2l-4 -6l-4 -2l2 -4v-4v-2v-2l-2 -4l-2 -2v-6l2 -2h2h2l2 2h2l-2 -4l-2 -2v-2h-2h-2l-2 -2v-2v-2l2 -2l2 2l2 2h2h2l-2 2l6 -2v2l2 4v2h2l2 4v-2v-2v2l2 2h2l-2 4l2 -2h2v2v2v2v-2l2 -2l-2 2l2 2v2 v2l4 -4v2h6l2 2v2l2 2v2h-2l2 2v2l2 2v2h-2l-2 -2l-2 2l-2 -2l2 2h2v2v2l-2 -2l-2 2h-2l2 2l-2 -2l4 4v2v2l-2 -2v2l2 2l2 -2l2 2v2l2 2l-2 -2v-2v-2v-2l2 -2l2 2v-2v4v4l2 -6v2l2 -2v2h2l2 2l4 4h2h2l-4 -2l-2 -2l2 -2l2 -2h2v2h2l-4 -4v-2l2 2l4 2l-2 -4l2 2h2h2v-2v-2h2 l2 -2h2l2 2v2l2 2l2 2v2v-2v-2v-2v-2v-2l2 -2l6 2l2 -2v-2h2h2l2 2l6 2l6 2h10h2l2 2v2l2 -2l2 -2l-2 -2h6h8h2l4 6v4h2l4 -2h2h2h-2l-2 -2v-2l2 -2l-2 2l-2 2v4l-2 -2v-2l2 -2v-2v-2l-4 -2l6 -2h2h2l2 -2h2h4h2v-2h2h2l4 -2l2 -2l4 -2h2v-2l6 -2h4h2l2 -2v2v2v2l4 -2l2 2v2 l-2 2l-2 2l-2 -2v2h-2l-2 2h-4h-2l2 2l-2 2l2 -2l2 2h2l2 -2l2 -2l2 2v2l-2 2h4l-2 -2l2 -2l4 -6l-2 -2h2l2 2h4v-2l2 -2l2 2v2l-2 4l-2 2h2l-2 2l-6 6v2l-2 2l2 -2l-2 4h-2v4l2 -4l2 -2l4 -4v-2l2 -2h2v-2l4 -4l2 -2h2v0l2 -2h4l-4 2h2h2v8h2l-2 -2v-2l2 -2v-2v-2l2 -2h2v2 v2v-4l2 -2h2v2h6h-6l2 -2l2 -2h2l2 -2h2h-4h-4l2 -2h2v-2h2v-2h4l-2 -2h-2v-4h2l2 2h2l2 -2l2 2l2 -2v-2h2l2 -2l2 2l-2 -2l2 -2l2 2l2 -4h2l2 -2h2l2 -2h2h2h-2l-2 -2l2 -2v-4v-2l-2 -2l2 -4h2h2l-2 2h2v4l-2 2l4 4l2 2l2 4v-2v-2l4 -2l2 -4l2 -4l2 -2h2l-2 -2v-2v-2h2l2 2 v2l2 4l-2 -4v-2l-2 -2v-2l2 -4h4l-2 4l2 -4l2 4l2 2v2v6v2l-4 6l-2 2l-2 2v2v2v2l-2 2l-2 -2h-2l-4 2h-2l-2 2l-4 -2l-2 2h-4h-2l-2 -2l-2 2l-2 2l-2 2l-2 2l-2 2h-2v2l-2 2l-2 2l-4 2l-6 6l-4 2l-2 2l-4 4l-2 2l-4 2l-4 2l-2 2h-4h-2l-4 6h-2h-2h-2l-4 4v4h-2l-2 2h-2h-2 l-2 -4l-2 -2h-2v-4l-2 -4l2 -2v-2l-2 -2l-4 -4l-2 -2v-4l-6 8l-16 8l-2 2l-2 2h-4l-2 2v2v2l-2 2l-4 -2l-4 -4h-4l-2 -2h-6v2l-60 204l-6 16h-2h-2l-2 2h-2l-6 2l-2 2h-2h-2l-2 -2l-2 2h-2l-2 -2v-2h-2l-2 -2h-4h-2h-2l-4 2h-2h-2h-2h-2l-2 -2h-4l-2 2l-2 2h-2l-2 -2l-2 2 l-2 2h-2h-2h-2h-2l-2 -4h-2l-2 2h-2l-2 -2l-2 -2l-2 2h-4l2 2h-2h-4h-2h4l-4 2l2 2v2h-2h-2l-4 2l-2 -2h-2l-4 -2h-2l-2 2v2v2h-2v-2l-2 2l-2 -2l-2 -4h-2l-2 2l4 2v2v2h-2h-2l-2 2h-2zM1864 1136l-4 -2l-10 -2h-2l-2 -4h-4l-6 -4l-2 2l-2 -2v-4h-4v-2l-6 -4v-2h6l12 6l4 4 h4l6 4l4 2l2 2h4l4 4h-6zM1880 1144l-2 -2h-2l-2 -4zM1790 1318l-20 -6l-24 -4h-2l-4 -4l-12 -12l-8 -14v-4l-6 -8l-2 -2l-2 -4l-6 -4v-2l6 4v-4l8 2l-6 -8v-4h-2l2 -6l2 -4v-4l-2 -4h-4l-4 -4l-2 -2l-2 -4l-4 -4h-2l-4 -4h-2h-6h-6l-6 -4l-10 2h-12l-10 -2l-6 -2l-4 -2 l-2 -2l-4 -2h-2l2 -4v-2h6v-4v-2l2 -6v-4l-4 -6l-2 -4l-2 -4l-4 -4l-6 -6l-8 -6l2 -10l26 4l44 10l50 10l34 8v-2l4 -2v-2h2l4 -4l4 -6v-2l2 -2l6 -2l4 -2l4 -2l26 -10v4l-4 4v4l2 6l2 -8l4 -2l2 -6v-8v-2h2v4l2 4l-2 4v2l4 6l-2 4l-6 34l-2 2l2 30v4l-2 2v2l-6 30l-2 2 l-2 -4l-4 8v4l-2 6l-2 4l-2 6v8h2v2l-2 4v4v2l-4 2v4v8l-4 2l2 4zM1892 1196l-10 -4l8 -22v-4v-2l8 6v2l-2 4v2l-2 4l2 4l-2 8zM1926 1472h-2l-2 -4l-4 -2l-2 -4h-4l-4 -4l-4 2l-4 2l-2 6h-2h-2l-12 -40l2 -14l-4 -4v-8v-2v-6l4 -4l-4 -6l2 -4l-6 -6l-2 -4v-2l6 -10l-8 2 l2 -4l-6 -4l-2 2h-2l2 -2l22 -68l4 -10v-4v-2l2 -2l2 -2l4 -2v-4l2 -2l2 2v2v4v4l4 2v4v4l2 6v4v4l8 10v6l8 12l-2 -14v2l4 2v0l6 4l-2 -4l2 2h4h2h2v4v2v4v2v4l2 2l-4 4l6 4l-2 12l8 -10v-2h2v-4h2v2v2v10l6 -6v6l10 -4v2l4 2v10l2 -4l2 2l2 -2h4v2l2 2v4l-2 2h10h2l2 6 l-2 -2l-6 6l2 2l-4 8h-2l-2 -4l-6 4l-2 4v4l-2 2l-2 4l2 2h-4h-2l-4 2l-4 -2l-2 6v2v4v2l-4 10l-14 40h-2l-6 4l-6 4h-2zM1862 1350l-2 -2l-2 2l-2 -2v-2l-2 -6l2 -4h-2l2 -6l-2 -6v-2l2 -2l2 -4v-4l-4 -6l-4 -6h-2l-2 -2v-2l2 -6l-2 -6l2 -4l-2 -2v-4v-4l-2 -2v-4v-4l2 -10 v-6l2 -10l-2 -2v-4l2 -2l2 -2l36 8l4 4l2 4h2l2 4l4 2v2l2 4h-2l-4 4v4h-2l-4 4l-2 2v4v4l-4 8zM1878 1192h-4l-18 -6h-2h-2l-6 -2h-4l-18 -4l6 -32l2 -4v-4l-4 -6h2l6 6l2 2l4 4l2 -2l4 6h4l2 2h4l2 2l8 2l-4 6l8 -2v-2l6 4l6 2l2 2v4zM1926 1196v-6v-4h2l2 2l2 4h2h2l-4 2 l-4 -2l-2 2v2zM1946 1200l-2 -2l-4 -4l2 2h2l2 2v2zM1900 1242l-2 -2l-2 -4h-2v-2l-4 -6l-40 -8l-26 -6v-2l-2 -28h2l18 4h4l6 2h4l22 6h2l12 4l4 -4l2 -2l2 -2v-2l2 -2h2v2h4v-4l2 -2v-2h4v4l4 2l2 4l6 4l-2 4h-4l-4 2v6l-4 4h-2l-4 -2l-4 4l-4 6h4v2l2 2v2l2 4l2 2l-4 4 l-2 2l-2 2v2zM1784 808l-2 -2l-6 -2h-4l8 2l6 2h-2zM1794 820l-2 -2v-2l2 2v2zM1802 822l-4 -4l-2 -2v-4l-4 -8l4 10zM1806 830l-2 -4zM1814 838l-2 -2l-2 -4zM1786 848l-2 -2h2v2zM1820 868v-4l2 -2l2 -4v-12l-2 -2l-2 -2v-2l4 2v6v10v4zM1762 892l-8 -2l-42 -8l-84 -16 l-30 -4l-12 -2h-4l-2 -2v-2v-8h-4l-2 -4l-2 -6l-4 -4l-4 2l-4 -2l-2 -2l-2 -4l-4 -2h-4l-2 2l-2 -2v-4h-4l-2 -4l-2 -4h-2l-6 -4l-10 -8l-2 -2h-6l-6 -4l-2 -2v-2l-2 -6l-4 -4h-4v-10l44 8l10 4l4 2l4 4l6 2l4 2h2l36 4l14 2l2 -4l2 2l8 -6v-4v-2l44 6l50 -36l6 2l8 2h4l2 2 v4l-2 10h4v-2v2l4 6l4 8l6 4l-2 2l2 2l-4 8l10 -4l4 6l4 -2l6 4h2l6 6v-2v2l4 -4l2 4l-6 4l-6 -4h-8l-4 6l-12 14l14 -10l4 -2l2 -2h2l2 2l4 4h-4l2 6h4l-4 2h-4l-14 4l-2 2l2 4l8 -2h4h2v2v4h8v2l2 -2v2v-2l4 -6h2h6v2l4 10v4h6v2l-2 6v2l-2 -2h-4v-2l2 -6l-6 -6l-4 6l2 2 h-2l2 4v4v2h-2l-2 -2l-2 -4l-6 2l-4 -2l-4 -2h-4l-2 4l-2 4l-2 4v2v4v0zM1788 898l-24 -6l8 -10v-2v-2l2 -4h2l2 -2l4 4l-6 4h8l-4 4l10 -2h2l-2 2l-12 4l12 2l4 -2zM1798 902l4 -12l2 -2l4 -6l2 -4l2 -2l4 -4l2 -2l-2 4l-8 8l-4 6zM1850 1334l-46 -12l-10 -4l2 -2l-2 -2 l4 -4v-6v-4l4 -2v-4v-4l2 -2v-4l-2 -2v-6l2 -4l2 -4l2 -6v-2l8 -6l6 -32v-2v-2l22 4v2l-2 4v4l2 2l-2 10v6l-4 10l2 4v4l2 4v2v4l2 2l-2 4l2 6l-2 4v6l4 4l6 6l2 2v4v2l-4 2v4l2 6zM1788 1136l-2 -2v-4v-2l-4 -10l-2 -2v0l2 -4v-4l-2 -4v-2l2 -2l4 -2v-4l2 -2h2l4 -4l8 -6 l-2 -4l-4 -4l-2 -4h-2v-2v-4l-6 -4h-2l-2 -2l-2 -2v-6v-2v-2h2l-2 -2l6 -4h2l4 -2l4 -4l2 2h8l2 -6v-4v-2v2v4l2 2l2 6v2v4l4 4v0l2 4l-2 4h4v4l2 4l2 2l-2 2v4v4l-2 4h2l2 6v10v2h-6h-2h-4v10l2 6h2v2l2 6v2v2zM1804 1002l-8 -4l10 2zM1776 1058h-2l-2 -2l-2 -2v-2l10 -34 l4 -20l2 -2l8 2l6 8v4l2 2h-4l-6 6l-2 2l-4 4l-2 4v4v2l-4 2l-2 4l-2 4v2l-4 4l2 2l2 4v2zM1766 1038h4l-2 4zM1756 1040v-4l2 2zM1758 1160l-32 -6l-48 -10l-44 -10l-30 -4l-2 10l-10 -8h-2l-6 -6h-4v-2l18 -104l36 8l62 12l70 14v2l2 4l4 2h4h4l2 2l2 2l2 2v2l2 2v2h2l2 4 l4 2v2l-4 4l-4 2l-2 2l-4 2v2l-2 2l-4 4v6l2 4v2l-2 2l-2 4l4 4l4 6v4v4l4 2h-2l-4 2l-6 2l-2 4l-2 2l-2 6l-2 2h-4l-2 4h-2zM1658 668h-2l2 2h-2l-2 2l2 -6h2v2zM1614 794h-12l-34 -4h-4l-2 -2l-6 -2l-6 -4l-2 -2l-10 -4v-2l-6 -8v-2v-2l2 -2h4l6 -4h4l4 -4l2 -2l4 -4v-2 l8 -10l6 -4l6 -4l4 -4l2 -2v-2h4l4 -4l4 -2v-2v-2l4 -2v-4h4v-2l2 -2h2l8 -6v-2l4 -6l2 -4v-2v-2l2 -2l6 -2l2 -4l2 -2l2 -4v-4v-2l2 -2l6 -2l2 4l2 6h-2v4l-2 4h-6l4 2l-6 10l10 -8l4 2v4l2 -4l4 2h4h2h4v2l2 4l2 -2l2 2h2v2l4 2l-2 2l-2 8h6l2 -4l2 4l2 2h2l-2 4l4 4h4h2 v2l2 2h-2l2 4h2v2l-4 2v6l2 4l6 2l6 12l8 8v2l-48 34l-42 -6l-4 2v2v4l-4 2h-4zM1590 1044v-2l-2 -8l2 -4l-2 -6v0v-4v-4l-2 -6l-4 -4l-4 -6l-6 -6l-6 2l-2 -2v-4l-4 -2v-2v-4l-2 -2l2 -4l-2 -4l-2 -6l-6 8l-2 -2v-2v-4l-2 -2v-2l2 -8l-4 -2v-4l-4 -4l-4 -2h-2h2v-4l-2 -6 l6 -6l2 -4l2 -2l6 -8l6 -4h8v-4l2 -4l2 -2l6 -4h4l4 4l2 4l6 -2h2l6 2l4 2v6l6 -2l6 4h4l4 4l-2 2l4 2l-2 4v6l4 6l2 4l2 6v4l2 4l2 6h2v4v6l6 2l4 -4h4h2l2 2v6l2 4v4l2 4h4h2l4 6l2 2l2 2l2 6l2 2v6v2v4l6 4l16 -10v2v4v2l-2 2v2l-4 2v2h-4l-4 2l-2 2v-2l-2 -4h-4l-2 -2 v-4h-6h-4l-2 2l-4 -8h-4h-2l-2 -2l-2 -4l-2 -4l-2 -2l-6 -6l-4 26l-38 -6zM1772 926l-2 2l-2 -2l-6 2l4 -2l2 -2l4 -2v-2h2v2h2l-2 2zM1790 898h-2l4 -4l-2 2v2zM1534 776l-44 -8h-16l-32 -6l14 -42l14 -52l2 -2v-4l2 -2l2 -6l4 -4l2 -6v-4h2l2 -6l-4 -2l-2 -2v-6v-4l-2 -4 l2 -6l4 -4v-4v-4v-2v-8v-2l2 -2l4 -6v-2l4 -6v-2l2 -2l104 8l6 -4l2 -6l2 2v6v2l-2 2v4v6h2l4 2l4 -2l8 -2h2h2v2l-2 2v6h-2l2 4l-2 2h2h-2l2 8l4 -2l2 4h-2h-2l-8 4l6 2h4v4l2 -2v2l-4 4l4 2l-4 8l4 -2l-2 2l6 2l-2 2v8l6 -2v2l4 2h-2l-2 2h-6l-4 4v4v2l-2 4l-2 2l-2 2 l-4 2l-4 4v4v2l-2 2l-4 6v2l-4 4h-4l-4 4l-4 2v2l-2 2l-2 4v2h-2l-4 4h-4l-2 4l-2 2l-2 4l-6 2l-8 4l-8 12v2l-4 4v2l-4 2h-4l-6 4h-2l-4 4l-2 4v4zM1578 1122l-16 -8l-10 -6l-2 -4l-4 -4l-6 -6l-6 -2l-4 2l-6 -4l-2 -2h-4l-2 -4l-6 2l-2 2h-6l-2 -4l-8 2l4 4h-2l-4 2l-4 2 h-2l-8 2l-14 -2l-30 -6l6 -42l8 -78l4 2l2 -2h6l8 -2l2 -4l4 -6h2h6h4l6 -6l2 4h4h6l2 -2h2h2l2 4l4 2l6 2l2 -6l2 -2h4l2 -4l2 -2h2l4 2l2 2v4l2 2v4v2v4l2 2v2v4l4 4l4 -2l2 -2l2 2l-4 4l4 4v2v4l4 2v2l4 6l6 -2l6 4l4 8l2 2l2 6v2v4l-2 4h2l2 2l-2 4l2 10l2 2l-2 8l-4 4 l2 4h2l2 2zM1680 492l2 -2zM1610 424v-2l4 -2zM1624 402l4 -4l2 -2v2l-8 6zM1614 584l-2 -2v-2v-2l2 -4v-2v-8l-4 -4h-6l-2 8l-2 2l-106 -8l-4 4v2l-4 6l-62 -8l-38 -4h-2v-2l4 -6l2 -2l4 -4l-2 -4v-2l4 -2v-2l-2 -4l2 2l4 4v2l-2 2l6 4v-2l4 10l2 -10l4 -4v-2l2 2h4l-6 2 h12l6 6l2 -4v2h6l6 -2l2 -6l8 -2l-2 2l6 2l4 -2l8 6l-2 -10h-4l2 -2h4l2 -2h8l-6 -6h2l4 -4l2 -4v-4l2 2l6 2h2l6 4l2 -2l10 8l4 2h-2l2 4h2v2l4 4h6h4h2l8 -4h2l8 -4l4 -6l6 -2l2 -6v-2l10 -6l2 -2l2 -2l2 -2l2 -2l6 2l6 -6v-4l2 -2l4 -2v-4l2 -2v-8v-4v-2l-2 -16v-4v-6 l-2 -4l6 -4h2v4h-2l-2 2v2l-2 4v4l10 -6l2 2l6 -4v-4l-6 -10v-6l4 -6l-2 2l2 -4v-2l6 -10h10l2 -2l6 4l2 -4l-4 -2l2 -2v-8v-2l2 -2h2v4l18 14l-14 -18v-2l-2 -2l2 -2l4 -2l4 -12l4 -6h12l-6 -2h4l6 -4l2 -2l2 -2l4 -6l2 -4l4 -4l2 -2h4l6 -4l-2 -2l2 2l4 -2h2l2 2l2 2l2 2 l-8 4l12 -4l2 4l2 2l-2 6v2v2l2 4v4l2 2v2l2 6l-2 8v8v4v14l-4 10l-2 2v4l-4 4l-2 2l-6 -4l4 8l-4 6l-6 12l-10 16l-12 18l-4 10l-4 8h6l-14 18l-10 16l-6 10l-4 10l-2 4l-2 6l-2 6v2l-4 4l-4 6h-2l-10 2zM1692 324l4 2l-4 2h-2v-2zM1408 1284l-4 -2l-2 -2v-2l-4 -4l2 -4 l2 -2l2 -6h-6h-4l-2 -2l-2 -2l2 -10v-4v-2l-2 -4l-8 -10v4v-2l-2 8l2 4l-2 2v4v-2l-2 -2l-2 -6l-4 2l-2 -4v-4l-4 -2l-2 -2l2 -6v-6v-2v-4l-4 -10l-2 -2v-2v-4l4 -10l-2 -4l-2 -2v-2l8 -14l8 2l-6 -6l4 -10l2 -12v-10l-2 -10v-4l-4 -6l-2 -10l-2 -2l-2 -4h12l52 6l2 -2l32 6 l14 2l2 6l4 8v10l2 4l2 2l2 2l2 2v6l2 4l2 4l6 2l2 -4v6v2v8h2l-2 2l-2 4l-2 4l-4 14l-2 2l-2 12l-4 6l-2 2l-2 2h-2l-6 -4h-2l-4 -4v-2l-2 -6l-4 -2v-4l-4 -4l-4 2h-4l-4 4l-2 6l2 8l4 2l2 2l2 2l2 6v4l4 2l2 2l-2 10l2 6l-2 6l-2 2l-2 2l-2 4v6h4l-2 2l-2 4l-2 2h-2h-2 l-4 2l-6 2l-4 2h-2h-4l-2 4l-2 2h-2h-4h-2l-4 2h-4v2zM1270 1336l-6 -6l-2 -2l-6 -4l-2 -2l-4 -2l-4 -2h-4l-2 -2h-4h-2l-6 -8l-8 -4h2l2 -4l4 -4l32 -6l10 -4l6 -2l4 2l4 -2l8 -2l4 -2v-4h2l6 -2l4 -4v-2v-2v-8l-2 -2h2h6l-2 -8v-2h2l2 6l4 8l2 6l2 4l2 2l2 8l2 4l4 -2v-2 v-4l2 2v2l4 2l4 2h6l-2 -4l4 2v2l2 4l4 2h4h2l6 2h2l2 2l4 4l6 2l4 -2l4 2l6 -4l6 -4v2l2 6h4l4 -2l2 2h14v0l-4 2v2h-2l-4 4v4l-2 2v4l-2 2h-2v-4l-6 -2l-2 2l-6 -2l-6 2l-2 4l-2 10l-2 -2h-4l-6 -4l-2 -2h-12h-4l-4 -2l-4 -2l-6 -4l-4 -8l-4 2h-4h-4l-2 2l-6 -2h-4l-4 2 l-2 4l-6 6l-2 2h-2l-2 4h-4h-4l-2 -2l-4 -2l-6 -4l-2 -2l-2 6v6l-4 6zM1438 762l-42 -4l-54 -4l4 -2l-2 -148l8 -70h2h6h2v8v4l2 2l-2 10l6 -8h2l2 -6v-2v-4v-2h2l2 2l4 -6v-2h2v2l-2 4l6 -2l2 2l2 4l-2 4l2 4l-2 2h-4l-6 8l2 6l4 2l38 4l62 8l-2 4l-2 2v4v8v2v4v2l-4 4 l-2 6l2 8v2v6l4 4l2 2l-2 2h-2v6l-2 4l-4 4l-2 6l-2 4v2l-2 2l-14 52zM1426 1090l-48 -6l-20 -2l-6 -4l-6 -2l-4 -2l-6 2l10 -110l-2 -4l2 -2l-2 -4v-2l2 -4l2 -2v-4l2 -6v-6h-2l-2 -4l-2 -4l-4 -8l-2 -2l-2 -2v-2l-2 -10v-2l8 -2l4 2v0l2 2v-2l4 2h4l10 -4h2v2l2 4h4l4 4 l2 -4h4v-2v2l2 2v4l4 4h2l-4 8l10 -4l2 -6h2h6l2 2l-2 4l4 8h4h2v8l4 2l2 2v2v4l-2 4l6 2h4l2 -2l6 4l6 2l-4 4l2 4l-2 4v2l-8 80l-6 42zM1334 896v-2v-2h2zM1450 964h-4l2 -4l-2 -2l4 -4l-2 -6l-6 -2l-8 -4l-4 2h-2v-2v-4v-4l-4 -4l-2 -2v-6l-6 -2h-2l-2 -4l2 -4l-2 -4 l-4 -4l-8 2l-4 2v2l-4 -2l-2 -2l2 -2l-4 -4v-6l-6 4h-4v2h-2l-2 -2l-2 -2l-4 -6l-4 4l-8 2h-4v-4l-8 -2v2h-4l-2 -6l-4 2v-4l-2 -2v-2l2 -4l-2 -4l-6 -2l-4 -2h-2v-2v-2l2 -4l2 -4l-4 -6l-6 2l-2 2h-6l-2 2h-2h-2l-4 -6l2 -2v-4v-4v-4l-2 -2l2 -2l-2 -6l40 2v2l-2 8h10l2 -2 l16 2l16 2l18 2l20 2l18 2l10 2h18l12 2l12 2h14l4 2l6 4h2l4 2l6 2v4l4 2l4 2v2l2 4l2 2v4l4 4l10 8l10 10h-4l-6 4l-8 10l-2 2l-2 4l-6 6l2 8v2l-2 2v2l-2 2l-2 2h-4l-4 4v4l-2 -2l-4 -2l-2 -4h-2l-4 -2l-4 4h-4l-2 -2l-6 -2l-6 6h-2h-6h-4l-6 6v4l-6 2h-6h-2zM1288 824h4 l-2 2zM1280 822h4l-2 4zM1578 860h-2l-12 -2l-42 -6h-6l-12 -2l-4 -2h-14l-12 -2l-12 -2h-16l-10 -2l-20 -2l-18 -2l-20 -2l-16 -2l-16 -2l-4 2h-2v-4v-6l-54 -4l-2 -2l2 -4h-4l2 -4l-4 -2l2 -2l-2 -4l-2 -4l2 -2v-4l-2 -2l2 -2l-6 -4l-2 -2l2 -4l-4 -2l-2 -2l2 -2l-4 -8v0 l2 -10l-2 -2h-2l-2 -2l48 4l28 2l-2 2l60 4l44 4l34 6h14v12l6 2l2 2l2 4v4l4 4l6 4h6h2l10 8l6 6h2l2 2v8l4 -2v2l2 2l4 2l4 -2l2 2l2 2l4 4l6 2l2 -2l2 2l2 8l4 2l2 2v4v4h2zM1338 752l-26 -2l-52 -4l2 -4l-6 -4h-2v-6h2l-6 -4h2l-2 -6v-2l-2 -4l-2 -2h-2v-2l-2 -2l-2 -4 v0v0h-2v-2l2 -4l-6 -4v-4v-2v-4l2 -2l-6 -4v-2l-2 -2v0l4 -4l4 4l-4 -10v-2h2v-8v-2h-2v-4l2 -2l2 -6l-4 -2l6 -4l-4 -4l8 2l-4 -6l4 -6h-2v-2h4v-2v-4h-4l-2 -2l-2 -2l8 2l-6 -8v-2l-8 -10h-2l2 -2l-4 -6v-2l-2 -4l-2 -2l2 -6l-2 -2v-4h-4l2 -2l-2 -4l4 -4h-2l36 2l40 4v-4 v-4l-2 -6v-4v-2l2 -4l4 -4l2 -2l2 -4l-2 -2l2 -2l2 -2h2v4l4 2h-4l14 4l2 2h4v2h6h2l4 -2h-2h2h2v2l6 -2h2v2l-10 70l2 146h-2zM1318 1114l-42 -4l-52 -2l6 -6l2 -4l2 -2l4 -2l2 -2l2 -4l-2 -12l-4 -4v-8l-4 -4l-6 -2l-4 -2l-10 -2v-2l-2 -4l6 -6v-8l-4 -6v-2v-4l-2 -4 l-8 -4v-2v-2v-4l-2 -2l-2 -4v-2v-6l2 -4v-2l2 -6l2 -4v-2l4 -4l4 -2l4 -2v-4l8 -4l4 -2l2 -4l2 -14l2 -2v2l2 2h4h4h2l8 -6v-2l-2 -4v-6l-2 -4l-2 -6l-2 -2v-4v-2l6 -4l8 -6h2l2 -4v2l8 -4l2 -4l2 -2l4 -2v-6l4 -8v-4l-2 -2l4 -6l2 -4l4 2v0l4 8h4h6l2 -2l6 -2h2l2 -2l2 2 l-2 2l-2 4v4v4l4 2l4 2l6 2l-2 4v4l2 2v4l-2 4l2 2v8h2v4v6l4 2l2 4l4 6v2l4 8v2l-2 6v2l-2 2l-2 6v4v2v4l2 4l-10 112l-4 4v4l-2 2v4l-4 4l-4 6v4v6zM1198 1320l-2 -2l-2 -2l-4 -2h-4l-6 -4l-12 -4l-4 -2l-4 2l-2 2l-2 -4v-24v-4l-2 -4l-8 -2l-4 -4l-2 -2l-2 -4l-2 -2v-2 l2 -2h4l4 -8l-4 -10v-6v-2l2 -6l-2 -6v-2l4 -4l2 -2l4 -2h6l2 -4l2 -2h4l6 -4l4 -6l4 -6l4 -2h2l4 -2l4 -4l2 -4l2 -8v-4v-2l2 -2v-2v-2v-2h2l4 -6l-4 -6l2 -4v-4l2 -4v-4l2 -2h2l10 -2l2 -6l54 2l42 4v6v2v2v4l-2 2v4l-4 2l2 4l-2 6v8l2 6v2v4l2 4v2l-2 6v4l2 6l2 4l2 2 l-2 8l2 4v6l4 8v2l-2 2v2l-2 -2h-4v-2l-2 -4l-2 -4l-2 -2l-2 -4h-6l-2 6l2 4l2 6l2 4v4h4l2 2v2v2l-4 2v4l2 4h-2l-4 -2l-2 6l2 4v4l-2 4v2l-4 2h-6v6l-2 2h-8l-2 2l-2 -2l-6 2l-2 -2l-12 6l-32 6l-4 6l-2 2l-4 2h-2l-4 2l-4 2h-2l-2 -2h-8l2 4l2 4v2l2 4v2h-2zM1226 648 l-62 -4l-46 -2v-46l6 -4l2 -4l2 -6v-4l2 -4l2 -2l2 -4v-4l4 -4l2 -2v-4l2 -4l-2 -2v-2v-4v-2l-2 -4v-4l-2 -2l-2 -4v-6v-2v-4l2 -8l-2 -4l-2 -2l2 -4l-2 -4l-4 -2l2 -2l2 2l12 2l-2 2l4 2l2 12l6 -6v-4v-4l-2 -2h4l6 -2l6 -2l4 -2l4 -2l16 -2h2l4 4l-6 6h8v2l4 2l10 2l-2 -6 v2h10v-4l4 -2v-4h2l4 -2l2 4h4l2 -4h-2v-2l2 -2l2 -2l4 -4l-2 -2h4l6 -4l2 2h2l2 -2h2v4v4l4 2l8 2v-4h2h6v-6v-2v2l2 2h2l-4 4l4 2v4l-6 2l-2 6l2 2l12 -6h4l4 -2l2 -2v-2l2 2l2 -4h2h6v-4l2 -2v8h-2h-4l-2 4l-4 2h-4l-2 6l4 2l-2 2l4 2v2l4 4h4v2l-4 2v4l-2 -2v-2l-2 -4 h-4l-2 2h-2l-4 2l-2 4l4 2l-2 2l-2 -2l-4 -2l-8 -2h-6l-4 4l-2 4l4 4l4 6l4 2h6l4 -2l2 -4h2h2l2 2l2 -2l2 -2v0l-2 4v2v2l-2 2l-4 4l-2 4l-2 4l2 6l2 6l-36 -2l-46 -2l6 6l-2 2l2 2l-4 6l6 2l-4 4h4v6l2 2h-6l8 4v4h2l-2 2l2 4l4 2l6 6l-10 4h10l-4 2l2 6h4l2 2l-2 4h-2 l-2 6v2h-2l-2 4l4 4h-2l-2 6l4 2v2l-8 -6zM1322 476l-4 2l2 -8l2 2l2 -4l2 2v2l-2 4h-2zM1256 818l-70 -4l-60 -2l-36 -2l6 -38l2 -14v-82l2 -2l2 -2l2 2l12 -2v-26l48 2l64 4v2l-2 4h4v2l-2 2v4v2h-2l-8 -6l6 12l-2 4l4 2l-4 4l4 2v4h4v2v2l-4 4l8 4v6l-4 6l8 -2l2 2v4h4 l2 2v2l2 4l-2 2v16v8l2 -6v4l6 -8h2v2v2h-2l2 4l4 2v2l4 2l-2 8h-4l2 6l4 2l-2 2l4 2l2 4l-2 2v2l4 2l2 2h2l-2 4l4 2v2l-24 -2l-2 4l2 4l4 4l2 2l2 2v2v2l-2 4h-2zM1186 1014l-22 -2l-56 -4h-26h-38l2 -4l2 -6l2 -2l4 -2v-4l4 -2l-2 -4l10 -8l4 2h4l2 -6v-4v-2h-4v-2l-4 -4 l2 -2l2 -2l4 -4v-4l4 -4l2 -2l4 -2l4 -126l36 2l60 2l70 4l4 -2l4 -4v-4v-4l-4 -4h-2l-2 -4l-2 -2h2l18 2l2 4l2 2l-4 2l4 4l-2 4l4 2l-2 4l4 8l2 -4l2 2l4 2h2l-2 4l4 4v2v4v2h-4l-2 -2l-6 8l-4 8l2 4v2l-4 6v6h-2l-4 4l-2 2l-4 2l-4 -2v6h-2l-10 6l-6 6v4v4l2 4l2 4l2 6v4 l2 4l-6 4h-2h-2l-2 -2l-6 -2l-4 4l-2 14l-2 2l-2 2l-8 6l-2 2l-4 2l-2 4l-4 4l-2 2l-2 4l-2 6v2l-2 6v6l2 4v2l-2 4l-8 4v2zM1194 1154l-32 -2l-50 -2l-60 -2h-38v-2l2 -2l-2 -6v0l4 -4v-4l-2 -4v-2l-2 -8h-2v-2v-2l4 -2v-6h4v-6v-2l2 -2v-4v-2l2 -4v-2l6 -6v-4l2 -2v-4v-4 v-2v-2h2v-4l4 -2l-2 -4l2 -4v-2l2 -4v-4v-4l2 -6l-2 -8l2 -2l2 -2h38h26l54 4l26 2l2 -4l6 -4l2 -2v2l-2 4l4 4l6 4l2 2v2v4l4 4v6l-6 6l2 8v4l12 2l4 2l6 2l2 2v6l4 6l2 8l-2 4l-2 2l-2 2l-4 2l-2 4l-4 4l-4 4v2l-2 4l-8 2l-4 2l-2 4v2l-2 4v6l-2 4l2 6v2l-2 2l-2 4h-2v2z M1058 1428v-12l-2 -4l-26 -2h-38v-2l2 -8l2 -4l-2 -6v-4v-4v-2v-6l2 -2l2 -10v-2l4 -10l2 -6v-4v-2v-4v-6v-6v-4l2 -4v-4v-10l2 -2v-4v-2l4 -6v-4v-2l2 -8v-2v-4l-2 -6l-2 -4l-4 -2l-2 -2v-2l2 -2l2 -4l4 -2l2 -2l4 -4v-84h34l60 2l50 2l32 2v2v2l-2 8l-2 4l-2 2l-4 2l-2 2 l-4 2l-6 4l-4 8l-4 2l-4 2l-4 2l-2 2l-4 2h-4l-4 4l-6 4l2 4v6v6v4v6l4 8l-4 4h-2l-4 4v4l4 4v2l2 4l6 6l6 2l2 2v2l-2 28h4l2 2v2l2 2l10 8l2 2l2 2l4 4l8 8l2 6l12 12l10 4l6 4h4l12 8h2h-2h-4l-4 2l-2 2h-6h-2h-6l-4 -2h-4l-2 4l-2 2v0l-6 -4l-4 -2l-6 -4h-6l-6 4v2l-8 4 l-2 4h-2h-2l-2 -6l-6 2l-2 4v2l-2 2l-6 -2l2 6l-10 4h-8h-2l-2 -2l-2 -2l-10 -2l-4 2l-2 2l-12 2l-2 2h-6l-4 2l-4 2v6l-2 8l-2 10l-2 2h-4zM1762 794l-4 -2l-2 -4l-2 -4l2 4zM816 984l-8 -142l60 -2l86 -2h86h46l-4 100l-2 2h-2l-6 8v2l-4 2l-2 4l-2 4l4 6l2 4h2v2l-2 2 l-4 -2l-8 6h-62h-46l-90 4zM990 680h2v4zM772 840l-2 -20l50 -2l40 -2h16l4 -2l4 -2l-2 -90l4 -4l6 -4l2 -2l2 2l4 -2h2l2 6l2 -4l4 -2l2 -4v-4h4v-2l4 2l2 -2l6 -2h2h6l2 -2v-2h2l4 4l6 -2l6 2v-6v-2h4l2 -4v-2h2l6 6l6 -2v-2h4v-4h2l4 2h6v-2l4 2v2l2 2l4 -2l4 -2l4 2 l4 -2l2 -2l2 -2l4 -2h2h4l4 4l2 2l4 2l4 -2h2l2 2l8 2l4 -4h2h2l2 4h6l8 -4l4 -4l4 -2l2 -2l6 -2v82l-2 14l-6 40v22h-46h-86l-86 2l-62 2zM774 1418l-10 -140l58 -4l66 -4h62l60 -2v2v2l-2 6v4v2l-4 6v4v2l-2 4v12v2l-2 2v6v6v6v4v2v4l-2 6l-4 10v2l-2 8l-2 4v6v2v4v4l2 6 l-2 2l-2 10v2h-26l-64 2l-76 4zM764 1274l-2 -42l-2 -2l-6 -94l34 -2l60 -4l58 -2h40l4 -4l12 -6h2l2 4l8 -2l14 2l4 -4l4 -2l4 -2l2 2l4 -4l2 -2v4l2 4v2l2 4v4l2 2v2l-4 2v6l2 2l-2 4l-2 6h6v84l-2 2h-2l-4 2l-4 6l-2 4v4l4 4h2l2 4l2 2h-60l-62 2l-66 4zM1012 1106v2 l-2 2v-4h2zM752 1132l-6 -92l32 -2l36 -2l4 -2l-2 -46l44 -2l90 -4h46l56 2v2l-2 2v4l-2 2l-4 4l-2 4l-2 4v4v2l-4 2l2 10l-2 6v4v4l-2 2v4l-2 4l2 2l-4 2v2h-4l2 2v4v2v4v2l-2 4v2l-6 6v2l-2 4v4v2l-2 4v2v2h-2l-4 2l-2 2l-2 4h-4l-2 2h-2l-2 2h-2l-2 2l-6 4l-12 -2h-6 l-2 -2l-4 -2l-14 8l-4 4h-38l-58 2l-60 4zM768 816v-2l-8 -116l-4 -44l-2 -50l-4 -4h-2l-36 2l-76 6l-28 4l2 -4l2 -4l2 -2h2l2 -2l2 -4l2 -4l2 -4l2 -2l6 -4l4 -2l6 -10l6 -6v-2l6 -6l2 -2l4 -2l6 -6h4v-4l2 -2l2 -4v-4l2 -2l4 -6v-4v-4v-2v-6l6 -14l4 -4l4 -2l2 -2l2 -2 l8 -6l2 -2l6 -2l2 -4l8 -4l4 -2l2 -2h4v-2h2h2l2 2l2 2l2 4h4v2v4l2 2l6 12l2 4l2 2h4l4 2h2h2l2 4h6l4 -4h2h4h4h2l8 -2l4 2l4 -2l4 -4v-2l4 -4h2l2 -4l2 -2l4 -2v-2l10 -8l2 -6l4 -2l2 -8l2 -8l2 -4l2 -2l2 -2l2 -6v-6l4 -6l2 -2h4l2 -6l2 -2l2 -2l2 -4v-4l6 -6l6 -2l2 -2 l2 -4v-2v-4v-4v-2l2 -2v-4v-2v-2l2 -4l4 -6l2 -2l2 -8l2 -6l2 -2v-4h6l4 -2h2l4 -2l2 -2v-2l2 2l4 -2h4l6 -6l2 -2h12h8l2 -2h4l6 -6l4 -2v2l4 2l-4 6h2v6l-6 10v4l-2 10l-4 4v4v2l2 4h2v2l2 4v2h-4h-2l-6 -2l2 4h-2v4v2l-6 10l10 -8l2 -2h2l2 2l4 -2l4 14l-2 2l-2 4h-2 l-6 4l8 2h8l2 -2l2 4l-4 4l2 4l-2 4h6l4 2l2 -2l4 12v-12l2 2v2l-2 4l2 4v0v0l2 2l4 -6h2l6 4l-6 -2l2 4v2l-6 10h8l2 -2l2 -4l-2 6l4 2l2 -4h2l4 2l2 -4h4l4 2l8 4h6l6 4l4 2l2 2l6 6v4l6 4l2 4l2 2h2l-4 2v4l-2 2v4l-2 4l4 4l4 -2v2l4 2l6 -2v-6l-2 -2h4h10l2 2l10 4h6 l-4 4l6 8l2 4l2 2l2 2l-2 8l-2 4l2 4v6l2 4l2 2v4l2 2v4v2v2v4v2v2l-6 8v2v2l-2 2l-2 2l-2 4v6l-2 4l-2 4l-6 4l-2 74l-8 2l-4 -2l-4 4l-8 2l-4 2l-4 2l-6 4l-6 4l-2 -2l-4 -2h-4h-2l-2 4l-6 -2l-2 -2h-6h-2h-2l-2 -2l-4 -4h-4l-2 -4l-4 4l-2 2l-4 2l-2 2h-2l-2 -2l-6 2 l-2 4v-2l-4 -2l-2 -6h-4h-2l-2 4v2l-4 -2h-4l-2 4h-2l-2 2l-2 2l-4 -6h-4h-4v6h-4l-2 6v0l-6 2l-4 -4h-4l-4 2v2h-2h-4l-6 2l-4 2l-2 -2l-2 2h-4l-2 4v2l-2 2l-2 2v-2h-4l-4 2l-2 -2l-4 2l-6 6l-2 2h-4v8l2 84h-2l-2 2h-16l-40 2zM566 1054l-24 -188l62 -8l56 -6l66 -4 l78 -6l10 188l-2 2l-34 2l-34 2l-56 4l-30 4l-60 6zM542 862l-34 -268l30 -4v2l2 14l2 6l64 -8v2l-2 6v4l34 -4l74 -6l36 -2l2 2l2 48l4 44l8 122h2l2 20l-42 4l-68 4l-54 6zM524 1254l-2 -2l-2 -20l-24 -164l70 -10l34 -4l58 -6l30 -4l54 -4l8 94l6 94l-44 4l-66 6l-60 8z M394 1470l-10 -44l6 -10l2 -6v-4v-4l2 -4h-2l2 -4l2 -2l4 -4l2 -2l2 -4v-4l4 -6l4 -2l-2 -2v-2l4 -4v-2h4v-4h2h4l4 -2l-4 -12l-2 -6l-2 -4l-2 -2v-2v-4l2 -2l-2 -8h-4v-2v-4l-2 -4h2l2 -4h2l14 8l2 -6l2 -2v-8l2 -8l2 -4l2 -4l2 -4v-4l-2 -4v-2h2h2l6 -4l2 -6l-2 -4l2 -2 v-4l2 -2v2l4 2l8 -2l2 -2h2l4 4h2l8 -2h6l2 -2l2 2l4 -2l8 8l4 -2l2 -6l2 -2l4 18l4 2l62 -8l60 -8l66 -6l44 -4l2 2l2 42l10 142l-22 2l-60 6l-50 6l-46 6l-72 10l-82 14zM398 1128l-42 -234l32 -6l52 -8l48 -8l50 -6l24 188l-72 10l8 48l-40 6l-50 8zM362 1476l-22 -106 l-2 -10l-2 -4l2 -6v-8v-4v-4l2 -2v-2l8 -6v-8l-2 -2l-6 -8l-6 -10l-4 -6l-2 -2l-2 -4l-2 -4l-4 -2l-4 -6l-4 -4v-8h2l4 -4l2 -4l-2 -4l-2 -4l-2 -6l-2 -2l-18 -84l54 -10l62 -12l50 -8l38 -6l18 116l-4 2v4l-2 4l-2 2l-4 -6v-4l-8 2h-2l-4 2h-6l-6 2l-4 -4h-4l-4 2l-4 2 l-2 -2v-2l-4 -2l-4 4l-2 4v2l-2 4l2 4l-2 4l-2 2l-4 -2l-4 6v4l2 4v2l-2 2l-2 4l-2 6l-2 8v6l-2 2v2l-12 -6l-4 -2l-2 6l-6 2l2 6l2 2l-2 2l4 4l2 2v4l-2 2l2 4v4l2 2l2 4l2 6l4 8h-2h-4l-4 2v2h-2l-2 4l-4 2v6l-2 2l-4 8v2l-2 4l-2 2l-4 2l-2 4l-6 8h4l-2 2l2 4v2l-2 6v2 l-6 10l10 46zM488 868l-50 8l-50 8l-34 6l-6 -36l-4 -4l-4 -6l-6 2v4l-2 2h-4l-2 2h-2l-4 -2v-2l2 -8l-2 -2v-4v-6v-4l-2 -2l2 -6v-8l-4 -4v-6l-2 -2l2 -2l2 -8l2 -4v-2l2 -4v-4l4 -4l4 -6l-4 -4l-10 -6l-2 -2l-2 -2l-2 -4v-6l-2 -4l-2 -4l-6 -8h-2l-2 -2l2 -4v-4l-2 -2v-2 h2l4 -2l2 -4v-8l-4 -2l-2 -4l-6 2v0l-4 -6h-2l8 -6l80 -46l52 -28l60 -10l18 -2l34 268zM190 1172l-26 -106l-8 -32l112 -162l44 -66v2l4 4v6l-2 6l2 4v4v4v6l2 2l-2 6l2 4l4 4h4l4 -2h4l4 -4v-2l4 2l2 4l6 36l44 238l-46 8l-56 10l-44 10zM170 1450h-6v-2l4 2h2zM164 1460 l-4 -2l-4 -6v2l8 -2v0h6v2l-4 -2v6l-2 -4v6zM168 1462v-2h2zM174 1468l-2 -2h2v2zM180 1494l-4 -4l-2 -2v-4l2 -4v-2l2 -4l2 -2v-2l4 2l-2 2l-2 4h-2v6l-2 2l2 2l4 2l-2 2v2zM166 1508l-2 -4l2 -2l2 -2l2 4l-2 4h-2zM174 1510l-2 -2l2 -4l2 4v-4l2 4zM184 1520h-2v-2l2 -4 l2 -2l4 -2l-2 -4l2 -4l-2 -6l-2 -4h-2l4 -4l-2 -4v-6l2 -4v-4l-4 -4l-2 -2v-4l-2 -2l2 -2l-4 -4l2 -6l-6 -4l-4 -2l-2 -2l-4 -4h-4h-2v2v0l-2 -6l-6 6l2 2l-12 4h12l2 4l4 2h-6v0l-4 4l4 4l6 6l2 2l8 10l-4 6l-4 -2v8h-2l-4 -2l-4 4h-6l-2 2l-6 2l-6 4l-2 2l-2 2l-4 2l-4 6 v-2h-2v-4l-2 -2v-2l-2 -4v-2l2 -2l2 -4l2 -6v-4l-2 -12l2 -8l-2 -10l4 -2l2 -2l10 -4l-12 -2l-6 -2v-2h2l6 -2l2 -8h-4l-2 2v-4l-2 -2l2 -4l-2 -4h4l2 -4h4l2 -2h2v-4l2 -2h2h4l2 -4l4 -2l2 -8l-2 -16l4 -2l4 -2h2l2 -2h2h6h2l4 2h4h4l4 -2h4l4 -2l4 -2v-2h4l4 -2l8 2h4 l4 -4h2h2l6 2h8h8l4 2h2h8l4 -2h2l2 2l32 -8l36 -6v8l-2 8l2 2l2 10l22 108l-28 6l-56 12l-48 12zM114 1408h2l-4 6h-2v-2h2zM308 754h2l2 4l10 6l2 2l-8 8l2 4l-2 2v4l-2 4l-4 6v4l2 2l-48 70l-112 164l8 32l26 106l-62 16l-78 22l-2 -6v-2l2 -2v-4v-6v-2l-2 -6l-6 -12v-2 l-2 -6l-2 -2v-2v-2l-4 -2l-4 -2v-2l-4 -4l-2 -6v-4v-2l6 -10v-2l2 -4l2 -10v-2l2 -4l-2 -4v-4l-2 -2l-2 -6v-12v-6l-2 -2l2 -6l2 -6l4 -8l2 -4l4 -2v-4l2 -4v-2l2 -6l2 -6h-4l4 -4v-4h4l2 -4v-2v2l2 4v2l2 4l4 2l6 -4l2 -2v-2l4 2h4l2 -4h4l10 8l-4 -8h2v0l2 -4l4 -4v-8 l-8 12l-6 -2h-2h-4l2 2l-6 2h-4l-2 2l-4 -2h-2l2 -4v-2v-2l2 -2l2 -6v-6l4 -6h-8l-4 4l-2 4l-4 2l2 6v2v2v-2l-2 -2l-2 -6l2 -2v-8v-4h-2v-2l2 -4l4 -8l2 -2h8l2 -8v-10h-2l-2 -2l-4 -2v-6l-2 -4l2 -4l4 -6l2 -6l2 -2l2 -8l2 -6v-2l2 -2l4 -4l2 -6l6 -6v-6l-2 -2v-2v-2h4 l4 -4l-2 -6l-2 -4v-6l-2 -2v-4l-2 -4h2l2 -4l2 -2l10 -2l2 -2h4l6 -4h2l6 -2l6 -4l2 -4l4 -2v-6l8 -6l4 -2l14 -2v-2l4 -8v-2l-2 -4v-2h2v2h6l4 -4l2 -4l2 -4l4 -2l10 -14l4 -6l2 -6v-8v-6l-2 -6l4 -2l-2 -4l2 -2l94 -10h4h2v2l4 2v2v2l-4 2l-4 2v4l2 4v2l-2 4l2 4l4 2l4 6 l2 4l2 2v6zM112 1402v-2l-2 -6l-2 -2l-2 -4v-2v-2l2 -4l-4 -4v-2l4 -6l-6 2v-2l-2 -2v-4l-2 -2v-4l-4 -4v-4l-6 -8v-6l-2 -6v-4v-2l-4 -2v-2l-2 -6l-6 -16l-2 -2h2v-6h-4l-2 -2l-2 -4v-2h2l-4 -10l-2 6l-4 -8v4l-4 -10l-6 -6v-6l2 -6l-2 -4l-2 -4v-2l-2 -4v-12l2 -4h2 l76 -22l66 -16l60 -14l40 -8l18 84l2 2l2 6l2 4l2 2l-2 2l-2 2h-4l-2 4l4 10l2 4l4 6l6 4l2 2l2 2v4l6 6l4 10l8 8v2v4l-6 6l-2 2l-2 4v2l-38 8l-28 8l-4 -2h-4l-4 2h-6h-2l-2 -2h-10h-6l-6 -2h-4l-4 2l-4 2h-2l-10 -2l-2 2h-8v4h-2l-4 2l-2 2h-6h-2h-2l-4 -2h-4h-6h-4l-2 2 h-2l-4 2l-4 2l-2 4l2 16l-2 4l-4 4v2h-2h-2l-6 2l-2 2l-2 2h-2h-2l2 -4l-8 4v2z" />
<glyph unicode="{" d="M1786 1830q102 -102 159 -236t57 -284v-528q0 -292 -200 -504q-94 -100 -220 -160t-268 -70v140v138q174 18 290 148q120 132 120 308v528q0 190 -135 324t-323 134h-986v-986q0 -176 118 -308q118 -130 290 -148v-138v-140q-140 10 -266 70t-220 160q-200 212 -200 504 v1264h1264q148 0 283 -57t237 -159zM1001 1006q69 0 118 49t49 118t-49 118t-118 49t-118 -49t-49 -118t49 -118t118 -49zM862 868v-410v-410h140h138v410v410h-138h-140z" />
<glyph unicode="|" d="M1786 1830q102 -102 159 -236t57 -284v-528q0 -292 -200 -504q-94 -100 -220 -160t-268 -70v140v138q174 18 290 148q120 132 120 308v528q0 190 -135 324t-323 134h-986v-986q0 -176 118 -308q118 -130 290 -148v-138v-140q-140 10 -266 70t-220 160q-200 212 -200 504 v1264h1264q148 0 283 -57t237 -159zM1001 1006q69 0 118 49t49 118t-49 118t-118 49t-118 -49t-49 -118t49 -118t118 -49zM862 868v-410v-410h140h138v410v410h-138h-140z" />
<glyph unicode="}" d="M1786 1830q102 -102 159 -236t57 -284v-528q0 -292 -200 -504q-94 -100 -220 -160t-268 -70v140v138q174 18 290 148q120 132 120 308v528q0 190 -135 324t-323 134h-986v-986q0 -176 118 -308q118 -130 290 -148v-138v-140q-140 10 -266 70t-220 160q-200 212 -200 504 v1264h1264q148 0 283 -57t237 -159zM1001 1006q69 0 118 49t49 118t-49 118t-118 49t-118 -49t-49 -118t49 -118t118 -49zM862 868v-410v-410h140h138v410v410h-138h-140z" />
<glyph unicode="~" d="M1786 1830q102 -102 159 -236t57 -284v-528q0 -292 -200 -504q-94 -100 -220 -160t-268 -70v140v138q174 18 290 148q120 132 120 308v528q0 190 -135 324t-323 134h-986v-986q0 -176 118 -308q118 -130 290 -148v-138v-140q-140 10 -266 70t-220 160q-200 212 -200 504 v1264h1264q148 0 283 -57t237 -159zM1001 1006q69 0 118 49t49 118t-49 118t-118 49t-118 -49t-49 -118t49 -118t118 -49zM862 868v-410v-410h140h138v410v410h-138h-140z" />
<glyph unicode="&#xa0;" d="M1786 1830q102 -102 159 -236t57 -284v-528q0 -292 -200 -504q-94 -100 -220 -160t-268 -70v140v138q174 18 290 148q120 132 120 308v528q0 190 -135 324t-323 134h-986v-986q0 -176 118 -308q118 -130 290 -148v-138v-140q-140 10 -266 70t-220 160q-200 212 -200 504 v1264h1264q148 0 283 -57t237 -159zM1001 1006q69 0 118 49t49 118t-49 118t-118 49t-118 -49t-49 -118t49 -118t118 -49zM862 868v-410v-410h140h138v410v410h-138h-140z" />
<glyph unicode="&#xad;" d="M1786 1830q102 -102 159 -236t57 -284v-528q0 -292 -200 -504q-94 -100 -220 -160t-268 -70v140v138q174 18 290 148q120 132 120 308v528q0 190 -135 324t-323 134h-986v-986q0 -176 118 -308q118 -130 290 -148v-138v-140q-140 10 -266 70t-220 160q-200 212 -200 504 v1264h1264q148 0 283 -57t237 -159zM1001 1006q69 0 118 49t49 118t-49 118t-118 49t-118 -49t-49 -118t49 -118t118 -49zM862 868v-410v-410h140h138v410v410h-138h-140z" />
<glyph unicode="&#x2000;" horiz-adv-x="1023" />
<glyph unicode="&#x2001;" horiz-adv-x="2046" />
<glyph unicode="&#x2002;" horiz-adv-x="1023" />
<glyph unicode="&#x2003;" horiz-adv-x="2046" />
<glyph unicode="&#x2004;" horiz-adv-x="682" />
<glyph unicode="&#x2005;" horiz-adv-x="511" />
<glyph unicode="&#x2006;" horiz-adv-x="341" />
<glyph unicode="&#x2007;" horiz-adv-x="341" />
<glyph unicode="&#x2008;" horiz-adv-x="255" />
<glyph unicode="&#x2009;" horiz-adv-x="409" />
<glyph unicode="&#x200a;" horiz-adv-x="113" />
<glyph unicode="&#x2010;" d="M1786 1830q102 -102 159 -236t57 -284v-528q0 -292 -200 -504q-94 -100 -220 -160t-268 -70v140v138q174 18 290 148q120 132 120 308v528q0 190 -135 324t-323 134h-986v-986q0 -176 118 -308q118 -130 290 -148v-138v-140q-140 10 -266 70t-220 160q-200 212 -200 504 v1264h1264q148 0 283 -57t237 -159zM1001 1006q69 0 118 49t49 118t-49 118t-118 49t-118 -49t-49 -118t49 -118t118 -49zM862 868v-410v-410h140h138v410v410h-138h-140z" />
<glyph unicode="&#x2011;" d="M1786 1830q102 -102 159 -236t57 -284v-528q0 -292 -200 -504q-94 -100 -220 -160t-268 -70v140v138q174 18 290 148q120 132 120 308v528q0 190 -135 324t-323 134h-986v-986q0 -176 118 -308q118 -130 290 -148v-138v-140q-140 10 -266 70t-220 160q-200 212 -200 504 v1264h1264q148 0 283 -57t237 -159zM1001 1006q69 0 118 49t49 118t-49 118t-118 49t-118 -49t-49 -118t49 -118t118 -49zM862 868v-410v-410h140h138v410v410h-138h-140z" />
<glyph unicode="&#x2012;" d="M1786 1830q102 -102 159 -236t57 -284v-528q0 -292 -200 -504q-94 -100 -220 -160t-268 -70v140v138q174 18 290 148q120 132 120 308v528q0 190 -135 324t-323 134h-986v-986q0 -176 118 -308q118 -130 290 -148v-138v-140q-140 10 -266 70t-220 160q-200 212 -200 504 v1264h1264q148 0 283 -57t237 -159zM1001 1006q69 0 118 49t49 118t-49 118t-118 49t-118 -49t-49 -118t49 -118t118 -49zM862 868v-410v-410h140h138v410v410h-138h-140z" />
<glyph unicode="&#x2013;" horiz-adv-x="1072" d="M915.5 1830q52.5 -102 81.5 -236t29 -284v-528q0 -292 -102 -504q-49 -100 -113.5 -160t-136.5 -70v140v138q89 18 148 148q62 132 62 308v528q0 190 -69.5 324t-165.5 134h-505v-986q0 -176 61 -308q60 -130 148 -148v-138v-140q-71 10 -135.5 70t-113.5 160 q-102 212 -102 504v1264h647q76 0 145 -57t121.5 -159zM513.5 1006q35.5 0 60.5 49t25 118t-25 118t-60.5 49t-60.5 -49t-25 -118t25 -118t60.5 -49zM442 868v-410v-410h72h71v410v410h-71h-72z" />
<glyph unicode="&#x2014;" horiz-adv-x="2096" d="M1828.5 1830q104.5 -102 163 -236t58.5 -284v-528q0 -292 -205 -504q-96 -100 -225 -160t-275 -70v140v138q179 18 297 148q123 132 123 308v528q0 190 -138 324t-331 134h-1009v-986q0 -176 121 -308q120 -130 296 -148v-138v-140q-143 10 -272 70t-225 160 q-205 212 -205 504v1264h1294q152 0 290 -57t242.5 -159zM1025 1006q71 0 121 49t50 118t-50 118t-121 49t-121 -49t-50 -118t50 -118t121 -49zM883 868v-410v-410h143h141v410v410h-141h-143z" />
<glyph unicode="&#x202f;" horiz-adv-x="409" />
<glyph unicode="&#x205f;" horiz-adv-x="511" />
<glyph unicode="&#xe000;" horiz-adv-x="1320" d="M0 1320h1320v-1320h-1320v1320z" />
</font>
</defs>
</svg>
